{"glyphs":{"0":{"ha":607,"x_min":36,"x_max":571,"o":"m 303 900 q 201 869 249 900 q 116 780 153 839 q 58 635 79 721 q 36 438 36 549 q 58 240 36 326 q 115 94 79 153 q 201 4 151 35 q 304 -26 250 -26 q 406 4 358 -26 q 491 94 454 35 q 549 239 528 153 q 571 438 571 325 q 549 635 571 549 q 492 780 528 721 q 406 869 456 839 q 303 900 357 900 m 303 861 q 410 756 378 861 q 442 436 442 650 q 410 117 442 222 q 304 13 378 13 q 198 118 231 13 q 165 438 165 224 q 198 756 165 650 q 303 861 231 861 z "},"1":{"ha":607,"x_min":114,"x_max":529,"o":"m 394 793 q 397 838 394 818 q 400 869 400 857 q 382 896 400 896 q 369 890 378 896 q 341 872 360 883 q 292 846 322 861 q 218 814 263 831 q 143 785 172 796 q 114 754 114 775 q 132 736 114 736 q 159 742 144 736 q 190 756 174 749 q 221 770 206 764 q 250 776 236 776 q 267 759 265 776 q 269 700 269 742 l 269 160 q 261 81 269 107 q 219 50 253 56 q 183 47 200 47 q 157 46 168 47 q 140 40 146 44 q 133 24 133 36 q 157 0 133 0 q 211 4 174 0 q 307 8 249 8 q 455 3 407 8 q 510 -3 503 -3 q 529 21 529 -3 q 519 40 529 35 q 495 45 510 44 q 463 46 481 46 q 431 53 446 46 q 401 93 407 64 q 394 171 394 122 l 394 793 z "},"2":{"ha":607,"x_min":49,"x_max":529,"o":"m 204 192 q 362 367 299 303 q 451 464 425 432 q 509 565 489 513 q 529 671 529 618 q 513 763 529 721 q 466 834 496 804 q 395 881 436 864 q 307 897 354 897 q 208 873 253 897 q 130 817 163 849 q 80 751 97 785 q 63 699 63 717 q 76 682 63 682 q 101 700 92 682 q 131 746 111 718 q 192 809 161 788 q 263 831 224 831 q 360 783 321 831 q 399 653 399 736 q 363 513 399 582 q 264 353 326 444 l 82 89 q 58 53 67 68 q 49 25 49 39 q 79 -3 49 -3 q 88 -1 83 -3 q 99 0 93 0 l 478 0 q 519 8 511 0 q 526 54 526 17 l 526 186 q 525 217 526 206 q 513 228 524 228 q 498 222 503 228 q 490 206 493 215 q 485 184 488 196 q 476 161 482 172 q 453 141 469 146 q 404 136 436 136 l 185 136 q 167 142 167 136 q 174 154 167 144 l 204 192 z "},"3":{"ha":607,"x_min":53,"x_max":539,"o":"m 282 899 q 194 882 233 899 q 126 842 154 865 q 83 794 99 819 q 68 751 68 769 q 79 732 68 732 q 99 745 93 732 q 121 779 104 758 q 174 829 147 813 q 236 846 201 846 q 306 814 278 846 q 335 732 335 782 q 294 623 335 671 q 186 519 254 575 q 100 455 131 475 q 69 415 69 435 q 74 404 69 408 q 85 400 79 400 q 99 406 89 400 q 126 420 110 413 q 167 434 143 428 q 221 440 190 440 q 372 380 317 440 q 428 214 428 319 q 408 95 428 147 q 358 8 388 43 q 294 -46 328 -28 q 235 -64 261 -64 q 199 -50 215 -64 q 169 -20 183 -36 q 138 10 154 -4 q 103 24 122 24 q 53 -35 53 24 q 178 -117 53 -117 q 306 -81 238 -117 q 435 25 374 -46 q 539 286 539 146 q 505 435 539 375 q 406 524 471 496 q 355 540 378 536 q 316 544 332 543 q 290 546 300 546 q 282 550 282 546 q 311 572 282 558 q 381 617 340 585 q 437 681 419 647 q 454 760 454 714 q 409 859 454 819 q 282 899 364 899 z "},"4":{"ha":607,"x_min":32,"x_max":568,"o":"m 492 988 q 476 983 481 988 q 464 971 471 979 l 78 403 q 44 349 57 371 q 32 313 32 328 q 40 285 32 290 q 67 281 49 281 l 311 281 q 335 275 332 281 q 339 246 339 269 l 339 138 q 334 86 339 106 q 308 60 329 67 q 270 50 286 53 q 244 44 254 47 q 230 37 235 42 q 225 19 225 32 q 228 3 225 7 q 242 0 231 0 q 293 6 253 0 q 407 11 333 11 q 476 7 447 11 q 522 3 506 3 q 540 7 535 3 q 546 24 546 11 q 541 40 546 36 q 528 46 536 44 q 508 48 519 47 q 485 56 497 49 q 465 78 469 64 q 461 121 461 93 l 461 254 q 465 274 461 268 q 482 281 469 281 l 553 281 q 568 299 568 281 l 568 321 q 551 340 568 340 l 486 340 q 465 347 469 340 q 461 368 461 353 l 461 656 q 447 678 461 678 q 421 670 446 678 q 368 644 396 663 q 343 622 347 631 q 339 599 339 613 l 339 372 q 335 347 339 353 q 314 340 332 340 l 118 340 q 100 342 107 340 q 93 353 93 343 q 108 383 93 360 q 151 449 124 407 l 225 557 q 349 733 294 658 q 443 859 404 808 q 502 938 482 910 q 522 975 522 967 q 519 983 522 979 q 511 988 515 988 l 492 988 z "},"5":{"ha":607,"x_min":67,"x_max":536,"o":"m 424 760 q 447 762 435 761 q 468 774 458 763 q 484 810 478 785 q 490 883 490 835 q 476 900 490 900 l 464 900 l 236 878 q 190 872 207 875 q 165 865 174 869 q 152 851 156 860 q 144 826 149 842 q 90 622 113 694 q 68 524 68 550 q 77 501 68 507 q 104 494 86 496 q 150 490 122 492 q 215 481 178 489 q 366 410 317 460 q 415 274 415 360 q 366 113 415 183 q 222 0 317 42 q 156 -23 185 -17 q 106 -33 126 -29 q 76 -40 86 -36 q 67 -57 67 -44 q 90 -78 67 -78 q 131 -72 103 -78 q 197 -55 160 -67 q 274 -26 233 -43 q 353 17 315 -8 q 488 153 440 74 q 536 319 536 233 q 283 614 536 561 q 223 623 250 621 q 177 627 196 625 q 149 634 158 629 q 139 653 139 639 q 147 707 139 689 q 171 733 156 725 q 208 742 186 742 q 260 746 231 743 l 424 760 z "},"6":{"ha":607,"x_min":39,"x_max":572,"o":"m 39 357 q 60 201 39 272 q 119 80 82 131 q 207 1 157 29 q 314 -26 257 -26 q 414 -1 367 -26 q 497 69 461 25 q 552 175 532 114 q 572 306 572 236 q 558 410 572 363 q 517 494 543 458 q 453 549 490 529 q 372 569 417 569 q 322 561 346 569 q 280 542 299 553 q 250 517 261 531 q 239 493 239 503 q 242 482 239 488 q 251 476 246 476 q 263 481 257 476 q 278 492 269 486 q 296 504 286 499 q 319 510 306 510 q 411 444 372 510 q 450 251 450 378 q 418 78 450 139 q 335 17 386 17 q 272 42 303 17 q 217 115 242 68 q 178 226 193 161 q 163 372 163 292 q 182 520 163 446 q 235 663 201 594 q 316 790 269 732 q 417 892 363 849 q 476 931 450 918 q 522 952 503 944 q 551 965 540 960 q 561 982 561 971 q 543 999 561 999 q 506 988 535 999 q 438 957 478 978 q 350 904 399 936 q 253 829 301 872 q 94 614 149 736 q 39 357 39 492 z "},"7":{"ha":607,"x_min":49,"x_max":585,"o":"m 211 874 q 126 878 160 874 q 76 882 92 882 q 55 876 61 882 q 49 850 49 869 q 51 790 49 821 q 64 724 53 758 q 124 733 85 729 q 222 736 164 736 l 433 736 q 468 725 468 736 q 467 713 468 722 q 460 689 465 704 l 322 304 q 243 85 274 164 q 206 -11 213 7 l 193 -40 q 189 -57 189 -53 q 204 -68 189 -68 q 226 -65 221 -68 q 238 -46 232 -61 l 418 438 q 539 739 493 638 q 585 860 585 840 q 579 874 585 868 q 565 881 574 881 q 544 877 558 881 q 506 874 529 874 l 211 874 z "},"8":{"ha":607,"x_min":31,"x_max":569,"o":"m 444 682 q 433 616 444 646 q 406 565 421 586 q 373 533 390 544 q 346 521 356 521 q 326 527 342 521 q 290 544 311 533 q 247 571 269 556 q 208 604 225 586 q 167 708 167 646 q 204 824 167 782 q 296 865 242 865 q 403 815 361 865 q 444 682 444 765 m 443 521 q 549 690 549 567 q 531 776 549 738 q 483 843 514 815 q 408 886 451 871 q 310 901 364 901 q 208 883 254 901 q 130 833 163 865 q 79 754 97 800 q 61 651 61 708 q 83 544 61 586 q 154 469 104 503 l 190 446 q 207 433 207 433 q 196 425 207 429 l 168 414 q 67 336 104 388 q 31 214 31 285 q 49 119 31 163 q 101 42 67 75 q 183 -8 135 10 q 293 -26 232 -26 q 403 -6 353 -26 q 491 51 454 15 q 549 138 528 88 q 569 249 569 189 q 454 467 569 394 l 421 488 q 407 501 407 496 q 421 511 407 504 l 443 521 m 258 410 q 281 403 264 410 q 320 385 299 397 q 364 358 342 374 q 403 326 386 343 q 453 188 453 275 q 441 118 453 150 q 408 63 429 86 q 359 26 388 39 q 299 13 331 13 q 238 26 267 13 q 189 67 210 40 q 156 128 168 93 q 144 208 144 164 q 156 292 144 256 q 183 356 167 329 q 220 396 200 382 q 258 410 240 410 z "},"9":{"ha":607,"x_min":33,"x_max":564,"o":"m 33 597 q 50 484 33 535 q 97 397 67 433 q 167 342 126 361 q 256 322 208 322 q 299 329 276 322 q 338 347 321 336 q 367 370 356 358 q 379 393 379 382 q 368 407 379 407 q 347 396 361 407 q 304 385 332 385 q 249 402 276 385 q 201 452 222 419 q 167 531 181 485 q 154 633 154 576 q 165 727 154 685 q 192 799 175 769 q 233 846 210 829 q 281 863 256 863 q 337 839 308 863 q 388 772 365 815 q 425 669 411 729 q 439 535 439 608 q 374 244 439 385 q 190 0 308 104 q 134 -43 161 -26 q 88 -72 107 -60 q 56 -92 68 -83 q 44 -108 44 -100 q 60 -128 44 -128 q 123 -101 67 -128 q 263 -15 179 -75 q 486 227 408 89 q 564 522 564 365 q 542 676 564 607 q 483 796 521 746 q 397 873 446 846 q 292 900 347 900 q 194 878 240 900 q 112 815 147 856 q 55 719 76 775 q 33 597 33 664 z "},"ˈ":{"ha":304,"x_min":0,"x_max":0,"o":""}," ":{"ha":304,"x_min":0,"x_max":0,"o":""},"Â":{"ha":638,"x_min":-51,"x_max":675,"o":"m 346 835 q 332 882 336 864 q 313 900 328 900 q 298 891 301 900 q 289 867 294 882 l 68 150 q 47 87 57 113 q 18 47 38 61 q -5 38 7 39 q -27 35 -17 36 q -44 30 -37 33 q -51 15 -51 26 q -26 -3 -51 -3 q 12 1 -11 -3 q 65 4 35 4 q 140 0 110 4 q 186 -4 171 -4 q 210 13 210 -4 q 196 33 210 28 q 154 43 182 39 q 126 53 135 46 q 118 81 118 60 q 139 188 118 106 l 172 311 q 178 320 174 317 q 188 324 183 324 l 360 324 q 381 313 378 324 l 435 135 q 447 72 447 90 q 436 46 447 53 q 390 39 425 39 q 363 17 363 39 q 386 0 363 0 q 435 3 400 0 q 529 7 471 7 q 599 3 571 7 q 646 -1 628 -1 q 675 18 675 -1 q 659 33 675 31 q 624 49 643 35 q 583 96 596 67 q 556 174 571 125 l 346 835 m 278 643 l 353 401 q 356 388 356 390 q 351 380 356 383 q 343 376 347 376 l 204 376 q 194 385 194 376 q 194 389 194 386 q 196 399 194 393 l 261 644 q 269 656 264 656 q 278 643 274 656 m 289 1213 l 163 975 l 194 975 l 321 1118 l 447 975 l 479 975 l 353 1213 l 289 1213 z "},"Ä":{"ha":638,"x_min":-51,"x_max":675,"o":"m 346 835 q 332 882 336 864 q 313 900 328 900 q 298 891 301 900 q 289 867 294 882 l 68 150 q 47 87 57 113 q 18 47 38 61 q -5 38 7 39 q -27 35 -17 36 q -44 30 -37 33 q -51 15 -51 26 q -26 -3 -51 -3 q 12 1 -11 -3 q 65 4 35 4 q 140 0 110 4 q 186 -4 171 -4 q 210 13 210 -4 q 196 33 210 28 q 154 43 182 39 q 126 53 135 46 q 118 81 118 60 q 139 188 118 106 l 172 311 q 178 320 174 317 q 188 324 183 324 l 360 324 q 381 313 378 324 l 435 135 q 447 72 447 90 q 436 46 447 53 q 390 39 425 39 q 363 17 363 39 q 386 0 363 0 q 435 3 400 0 q 529 7 471 7 q 599 3 571 7 q 646 -1 628 -1 q 675 18 675 -1 q 659 33 675 31 q 624 49 643 35 q 583 96 596 67 q 556 174 571 125 l 346 835 m 278 643 l 353 401 q 356 388 356 390 q 351 380 356 383 q 343 376 347 376 l 204 376 q 194 385 194 376 q 194 389 194 386 q 196 399 194 393 l 261 644 q 269 656 264 656 q 278 643 274 656 m 125 1081 q 144 1032 125 1051 q 192 1013 164 1013 q 240 1032 219 1013 q 260 1081 260 1051 q 240 1128 260 1108 q 192 1149 219 1149 q 144 1128 164 1149 q 125 1081 125 1108 m 383 1081 q 403 1032 383 1051 q 450 1013 422 1013 q 498 1032 478 1013 q 518 1081 518 1051 q 498 1128 518 1108 q 450 1149 478 1149 q 403 1128 422 1149 q 383 1081 383 1108 z "},"À":{"ha":638,"x_min":-51,"x_max":675,"o":"m 346 835 q 332 882 336 864 q 313 900 328 900 q 298 891 301 900 q 289 867 294 882 l 68 150 q 47 87 57 113 q 18 47 38 61 q -5 38 7 39 q -27 35 -17 36 q -44 30 -37 33 q -51 15 -51 26 q -26 -3 -51 -3 q 12 1 -11 -3 q 65 4 35 4 q 140 0 110 4 q 186 -4 171 -4 q 210 13 210 -4 q 196 33 210 28 q 154 43 182 39 q 126 53 135 46 q 118 81 118 60 q 139 188 118 106 l 172 311 q 178 320 174 317 q 188 324 183 324 l 360 324 q 381 313 378 324 l 435 135 q 447 72 447 90 q 436 46 447 53 q 390 39 425 39 q 363 17 363 39 q 386 0 363 0 q 435 3 400 0 q 529 7 471 7 q 599 3 571 7 q 646 -1 628 -1 q 675 18 675 -1 q 659 33 675 31 q 624 49 643 35 q 583 96 596 67 q 556 174 571 125 l 346 835 m 278 643 l 353 401 q 356 388 356 390 q 351 380 356 383 q 343 376 347 376 l 204 376 q 194 385 194 376 q 194 389 194 386 q 196 399 194 393 l 261 644 q 269 656 264 656 q 278 643 274 656 m 260 1179 q 233 1209 244 1199 q 207 1219 222 1219 q 180 1206 192 1219 q 168 1167 168 1192 q 201 1115 168 1140 l 381 975 l 417 975 l 260 1179 z "},"Å":{"ha":638,"x_min":-51,"x_max":675,"o":"m 346 835 q 332 882 336 864 q 313 900 328 900 q 298 891 301 900 q 289 867 294 882 l 68 150 q 47 87 57 113 q 18 47 38 61 q -5 38 7 39 q -27 35 -17 36 q -44 30 -37 33 q -51 15 -51 26 q -26 -3 -51 -3 q 12 1 -11 -3 q 65 4 35 4 q 140 0 110 4 q 186 -4 171 -4 q 210 13 210 -4 q 196 33 210 28 q 154 43 182 39 q 126 53 135 46 q 118 81 118 60 q 139 188 118 106 l 172 311 q 178 320 174 317 q 188 324 183 324 l 360 324 q 381 313 378 324 l 435 135 q 447 72 447 90 q 436 46 447 53 q 390 39 425 39 q 363 17 363 39 q 386 0 363 0 q 435 3 400 0 q 529 7 471 7 q 599 3 571 7 q 646 -1 628 -1 q 675 18 675 -1 q 659 33 675 31 q 624 49 643 35 q 583 96 596 67 q 556 174 571 125 l 346 835 m 278 643 l 353 401 q 356 388 356 390 q 351 380 356 383 q 343 376 347 376 l 204 376 q 194 385 194 376 q 194 389 194 386 q 196 399 194 393 l 261 644 q 269 656 264 656 q 278 643 274 656 m 149 1110 q 161 1045 149 1075 q 195 993 174 1015 q 247 958 217 971 q 311 946 276 946 q 376 958 346 946 q 428 993 406 971 q 463 1045 450 1015 q 475 1110 475 1075 q 462 1173 475 1143 q 426 1225 449 1203 q 374 1260 404 1247 q 311 1272 344 1272 q 248 1260 278 1272 q 196 1225 218 1247 q 161 1173 174 1203 q 149 1110 149 1143 m 210 1110 q 240 1181 210 1151 q 311 1211 269 1211 q 383 1181 353 1211 q 413 1110 413 1151 q 383 1037 413 1067 q 311 1007 353 1007 q 239 1037 268 1007 q 210 1110 210 1067 z "},"Ã":{"ha":638,"x_min":-51,"x_max":675,"o":"m 346 835 q 332 882 336 864 q 313 900 328 900 q 298 891 301 900 q 289 867 294 882 l 68 150 q 47 87 57 113 q 18 47 38 61 q -5 38 7 39 q -27 35 -17 36 q -44 30 -37 33 q -51 15 -51 26 q -26 -3 -51 -3 q 12 1 -11 -3 q 65 4 35 4 q 140 0 110 4 q 186 -4 171 -4 q 210 13 210 -4 q 196 33 210 28 q 154 43 182 39 q 126 53 135 46 q 118 81 118 60 q 139 188 118 106 l 172 311 q 178 320 174 317 q 188 324 183 324 l 360 324 q 381 313 378 324 l 435 135 q 447 72 447 90 q 436 46 447 53 q 390 39 425 39 q 363 17 363 39 q 386 0 363 0 q 435 3 400 0 q 529 7 471 7 q 599 3 571 7 q 646 -1 628 -1 q 675 18 675 -1 q 659 33 675 31 q 624 49 643 35 q 583 96 596 67 q 556 174 571 125 l 346 835 m 278 643 l 353 401 q 356 388 356 390 q 351 380 356 383 q 343 376 347 376 l 204 376 q 194 385 194 376 q 194 389 194 386 q 196 399 194 393 l 261 644 q 269 656 264 656 q 278 643 274 656 m 447 1178 q 428 1133 439 1147 q 396 1119 418 1119 q 367 1126 388 1119 l 307 1146 q 272 1151 292 1151 q 165 1007 185 1151 l 193 1007 q 212 1055 201 1040 q 246 1069 222 1069 q 259 1068 253 1069 q 272 1064 265 1067 l 331 1046 q 371 1039 354 1039 q 476 1178 456 1039 l 447 1178 z "},"B":{"ha":721,"x_min":26,"x_max":681,"o":"m 251 532 l 251 764 q 265 816 251 801 q 332 831 279 831 q 458 785 415 831 q 501 654 501 740 q 452 532 501 575 q 313 489 403 489 l 294 489 q 270 490 279 489 q 257 496 261 492 q 252 508 253 500 q 251 532 251 517 m 499 479 q 602 549 569 506 q 635 663 635 593 q 548 826 635 775 q 286 876 461 876 q 26 833 26 876 q 43 814 26 814 q 66 817 54 814 q 92 821 78 821 q 129 767 129 821 l 129 131 q 128 113 129 119 q 128 103 128 106 q 117 59 128 75 q 74 43 106 43 q 40 22 40 43 q 67 0 40 0 q 106 4 81 0 q 171 8 132 8 q 284 -2 222 8 q 421 -12 346 -12 q 527 6 479 -12 q 609 59 575 25 q 662 140 643 93 q 681 242 681 186 q 633 400 681 339 q 499 479 586 461 m 269 444 l 356 444 q 494 391 447 444 q 542 249 542 338 q 494 92 542 147 q 364 38 447 38 q 276 63 301 38 q 251 142 251 89 l 251 426 q 269 444 251 444 z "},"C":{"ha":746,"x_min":42,"x_max":690,"o":"m 42 439 q 72 256 42 340 q 157 108 103 171 q 285 10 211 46 q 447 -26 360 -26 q 544 -17 500 -26 q 619 10 588 -7 q 669 48 651 26 q 686 93 686 69 q 688 173 686 143 q 690 211 690 203 q 675 240 690 240 q 653 219 663 240 q 626 161 643 199 q 551 53 594 89 q 442 18 507 18 q 344 49 390 18 q 262 135 297 79 q 206 266 226 190 q 185 432 185 342 q 206 609 185 529 q 263 745 226 689 q 349 832 300 801 q 454 863 397 863 q 549 831 508 863 q 626 736 589 799 q 652 695 642 710 q 672 681 663 681 q 683 706 683 681 q 678 805 683 768 q 665 849 672 842 q 640 865 658 856 q 594 881 622 874 q 532 894 567 889 q 460 900 497 900 q 297 865 372 900 q 164 767 221 829 q 74 620 107 704 q 42 439 42 536 z "},"Ç":{"ha":746,"x_min":42,"x_max":690,"o":"m 42 439 q 72 256 42 340 q 157 108 103 171 q 285 10 211 46 q 447 -26 360 -26 q 544 -17 500 -26 q 619 10 588 -7 q 669 48 651 26 q 686 93 686 69 q 688 173 686 143 q 690 211 690 203 q 675 240 690 240 q 653 219 663 240 q 626 161 643 199 q 551 53 594 89 q 442 18 507 18 q 344 49 390 18 q 262 135 297 79 q 206 266 226 190 q 185 432 185 342 q 206 609 185 529 q 263 745 226 689 q 349 832 300 801 q 454 863 397 863 q 549 831 508 863 q 626 736 589 799 q 652 695 642 710 q 672 681 663 681 q 683 706 683 681 q 678 805 683 768 q 665 849 672 842 q 640 865 658 856 q 594 881 622 874 q 532 894 567 889 q 460 900 497 900 q 297 865 372 900 q 164 767 221 829 q 74 620 107 704 q 42 439 42 536 m 396 0 l 396 -129 q 417 -125 408 -126 q 431 -124 425 -124 q 476 -140 460 -124 q 492 -185 492 -157 q 425 -247 492 -247 q 373 -236 406 -247 q 304 -199 340 -225 l 285 -251 q 369 -289 331 -275 q 444 -303 407 -303 q 532 -271 501 -303 q 563 -183 563 -239 q 537 -102 563 -132 q 468 -72 511 -72 q 431 -76 456 -72 l 431 0 l 396 0 z "},"D":{"ha":826,"x_min":28,"x_max":786,"o":"m 251 171 l 251 769 q 255 805 251 790 q 269 829 258 819 q 301 844 281 839 q 358 849 322 849 q 475 819 422 849 q 565 735 528 789 q 624 606 603 681 q 644 444 644 532 q 624 275 644 350 q 565 148 603 200 q 472 67 526 96 q 351 39 418 39 q 270 69 289 39 q 251 171 251 99 m 126 131 q 126 94 126 108 q 121 70 125 79 q 108 56 117 61 q 82 46 99 50 q 63 43 72 43 q 45 42 53 43 q 33 36 38 40 q 28 22 28 32 q 57 0 28 0 q 113 5 83 0 q 174 10 142 10 q 255 3 210 10 q 354 -4 300 -4 q 538 27 458 -4 q 674 115 618 58 q 758 254 729 172 q 786 438 786 336 q 756 622 786 538 q 671 765 726 706 q 535 858 615 825 q 357 892 456 892 q 114 874 199 892 q 29 829 29 857 q 44 808 29 808 q 69 815 57 808 q 97 821 82 821 q 121 810 115 821 q 126 776 126 799 l 126 131 z "},"E":{"ha":649,"x_min":25,"x_max":607,"o":"m 582 828 l 582 833 q 576 865 582 856 q 543 875 571 875 q 461 872 529 875 q 271 869 393 869 q 124 872 175 869 q 64 875 72 875 q 40 856 40 875 q 45 841 40 844 q 58 836 50 838 q 78 835 67 835 q 100 831 89 835 q 123 811 119 824 q 126 767 126 799 l 126 131 q 121 69 126 90 q 85 44 115 49 q 42 40 58 40 q 25 22 25 40 q 56 0 25 0 q 97 3 64 0 q 192 7 129 7 q 415 1 326 7 q 546 -4 503 -4 q 569 -3 561 -4 q 581 4 576 -1 q 586 19 585 10 q 589 44 588 28 l 604 179 q 606 197 606 190 q 607 204 607 204 q 602 212 607 207 q 593 217 597 217 q 564 188 576 217 q 526 121 551 160 q 493 80 510 96 q 456 56 476 64 q 409 44 435 47 q 351 42 383 42 q 301 45 321 42 q 271 58 282 49 q 256 84 260 67 q 251 131 251 101 l 251 417 q 256 437 251 432 q 276 442 261 442 l 338 442 q 410 435 382 442 q 454 396 438 428 q 471 358 465 375 q 480 327 476 340 q 488 306 483 314 q 501 299 493 299 q 518 324 518 299 q 516 363 518 333 q 514 442 514 393 q 517 518 514 483 q 521 579 521 553 q 504 599 521 599 q 490 590 493 599 q 483 569 486 582 q 475 542 481 557 q 456 514 469 528 q 414 497 446 504 q 339 489 382 489 l 276 489 q 254 494 257 489 q 251 517 251 499 l 251 746 q 253 787 251 771 q 263 813 256 803 q 286 826 271 822 q 329 831 301 831 q 499 778 442 831 q 526 742 517 761 q 542 708 536 724 q 552 683 547 693 q 567 674 557 674 q 582 708 582 674 l 582 828 z "},"É":{"ha":649,"x_min":25,"x_max":607,"o":"m 582 828 l 582 833 q 576 865 582 856 q 543 875 571 875 q 461 872 529 875 q 271 869 393 869 q 124 872 175 869 q 64 875 72 875 q 40 856 40 875 q 45 841 40 844 q 58 836 50 838 q 78 835 67 835 q 100 831 89 835 q 123 811 119 824 q 126 767 126 799 l 126 131 q 121 69 126 90 q 85 44 115 49 q 42 40 58 40 q 25 22 25 40 q 56 0 25 0 q 97 3 64 0 q 192 7 129 7 q 415 1 326 7 q 546 -4 503 -4 q 569 -3 561 -4 q 581 4 576 -1 q 586 19 585 10 q 589 44 588 28 l 604 179 q 606 197 606 190 q 607 204 607 204 q 602 212 607 207 q 593 217 597 217 q 564 188 576 217 q 526 121 551 160 q 493 80 510 96 q 456 56 476 64 q 409 44 435 47 q 351 42 383 42 q 301 45 321 42 q 271 58 282 49 q 256 84 260 67 q 251 131 251 101 l 251 417 q 256 437 251 432 q 276 442 261 442 l 338 442 q 410 435 382 442 q 454 396 438 428 q 471 358 465 375 q 480 327 476 340 q 488 306 483 314 q 501 299 493 299 q 518 324 518 299 q 516 363 518 333 q 514 442 514 393 q 517 518 514 483 q 521 579 521 553 q 504 599 521 599 q 490 590 493 599 q 483 569 486 582 q 475 542 481 557 q 456 514 469 528 q 414 497 446 504 q 339 489 382 489 l 276 489 q 254 494 257 489 q 251 517 251 499 l 251 746 q 253 787 251 771 q 263 813 256 803 q 286 826 271 822 q 329 831 301 831 q 499 778 442 831 q 526 742 517 761 q 542 708 536 724 q 552 683 547 693 q 567 674 557 674 q 582 708 582 674 l 582 828 m 446 1115 q 479 1171 479 1140 q 467 1206 479 1193 q 440 1219 456 1219 q 414 1209 425 1219 q 388 1179 403 1199 l 231 975 l 267 975 l 446 1115 z "},"Ê":{"ha":649,"x_min":25,"x_max":607,"o":"m 582 828 l 582 833 q 576 865 582 856 q 543 875 571 875 q 461 872 529 875 q 271 869 393 869 q 124 872 175 869 q 64 875 72 875 q 40 856 40 875 q 45 841 40 844 q 58 836 50 838 q 78 835 67 835 q 100 831 89 835 q 123 811 119 824 q 126 767 126 799 l 126 131 q 121 69 126 90 q 85 44 115 49 q 42 40 58 40 q 25 22 25 40 q 56 0 25 0 q 97 3 64 0 q 192 7 129 7 q 415 1 326 7 q 546 -4 503 -4 q 569 -3 561 -4 q 581 4 576 -1 q 586 19 585 10 q 589 44 588 28 l 604 179 q 606 197 606 190 q 607 204 607 204 q 602 212 607 207 q 593 217 597 217 q 564 188 576 217 q 526 121 551 160 q 493 80 510 96 q 456 56 476 64 q 409 44 435 47 q 351 42 383 42 q 301 45 321 42 q 271 58 282 49 q 256 84 260 67 q 251 131 251 101 l 251 417 q 256 437 251 432 q 276 442 261 442 l 338 442 q 410 435 382 442 q 454 396 438 428 q 471 358 465 375 q 480 327 476 340 q 488 306 483 314 q 501 299 493 299 q 518 324 518 299 q 516 363 518 333 q 514 442 514 393 q 517 518 514 483 q 521 579 521 553 q 504 599 521 599 q 490 590 493 599 q 483 569 486 582 q 475 542 481 557 q 456 514 469 528 q 414 497 446 504 q 339 489 382 489 l 276 489 q 254 494 257 489 q 251 517 251 499 l 251 746 q 253 787 251 771 q 263 813 256 803 q 286 826 271 822 q 329 831 301 831 q 499 778 442 831 q 526 742 517 761 q 542 708 536 724 q 552 683 547 693 q 567 674 557 674 q 582 708 582 674 l 582 828 m 294 1213 l 168 975 l 200 975 l 326 1118 l 453 975 l 485 975 l 358 1213 l 294 1213 z "},"Ë":{"ha":649,"x_min":25,"x_max":607,"o":"m 582 828 l 582 833 q 576 865 582 856 q 543 875 571 875 q 461 872 529 875 q 271 869 393 869 q 124 872 175 869 q 64 875 72 875 q 40 856 40 875 q 45 841 40 844 q 58 836 50 838 q 78 835 67 835 q 100 831 89 835 q 123 811 119 824 q 126 767 126 799 l 126 131 q 121 69 126 90 q 85 44 115 49 q 42 40 58 40 q 25 22 25 40 q 56 0 25 0 q 97 3 64 0 q 192 7 129 7 q 415 1 326 7 q 546 -4 503 -4 q 569 -3 561 -4 q 581 4 576 -1 q 586 19 585 10 q 589 44 588 28 l 604 179 q 606 197 606 190 q 607 204 607 204 q 602 212 607 207 q 593 217 597 217 q 564 188 576 217 q 526 121 551 160 q 493 80 510 96 q 456 56 476 64 q 409 44 435 47 q 351 42 383 42 q 301 45 321 42 q 271 58 282 49 q 256 84 260 67 q 251 131 251 101 l 251 417 q 256 437 251 432 q 276 442 261 442 l 338 442 q 410 435 382 442 q 454 396 438 428 q 471 358 465 375 q 480 327 476 340 q 488 306 483 314 q 501 299 493 299 q 518 324 518 299 q 516 363 518 333 q 514 442 514 393 q 517 518 514 483 q 521 579 521 553 q 504 599 521 599 q 490 590 493 599 q 483 569 486 582 q 475 542 481 557 q 456 514 469 528 q 414 497 446 504 q 339 489 382 489 l 276 489 q 254 494 257 489 q 251 517 251 499 l 251 746 q 253 787 251 771 q 263 813 256 803 q 286 826 271 822 q 329 831 301 831 q 499 778 442 831 q 526 742 517 761 q 542 708 536 724 q 552 683 547 693 q 567 674 557 674 q 582 708 582 674 l 582 828 m 131 1081 q 150 1032 131 1051 q 197 1013 169 1013 q 245 1032 225 1013 q 265 1081 265 1051 q 245 1128 265 1108 q 197 1149 225 1149 q 150 1128 169 1149 q 131 1081 131 1108 m 389 1081 q 408 1032 389 1051 q 456 1013 428 1013 q 503 1032 483 1013 q 524 1081 524 1051 q 503 1128 524 1108 q 456 1149 483 1149 q 408 1128 428 1149 q 389 1081 389 1108 z "},"È":{"ha":649,"x_min":25,"x_max":607,"o":"m 582 828 l 582 833 q 576 865 582 856 q 543 875 571 875 q 461 872 529 875 q 271 869 393 869 q 124 872 175 869 q 64 875 72 875 q 40 856 40 875 q 45 841 40 844 q 58 836 50 838 q 78 835 67 835 q 100 831 89 835 q 123 811 119 824 q 126 767 126 799 l 126 131 q 121 69 126 90 q 85 44 115 49 q 42 40 58 40 q 25 22 25 40 q 56 0 25 0 q 97 3 64 0 q 192 7 129 7 q 415 1 326 7 q 546 -4 503 -4 q 569 -3 561 -4 q 581 4 576 -1 q 586 19 585 10 q 589 44 588 28 l 604 179 q 606 197 606 190 q 607 204 607 204 q 602 212 607 207 q 593 217 597 217 q 564 188 576 217 q 526 121 551 160 q 493 80 510 96 q 456 56 476 64 q 409 44 435 47 q 351 42 383 42 q 301 45 321 42 q 271 58 282 49 q 256 84 260 67 q 251 131 251 101 l 251 417 q 256 437 251 432 q 276 442 261 442 l 338 442 q 410 435 382 442 q 454 396 438 428 q 471 358 465 375 q 480 327 476 340 q 488 306 483 314 q 501 299 493 299 q 518 324 518 299 q 516 363 518 333 q 514 442 514 393 q 517 518 514 483 q 521 579 521 553 q 504 599 521 599 q 490 590 493 599 q 483 569 486 582 q 475 542 481 557 q 456 514 469 528 q 414 497 446 504 q 339 489 382 489 l 276 489 q 254 494 257 489 q 251 517 251 499 l 251 746 q 253 787 251 771 q 263 813 256 803 q 286 826 271 822 q 329 831 301 831 q 499 778 442 831 q 526 742 517 761 q 542 708 536 724 q 552 683 547 693 q 567 674 557 674 q 582 708 582 674 l 582 828 m 265 1179 q 239 1209 250 1199 q 213 1219 228 1219 q 185 1206 197 1219 q 174 1167 174 1192 q 207 1115 174 1140 l 386 975 l 422 975 l 265 1179 z "},"F":{"ha":599,"x_min":25,"x_max":569,"o":"m 569 828 l 569 833 q 565 865 569 854 q 532 875 560 875 q 453 872 517 875 q 275 869 389 869 q 122 873 172 869 q 64 876 71 876 q 40 856 40 876 q 53 838 40 840 q 83 834 67 836 q 112 825 99 832 q 125 793 125 818 q 126 780 125 786 q 126 767 126 774 l 126 131 q 121 69 126 89 q 83 44 115 50 q 42 40 58 40 q 25 22 25 40 q 56 0 25 0 q 102 4 71 0 q 186 8 133 8 q 278 4 242 8 q 332 0 315 0 q 367 19 367 0 q 362 35 367 31 q 348 41 357 39 q 328 43 339 43 q 304 46 317 43 q 274 55 285 50 q 259 69 264 60 q 253 92 254 78 q 251 131 251 107 l 251 424 q 269 442 251 442 l 328 442 q 396 435 369 442 q 442 394 422 429 q 460 356 454 374 q 469 326 465 339 q 478 306 474 313 q 490 299 482 299 q 507 324 507 299 q 506 363 507 333 q 504 442 504 393 q 507 517 504 483 q 510 579 510 551 q 494 599 510 599 q 480 592 483 599 q 474 575 476 586 q 468 550 472 564 q 454 521 464 536 q 332 489 433 489 l 278 489 q 255 501 258 489 q 251 536 251 513 l 251 746 q 253 786 251 769 q 262 813 254 803 q 284 826 269 822 q 325 831 299 831 q 489 778 433 831 q 516 742 507 760 q 531 708 525 724 q 541 683 536 693 q 554 674 546 674 q 569 708 569 674 l 569 828 z "},"G":{"ha":824,"x_min":40,"x_max":803,"o":"m 575 165 q 572 104 575 132 q 556 56 568 76 q 519 25 543 36 q 456 14 496 14 q 351 43 400 14 q 265 126 301 72 q 206 254 228 179 q 185 422 185 329 q 206 603 185 522 q 264 742 226 685 q 352 831 301 800 q 463 863 403 863 q 633 740 585 863 q 651 694 644 713 q 672 675 657 675 q 690 714 690 675 q 674 849 690 832 q 648 866 667 857 q 602 883 629 875 q 542 895 575 890 q 471 900 508 900 q 299 864 378 900 q 163 764 219 828 q 73 612 106 700 q 40 419 40 524 q 69 240 40 322 q 151 99 99 158 q 276 7 203 40 q 435 -26 349 -26 q 540 -16 490 -26 q 626 13 589 -6 q 685 59 664 32 q 707 118 707 86 l 707 329 q 713 377 707 365 q 744 394 719 389 q 767 398 757 397 q 785 400 778 399 q 798 406 793 401 q 803 419 803 410 q 782 438 803 438 q 738 432 772 438 q 636 426 703 426 q 541 432 576 426 q 492 438 506 438 q 468 418 468 438 q 473 405 468 408 q 487 400 478 401 q 508 398 496 399 q 535 394 519 397 q 569 376 563 388 q 575 329 575 365 l 575 165 z "},"H":{"ha":854,"x_min":28,"x_max":826,"o":"m 251 767 q 256 813 251 800 q 288 832 261 826 q 311 835 300 835 q 331 838 322 836 q 343 842 339 839 q 347 856 347 846 q 326 875 347 875 q 282 869 315 875 q 189 864 249 864 q 96 869 129 864 q 51 875 63 875 q 31 856 31 875 q 35 841 31 844 q 49 836 40 838 q 69 835 58 835 q 96 831 82 835 q 122 812 117 824 q 126 767 126 800 l 126 131 q 126 94 126 108 q 121 70 125 79 q 108 56 117 61 q 82 46 99 50 q 63 43 72 43 q 45 42 53 43 q 33 36 38 40 q 28 22 28 32 q 57 0 28 0 q 102 4 69 0 q 189 8 135 8 q 276 4 243 8 q 321 0 308 0 q 350 19 350 0 q 345 35 350 31 q 332 42 340 40 q 313 43 324 43 q 289 47 301 43 q 267 57 275 51 q 256 72 260 63 q 252 94 253 81 q 251 131 251 108 l 251 428 q 269 447 251 447 l 585 447 q 601 428 601 447 l 601 131 q 601 94 601 108 q 596 70 600 79 q 583 56 592 61 q 557 46 574 50 q 538 43 547 43 q 520 42 528 43 q 508 36 513 40 q 503 22 503 32 q 533 0 503 0 q 578 4 546 0 q 665 8 611 8 q 751 4 719 8 q 796 0 783 0 q 826 19 826 0 q 821 35 826 31 q 807 42 815 40 q 788 43 799 43 q 764 47 776 43 q 743 57 750 51 q 733 72 736 63 q 728 94 729 81 q 728 131 728 108 l 728 767 q 733 813 728 800 q 764 832 738 826 q 788 835 776 835 q 807 838 799 836 q 819 842 815 839 q 824 856 824 846 q 803 875 824 875 q 758 869 792 875 q 665 864 725 864 q 572 869 606 864 q 528 875 539 875 q 507 856 507 875 q 512 841 507 844 q 526 836 517 838 q 546 835 535 835 q 572 831 558 835 q 597 812 593 824 q 601 767 601 800 l 601 515 q 585 496 601 496 l 269 496 q 251 514 251 496 l 251 767 z "},"I":{"ha":378,"x_min":28,"x_max":350,"o":"m 251 767 q 256 813 251 800 q 288 832 261 826 q 311 835 300 835 q 331 838 322 836 q 343 842 339 839 q 347 856 347 846 q 326 875 347 875 q 282 869 315 875 q 189 864 249 864 q 96 869 129 864 q 51 875 63 875 q 31 856 31 875 q 35 841 31 844 q 49 836 40 838 q 69 835 58 835 q 96 831 82 835 q 122 812 117 824 q 126 767 126 800 l 126 131 q 126 94 126 108 q 121 70 125 79 q 108 56 117 61 q 82 46 99 50 q 63 43 72 43 q 45 42 53 43 q 33 36 38 40 q 28 22 28 32 q 57 0 28 0 q 102 4 69 0 q 189 8 135 8 q 276 4 243 8 q 321 0 308 0 q 350 19 350 0 q 345 35 350 31 q 332 42 340 40 q 313 43 324 43 q 289 47 301 43 q 267 57 275 51 q 256 72 260 63 q 252 94 253 81 q 251 131 251 108 l 251 767 z "},"Í":{"ha":378,"x_min":28,"x_max":350,"o":"m 251 767 q 256 813 251 800 q 288 832 261 826 q 311 835 300 835 q 331 838 322 836 q 343 842 339 839 q 347 856 347 846 q 326 875 347 875 q 282 869 315 875 q 189 864 249 864 q 96 869 129 864 q 51 875 63 875 q 31 856 31 875 q 35 841 31 844 q 49 836 40 838 q 69 835 58 835 q 96 831 82 835 q 122 812 117 824 q 126 767 126 800 l 126 131 q 126 94 126 108 q 121 70 125 79 q 108 56 117 61 q 82 46 99 50 q 63 43 72 43 q 45 42 53 43 q 33 36 38 40 q 28 22 28 32 q 57 0 28 0 q 102 4 69 0 q 189 8 135 8 q 276 4 243 8 q 321 0 308 0 q 350 19 350 0 q 345 35 350 31 q 332 42 340 40 q 313 43 324 43 q 289 47 301 43 q 267 57 275 51 q 256 72 260 63 q 252 94 253 81 q 251 131 251 108 l 251 767 m 310 1115 q 343 1171 343 1140 q 331 1206 343 1193 q 304 1219 319 1219 q 278 1209 289 1219 q 251 1179 267 1199 l 94 975 l 131 975 l 310 1115 z "},"Î":{"ha":378,"x_min":28,"x_max":350,"o":"m 251 767 q 256 813 251 800 q 288 832 261 826 q 311 835 300 835 q 331 838 322 836 q 343 842 339 839 q 347 856 347 846 q 326 875 347 875 q 282 869 315 875 q 189 864 249 864 q 96 869 129 864 q 51 875 63 875 q 31 856 31 875 q 35 841 31 844 q 49 836 40 838 q 69 835 58 835 q 96 831 82 835 q 122 812 117 824 q 126 767 126 800 l 126 131 q 126 94 126 108 q 121 70 125 79 q 108 56 117 61 q 82 46 99 50 q 63 43 72 43 q 45 42 53 43 q 33 36 38 40 q 28 22 28 32 q 57 0 28 0 q 102 4 69 0 q 189 8 135 8 q 276 4 243 8 q 321 0 308 0 q 350 19 350 0 q 345 35 350 31 q 332 42 340 40 q 313 43 324 43 q 289 47 301 43 q 267 57 275 51 q 256 72 260 63 q 252 94 253 81 q 251 131 251 108 l 251 767 m 158 1213 l 32 975 l 64 975 l 190 1118 l 317 975 l 349 975 l 222 1213 l 158 1213 z "},"Ï":{"ha":378,"x_min":-6,"x_max":388,"o":"m 251 767 q 256 813 251 800 q 288 832 261 826 q 311 835 300 835 q 331 838 322 836 q 343 842 339 839 q 347 856 347 846 q 326 875 347 875 q 282 869 315 875 q 189 864 249 864 q 96 869 129 864 q 51 875 63 875 q 31 856 31 875 q 35 841 31 844 q 49 836 40 838 q 69 835 58 835 q 96 831 82 835 q 122 812 117 824 q 126 767 126 800 l 126 131 q 126 94 126 108 q 121 70 125 79 q 108 56 117 61 q 82 46 99 50 q 63 43 72 43 q 45 42 53 43 q 33 36 38 40 q 28 22 28 32 q 57 0 28 0 q 102 4 69 0 q 189 8 135 8 q 276 4 243 8 q 321 0 308 0 q 350 19 350 0 q 345 35 350 31 q 332 42 340 40 q 313 43 324 43 q 289 47 301 43 q 267 57 275 51 q 256 72 260 63 q 252 94 253 81 q 251 131 251 108 l 251 767 m -6 1081 q 14 1032 -6 1051 q 61 1013 33 1013 q 109 1032 89 1013 q 129 1081 129 1051 q 109 1128 129 1108 q 61 1149 89 1149 q 14 1128 33 1149 q -6 1081 -6 1108 m 253 1081 q 272 1032 253 1051 q 319 1013 292 1013 q 367 1032 347 1013 q 388 1081 388 1051 q 367 1128 388 1108 q 319 1149 347 1149 q 272 1128 292 1149 q 253 1081 253 1108 z "},"Ì":{"ha":378,"x_min":28,"x_max":350,"o":"m 251 767 q 256 813 251 800 q 288 832 261 826 q 311 835 300 835 q 331 838 322 836 q 343 842 339 839 q 347 856 347 846 q 326 875 347 875 q 282 869 315 875 q 189 864 249 864 q 96 869 129 864 q 51 875 63 875 q 31 856 31 875 q 35 841 31 844 q 49 836 40 838 q 69 835 58 835 q 96 831 82 835 q 122 812 117 824 q 126 767 126 800 l 126 131 q 126 94 126 108 q 121 70 125 79 q 108 56 117 61 q 82 46 99 50 q 63 43 72 43 q 45 42 53 43 q 33 36 38 40 q 28 22 28 32 q 57 0 28 0 q 102 4 69 0 q 189 8 135 8 q 276 4 243 8 q 321 0 308 0 q 350 19 350 0 q 345 35 350 31 q 332 42 340 40 q 313 43 324 43 q 289 47 301 43 q 267 57 275 51 q 256 72 260 63 q 252 94 253 81 q 251 131 251 108 l 251 767 m 129 1179 q 103 1209 114 1199 q 76 1219 92 1219 q 49 1206 61 1219 q 38 1167 38 1192 q 71 1115 38 1140 l 250 975 l 286 975 l 129 1179 z "},"J":{"ha":385,"x_min":-100,"x_max":357,"o":"m 261 767 q 266 813 261 801 q 297 832 271 825 q 340 837 322 838 q 357 856 357 836 q 336 875 357 875 q 292 869 325 875 q 199 864 258 864 q 105 869 138 864 q 61 875 72 875 q 40 856 40 875 q 46 841 40 844 q 60 837 51 838 q 81 835 69 836 q 106 831 93 835 q 131 811 126 824 q 135 767 135 799 l 135 75 q 114 -118 135 -54 q 63 -182 93 -182 q 35 -169 46 -182 q 15 -139 25 -156 q -6 -109 6 -122 q -39 -96 -18 -96 q -81 -117 -62 -96 q -100 -171 -100 -139 q -78 -237 -100 -212 q -19 -261 -56 -261 q 169 -121 69 -261 q 240 19 218 -54 q 261 179 261 92 l 261 767 z "},"K":{"ha":703,"x_min":28,"x_max":744,"o":"m 251 767 q 256 813 251 800 q 288 832 261 826 q 311 835 300 835 q 331 838 322 836 q 343 842 339 839 q 347 856 347 846 q 326 875 347 875 q 282 869 315 875 q 189 864 249 864 q 96 869 129 864 q 51 875 63 875 q 31 856 31 875 q 35 841 31 844 q 49 836 40 838 q 69 835 58 835 q 96 831 82 835 q 122 812 117 824 q 126 767 126 800 l 126 131 q 126 94 126 108 q 121 70 125 79 q 108 56 117 61 q 82 46 99 50 q 63 43 72 43 q 45 42 53 43 q 33 36 38 40 q 28 22 28 32 q 57 0 28 0 q 102 4 69 0 q 189 8 135 8 q 276 4 243 8 q 321 0 308 0 q 350 19 350 0 q 345 35 350 31 q 332 42 340 40 q 313 43 324 43 q 289 47 301 43 q 267 57 275 51 q 256 72 260 63 q 252 94 253 81 q 251 131 251 108 l 251 408 q 265 428 251 428 q 278 419 272 428 l 475 96 q 484 76 482 86 q 486 58 486 67 q 475 42 486 46 q 450 38 464 39 q 425 33 436 36 q 414 19 414 29 q 447 0 414 0 q 486 4 456 0 q 575 8 517 8 q 663 4 631 8 q 711 0 696 0 q 744 19 744 0 q 740 33 744 29 q 729 37 736 36 q 713 39 722 38 q 694 44 704 40 q 656 76 671 56 q 621 125 640 96 l 375 503 q 371 517 371 508 q 382 538 371 524 l 519 703 q 597 786 563 756 q 651 826 631 817 q 676 834 664 832 q 698 838 689 836 q 713 844 707 840 q 718 856 718 847 q 700 875 718 875 q 659 869 689 875 q 575 864 629 864 q 492 869 522 864 q 451 875 463 875 q 433 856 433 875 q 444 838 433 842 q 469 833 456 835 q 494 827 483 832 q 506 804 506 822 q 488 765 506 790 l 274 499 q 260 489 264 489 q 251 508 251 489 l 251 767 z "},"L":{"ha":572,"x_min":28,"x_max":569,"o":"m 251 767 q 256 813 251 800 q 288 832 261 826 q 311 835 300 835 q 331 838 322 836 q 343 842 339 839 q 347 856 347 846 q 326 875 347 875 q 281 869 315 875 q 185 864 247 864 q 98 869 128 864 q 57 875 68 875 q 39 856 39 875 q 44 841 39 844 q 56 837 49 838 q 75 835 64 836 q 99 831 86 835 q 122 811 118 824 q 126 767 126 799 l 126 131 q 126 94 126 108 q 121 70 125 79 q 108 56 117 61 q 82 46 99 50 q 63 43 72 43 q 45 42 53 43 q 33 36 38 40 q 28 22 28 32 q 57 0 28 0 q 102 4 69 0 q 189 8 135 8 q 396 2 313 8 q 524 -4 479 -4 q 551 19 551 -4 q 552 28 551 22 q 554 43 553 33 l 568 174 q 569 190 569 185 q 569 199 569 197 q 565 206 569 201 q 557 210 561 210 q 531 184 546 210 q 485 117 517 158 q 421 59 456 78 q 342 40 386 40 q 251 131 251 40 l 251 767 z "},"M":{"ha":926,"x_min":13,"x_max":903,"o":"m 69 872 q 50 854 50 872 q 55 840 50 843 q 68 835 60 836 q 88 834 76 835 q 111 829 99 833 q 136 810 131 822 q 142 765 142 797 q 141 747 142 754 q 140 738 140 740 l 117 263 q 111 158 114 200 q 103 89 108 115 q 86 51 97 63 q 57 39 75 39 q 47 40 53 39 q 32 40 40 40 q 13 19 13 40 q 46 -3 13 -3 q 83 0 61 -3 q 132 3 104 3 q 188 0 164 3 q 228 -3 213 -3 q 263 19 263 -3 q 236 40 263 40 q 226 40 231 40 q 218 39 222 39 q 167 69 178 39 q 156 164 156 99 q 156 199 156 179 q 158 242 157 218 l 182 667 q 190 693 183 693 q 200 675 193 693 l 407 43 q 429 26 411 26 q 451 47 444 26 l 656 676 q 664 690 660 690 q 671 675 671 690 l 681 161 l 681 129 q 679 88 681 104 q 670 60 678 71 q 648 46 663 50 q 607 42 633 42 q 586 21 586 42 q 614 -1 586 -1 q 667 3 633 -1 q 747 8 701 8 q 820 3 789 8 q 874 -1 851 -1 q 895 5 888 -1 q 903 19 903 11 q 897 36 903 32 q 883 41 892 40 q 861 42 874 42 q 836 49 849 43 q 810 75 814 58 q 806 129 807 92 l 790 738 l 790 771 q 794 809 790 799 q 813 826 797 819 q 837 833 825 832 q 858 835 849 833 q 874 840 868 836 q 881 854 881 843 q 861 872 881 872 l 682 872 q 666 866 671 872 q 658 849 661 860 l 476 297 q 465 282 471 282 q 456 299 461 282 l 271 860 q 263 870 268 868 q 251 872 258 872 l 69 872 z "},"N":{"ha":806,"x_min":24,"x_max":775,"o":"m 51 875 q 32 856 32 875 q 51 837 32 836 q 96 831 71 838 q 119 811 115 824 q 124 767 124 799 l 124 189 q 122 120 124 149 q 115 74 121 92 q 96 49 108 57 q 63 42 83 42 l 50 42 q 24 19 24 42 q 57 -1 24 -1 q 98 1 76 -1 q 146 4 119 4 q 199 1 175 4 q 242 -1 222 -1 q 278 19 278 -1 q 258 42 278 42 q 246 41 251 42 q 233 40 240 40 q 200 47 213 40 q 181 69 188 53 q 174 110 175 85 q 172 175 172 136 l 172 715 q 178 731 172 731 q 181 729 179 731 l 638 -15 q 664 -37 651 -37 q 678 -27 672 -37 q 685 -3 685 -17 l 685 690 q 693 801 685 767 q 738 836 701 836 l 751 836 q 770 840 765 836 q 775 854 775 843 q 744 875 775 875 q 708 873 729 875 q 658 871 688 871 q 605 873 628 871 q 563 875 582 875 q 526 854 526 875 q 533 840 526 846 q 551 835 540 835 q 597 831 581 835 q 620 816 613 828 q 630 782 628 804 q 632 722 632 760 q 633 698 632 715 q 633 651 633 681 l 633 271 q 628 256 633 256 q 625 257 626 256 l 253 861 q 242 873 246 871 q 229 875 239 875 l 51 875 z "},"Ñ":{"ha":806,"x_min":24,"x_max":775,"o":"m 51 875 q 32 856 32 875 q 51 837 32 836 q 96 831 71 838 q 119 811 115 824 q 124 767 124 799 l 124 189 q 122 120 124 149 q 115 74 121 92 q 96 49 108 57 q 63 42 83 42 l 50 42 q 24 19 24 42 q 57 -1 24 -1 q 98 1 76 -1 q 146 4 119 4 q 199 1 175 4 q 242 -1 222 -1 q 278 19 278 -1 q 258 42 278 42 q 246 41 251 42 q 233 40 240 40 q 200 47 213 40 q 181 69 188 53 q 174 110 175 85 q 172 175 172 136 l 172 715 q 178 731 172 731 q 181 729 179 731 l 638 -15 q 664 -37 651 -37 q 678 -27 672 -37 q 685 -3 685 -17 l 685 690 q 693 801 685 767 q 738 836 701 836 l 751 836 q 770 840 765 836 q 775 854 775 843 q 744 875 775 875 q 708 873 729 875 q 658 871 688 871 q 605 873 628 871 q 563 875 582 875 q 526 854 526 875 q 533 840 526 846 q 551 835 540 835 q 597 831 581 835 q 620 816 613 828 q 630 782 628 804 q 632 722 632 760 q 633 698 632 715 q 633 651 633 681 l 633 271 q 628 256 633 256 q 625 257 626 256 l 253 861 q 242 873 246 871 q 229 875 239 875 l 51 875 m 529 1178 q 510 1133 521 1147 q 478 1119 500 1119 q 449 1126 469 1119 l 389 1146 q 354 1151 374 1151 q 247 1007 267 1151 l 275 1007 q 294 1055 283 1040 q 328 1069 304 1069 q 341 1068 335 1069 q 354 1064 347 1067 l 413 1046 q 453 1039 436 1039 q 558 1178 538 1039 l 529 1178 z "},"O":{"ha":864,"x_min":42,"x_max":822,"o":"m 433 900 q 281 865 353 900 q 157 767 210 829 q 73 621 104 706 q 42 438 42 536 q 73 254 42 339 q 157 107 104 169 q 281 9 210 44 q 431 -26 351 -26 q 583 9 511 -26 q 708 107 654 44 q 792 254 761 169 q 822 438 822 339 q 791 621 822 536 q 707 767 760 706 q 583 865 654 829 q 433 900 513 900 m 425 861 q 524 831 478 861 q 606 744 571 801 q 660 606 640 688 q 681 419 681 524 q 662 247 681 322 q 610 120 643 172 q 532 41 576 68 q 438 14 488 14 q 338 44 385 14 q 257 131 292 74 q 203 270 222 188 q 183 457 183 353 q 202 629 183 554 q 253 756 221 704 q 331 834 286 807 q 425 861 375 861 z "},"Œ":{"ha":1093,"x_min":39,"x_max":1061,"o":"m 1040 828 l 1040 839 q 1035 867 1040 858 q 1004 875 1031 875 q 924 872 989 875 q 740 869 858 869 q 582 881 656 869 q 444 892 508 892 q 281 857 356 892 q 153 760 207 822 q 69 616 99 699 q 39 438 39 533 q 69 258 39 340 q 153 114 100 175 q 278 18 207 53 q 428 -17 349 -17 q 460 -13 433 -17 q 534 -6 486 -10 q 653 1 582 -3 q 822 4 725 4 q 930 0 885 4 q 1004 -4 975 -4 q 1038 3 1032 -4 q 1046 44 1043 11 l 1060 179 q 1061 197 1061 190 q 1061 204 1061 204 q 1057 212 1061 207 q 1050 217 1053 217 q 1023 188 1035 217 q 988 119 1011 160 q 922 56 958 69 q 826 42 886 42 q 778 46 796 42 q 751 60 760 50 q 739 87 742 69 q 736 131 736 104 l 736 417 q 740 437 736 432 q 757 442 743 442 l 815 442 q 881 434 856 442 q 922 394 906 426 q 937 358 932 375 q 945 327 942 340 q 953 306 949 314 q 965 299 957 299 q 981 324 981 299 q 978 365 981 333 q 976 453 976 396 q 981 533 976 504 q 985 574 985 563 q 968 599 985 599 q 955 590 958 599 q 949 569 951 582 q 941 541 946 556 q 924 514 936 526 q 884 497 914 504 q 815 489 854 489 l 757 489 q 739 492 742 489 q 736 506 736 496 l 736 746 q 738 786 736 769 q 745 813 739 803 q 766 826 751 822 q 806 831 781 831 q 963 778 910 831 q 989 741 981 760 q 1003 708 997 722 q 1013 683 1008 693 q 1026 674 1017 674 q 1040 708 1040 674 l 1040 828 m 608 685 l 608 215 q 453 25 608 25 q 253 138 326 25 q 181 456 181 251 q 199 622 181 549 q 251 745 218 694 q 331 822 285 796 q 435 849 378 849 q 559 804 510 849 q 608 685 608 760 z "},"Ó":{"ha":864,"x_min":42,"x_max":822,"o":"m 433 900 q 281 865 353 900 q 157 767 210 829 q 73 621 104 706 q 42 438 42 536 q 73 254 42 339 q 157 107 104 169 q 281 9 210 44 q 431 -26 351 -26 q 583 9 511 -26 q 708 107 654 44 q 792 254 761 169 q 822 438 822 339 q 791 621 822 536 q 707 767 760 706 q 583 865 654 829 q 433 900 513 900 m 425 861 q 524 831 478 861 q 606 744 571 801 q 660 606 640 688 q 681 419 681 524 q 662 247 681 322 q 610 120 643 172 q 532 41 576 68 q 438 14 488 14 q 338 44 385 14 q 257 131 292 74 q 203 270 222 188 q 183 457 183 353 q 202 629 183 554 q 253 756 221 704 q 331 834 286 807 q 425 861 375 861 m 551 1115 q 585 1171 585 1140 q 573 1206 585 1193 q 546 1219 561 1219 q 519 1209 531 1219 q 493 1179 508 1199 l 336 975 l 372 975 l 551 1115 z "},"Ô":{"ha":864,"x_min":42,"x_max":822,"o":"m 433 900 q 281 865 353 900 q 157 767 210 829 q 73 621 104 706 q 42 438 42 536 q 73 254 42 339 q 157 107 104 169 q 281 9 210 44 q 431 -26 351 -26 q 583 9 511 -26 q 708 107 654 44 q 792 254 761 169 q 822 438 822 339 q 791 621 822 536 q 707 767 760 706 q 583 865 654 829 q 433 900 513 900 m 425 861 q 524 831 478 861 q 606 744 571 801 q 660 606 640 688 q 681 419 681 524 q 662 247 681 322 q 610 120 643 172 q 532 41 576 68 q 438 14 488 14 q 338 44 385 14 q 257 131 292 74 q 203 270 222 188 q 183 457 183 353 q 202 629 183 554 q 253 756 221 704 q 331 834 286 807 q 425 861 375 861 m 400 1213 l 274 975 l 306 975 l 432 1118 l 558 975 l 590 975 l 464 1213 l 400 1213 z "},"Ö":{"ha":864,"x_min":42,"x_max":822,"o":"m 433 900 q 281 865 353 900 q 157 767 210 829 q 73 621 104 706 q 42 438 42 536 q 73 254 42 339 q 157 107 104 169 q 281 9 210 44 q 431 -26 351 -26 q 583 9 511 -26 q 708 107 654 44 q 792 254 761 169 q 822 438 822 339 q 791 621 822 536 q 707 767 760 706 q 583 865 654 829 q 433 900 513 900 m 425 861 q 524 831 478 861 q 606 744 571 801 q 660 606 640 688 q 681 419 681 524 q 662 247 681 322 q 610 120 643 172 q 532 41 576 68 q 438 14 488 14 q 338 44 385 14 q 257 131 292 74 q 203 270 222 188 q 183 457 183 353 q 202 629 183 554 q 253 756 221 704 q 331 834 286 807 q 425 861 375 861 m 236 1081 q 256 1032 236 1051 q 303 1013 275 1013 q 351 1032 331 1013 q 371 1081 371 1051 q 351 1128 371 1108 q 303 1149 331 1149 q 256 1128 275 1149 q 236 1081 236 1108 m 494 1081 q 514 1032 494 1051 q 561 1013 533 1013 q 609 1032 589 1013 q 629 1081 629 1051 q 609 1128 629 1108 q 561 1149 589 1149 q 514 1128 533 1149 q 494 1081 494 1108 z "},"Ò":{"ha":864,"x_min":42,"x_max":822,"o":"m 433 900 q 281 865 353 900 q 157 767 210 829 q 73 621 104 706 q 42 438 42 536 q 73 254 42 339 q 157 107 104 169 q 281 9 210 44 q 431 -26 351 -26 q 583 9 511 -26 q 708 107 654 44 q 792 254 761 169 q 822 438 822 339 q 791 621 822 536 q 707 767 760 706 q 583 865 654 829 q 433 900 513 900 m 425 861 q 524 831 478 861 q 606 744 571 801 q 660 606 640 688 q 681 419 681 524 q 662 247 681 322 q 610 120 643 172 q 532 41 576 68 q 438 14 488 14 q 338 44 385 14 q 257 131 292 74 q 203 270 222 188 q 183 457 183 353 q 202 629 183 554 q 253 756 221 704 q 331 834 286 807 q 425 861 375 861 m 371 1179 q 344 1209 356 1199 q 318 1219 333 1219 q 291 1206 303 1219 q 279 1167 279 1192 q 313 1115 279 1140 l 492 975 l 528 975 l 371 1179 z "},"Ø":{"ha":864,"x_min":42,"x_max":822,"o":"m 683 978 l 615 847 q 433 900 529 900 q 281 865 353 900 q 157 767 210 829 q 73 621 104 706 q 42 438 42 536 q 81 231 42 322 q 200 64 119 139 l 104 -117 l 164 -117 l 243 32 q 431 -26 328 -26 q 583 9 511 -26 q 708 107 654 44 q 792 254 761 169 q 822 438 822 339 q 780 649 822 554 q 657 815 738 744 l 743 978 l 683 978 m 581 781 l 244 153 q 194 301 204 232 q 185 440 185 369 q 203 623 185 544 q 253 755 221 701 q 328 835 285 808 q 421 861 371 861 q 506 841 468 861 q 581 781 543 821 m 613 732 q 663 593 644 674 q 681 417 681 513 q 662 247 681 321 q 610 120 643 172 q 532 41 576 68 q 438 14 488 14 q 278 99 350 14 l 613 732 z "},"Õ":{"ha":864,"x_min":42,"x_max":822,"o":"m 433 900 q 281 865 353 900 q 157 767 210 829 q 73 621 104 706 q 42 438 42 536 q 73 254 42 339 q 157 107 104 169 q 281 9 210 44 q 431 -26 351 -26 q 583 9 511 -26 q 708 107 654 44 q 792 254 761 169 q 822 438 822 339 q 791 621 822 536 q 707 767 760 706 q 583 865 654 829 q 433 900 513 900 m 425 861 q 524 831 478 861 q 606 744 571 801 q 660 606 640 688 q 681 419 681 524 q 662 247 681 322 q 610 120 643 172 q 532 41 576 68 q 438 14 488 14 q 338 44 385 14 q 257 131 292 74 q 203 270 222 188 q 183 457 183 353 q 202 629 183 554 q 253 756 221 704 q 331 834 286 807 q 425 861 375 861 m 558 1178 q 540 1133 550 1147 q 507 1119 529 1119 q 478 1126 499 1119 l 418 1146 q 383 1151 403 1151 q 276 1007 296 1151 l 304 1007 q 323 1055 313 1040 q 357 1069 333 1069 q 370 1068 364 1069 q 383 1064 376 1067 l 442 1046 q 482 1039 465 1039 q 588 1178 567 1039 l 558 1178 z "},"P":{"ha":599,"x_min":32,"x_max":574,"o":"m 251 497 l 251 767 q 263 819 251 803 q 317 835 274 835 q 365 819 342 835 q 405 777 388 804 q 433 712 422 750 q 443 626 443 674 q 407 488 443 539 q 324 438 371 438 q 274 452 297 438 q 251 497 251 467 m 297 400 q 343 382 322 389 q 383 375 364 375 q 456 394 422 375 q 517 445 490 413 q 558 522 543 478 q 574 619 574 567 q 332 874 574 874 q 251 872 286 874 q 193 871 217 871 l 171 871 q 94 873 121 871 q 61 875 67 875 q 35 856 35 875 q 40 841 35 844 q 53 836 44 838 q 73 834 61 835 q 97 829 85 833 q 122 810 117 822 q 126 767 126 797 l 126 140 q 121 73 126 93 q 85 44 115 53 q 65 42 75 42 q 49 40 56 42 q 37 35 42 39 q 32 21 32 31 q 60 -1 32 -1 q 106 3 75 -1 q 186 8 138 8 q 272 3 239 8 q 318 -1 304 -1 q 340 5 332 -1 q 347 19 347 11 q 342 36 347 32 q 327 42 336 40 q 306 44 318 43 q 281 50 293 44 q 257 75 261 60 q 253 126 253 90 l 253 386 q 255 406 253 400 q 265 413 257 413 q 275 410 267 413 l 297 400 z "},"Q":{"ha":864,"x_min":43,"x_max":842,"o":"m 426 861 q 526 831 479 861 q 607 744 572 801 q 662 606 642 688 q 682 419 682 524 q 663 247 682 322 q 611 120 644 172 q 533 41 578 68 q 439 14 489 14 q 340 44 386 14 q 258 131 293 74 q 204 270 224 188 q 185 457 185 353 q 203 629 185 554 q 255 756 222 704 q 332 834 288 807 q 426 861 376 861 m 564 -1 q 667 57 619 17 q 749 154 714 97 q 803 283 783 211 q 824 435 824 354 q 792 618 824 533 q 708 765 761 703 q 584 862 654 826 q 435 897 514 897 q 283 862 354 897 q 158 765 211 826 q 74 618 106 703 q 43 435 43 533 q 64 281 43 353 q 123 149 85 208 q 217 47 161 89 q 343 -17 272 4 l 365 -22 q 377 -29 375 -25 q 381 -43 379 -33 l 386 -76 q 419 -158 393 -121 q 487 -223 446 -196 q 581 -266 528 -250 q 693 -282 633 -282 q 802 -265 763 -282 q 842 -229 842 -247 q 831 -215 842 -215 q 812 -222 826 -215 q 769 -228 797 -228 q 706 -215 739 -228 q 642 -178 674 -201 q 585 -125 611 -156 q 540 -60 558 -94 l 526 -33 q 524 -28 525 -31 q 522 -22 522 -25 q 535 -11 522 -15 l 564 -1 z "},"R":{"ha":663,"x_min":28,"x_max":699,"o":"m 251 499 l 251 763 q 253 792 251 779 q 263 815 256 806 q 283 828 269 824 q 321 832 297 832 q 424 781 389 832 q 460 643 460 731 q 315 467 460 467 q 265 472 279 467 q 251 499 251 476 m 438 449 q 547 522 507 464 q 586 663 586 579 q 528 819 586 760 q 358 878 471 878 q 262 874 311 878 q 160 869 213 869 q 100 872 124 869 q 68 875 76 875 q 40 872 49 875 q 31 856 31 869 q 35 841 31 844 q 49 836 40 838 q 69 835 58 835 q 96 831 82 835 q 122 812 117 824 q 126 767 126 800 l 126 131 q 126 94 126 108 q 121 70 125 79 q 108 56 117 61 q 82 46 99 50 q 63 43 72 43 q 45 42 53 43 q 33 36 38 40 q 28 22 28 32 q 57 0 28 0 q 102 4 69 0 q 189 8 135 8 q 274 4 243 8 q 315 0 304 0 q 343 19 343 0 q 313 43 343 43 q 278 49 290 43 q 260 67 265 56 q 253 94 254 78 q 251 131 251 110 l 251 404 q 269 424 251 424 l 283 424 q 331 410 315 424 q 361 361 346 397 l 486 46 q 502 11 496 22 q 529 0 508 0 q 560 2 544 0 q 590 4 575 4 q 635 2 614 4 q 675 0 657 0 q 693 2 688 0 q 699 14 699 4 q 681 33 699 29 q 640 46 664 36 q 613 82 626 51 q 575 169 599 113 l 494 361 q 472 411 483 389 q 438 449 460 433 z "},"S":{"ha":581,"x_min":54,"x_max":528,"o":"m 67 658 q 83 557 67 597 q 126 488 99 517 q 190 436 153 458 q 268 390 226 414 q 387 295 347 346 q 426 181 426 244 q 415 114 426 144 q 383 61 403 83 q 335 26 363 39 q 276 14 307 14 q 177 53 224 14 q 110 163 131 92 q 101 200 104 182 q 97 231 99 218 q 90 252 94 244 q 76 260 86 260 q 56 217 56 260 q 56 205 56 214 q 57 181 57 196 q 56 139 57 161 q 54 93 54 117 q 111 3 54 33 q 260 -26 168 -26 q 367 -5 318 -26 q 452 54 417 17 q 508 143 488 92 q 528 256 528 194 q 513 358 528 314 q 467 438 497 403 q 394 503 438 474 q 296 561 351 532 q 198 631 229 596 q 167 721 167 665 q 202 826 167 788 q 300 864 238 864 q 375 835 349 864 q 424 750 401 806 q 444 695 439 714 q 464 676 449 676 q 482 706 482 676 q 471 857 482 843 q 416 885 461 869 q 313 900 371 900 q 210 883 256 900 q 133 833 165 865 q 84 757 101 801 q 67 658 67 713 z "},"T":{"ha":668,"x_min":11,"x_max":660,"o":"m 660 894 l 660 910 q 656 926 660 917 q 644 935 653 935 q 635 928 639 935 q 626 913 631 922 q 616 894 622 904 q 600 879 610 885 q 556 872 589 872 q 509 874 536 872 q 447 875 482 875 l 276 875 q 221 874 246 875 q 176 874 196 874 q 111 886 124 874 q 101 894 104 886 q 95 910 99 901 q 88 926 92 919 q 79 933 85 933 q 62 914 65 933 q 51 863 58 894 l 17 721 q 13 706 14 713 q 11 697 11 699 q 15 681 11 683 q 24 678 18 678 l 26 678 q 56 701 43 678 q 94 767 69 725 q 149 817 121 800 q 219 833 176 833 l 258 833 q 272 824 267 833 q 276 807 276 815 l 276 131 q 271 71 276 86 q 239 47 265 56 q 217 43 228 43 q 197 42 206 43 q 183 36 189 40 q 178 22 178 32 q 207 0 178 0 q 263 5 229 0 q 339 10 296 10 q 416 5 383 10 q 471 0 449 0 q 500 19 500 0 q 495 35 500 31 q 482 40 490 39 q 463 42 474 42 q 439 47 451 43 q 417 57 425 51 q 406 72 410 63 q 402 94 403 81 q 401 131 401 108 l 401 811 q 406 826 401 818 q 419 833 411 833 l 442 833 q 539 822 506 833 q 592 765 572 810 q 601 728 597 744 q 609 699 606 711 q 617 679 613 686 q 632 672 622 672 q 647 680 643 672 q 651 711 650 688 l 660 894 z "},"U":{"ha":781,"x_min":26,"x_max":768,"o":"m 247 767 q 252 812 247 800 q 278 831 257 824 q 301 835 290 835 q 323 835 314 835 q 338 840 332 836 q 343 856 343 844 q 322 875 343 875 q 278 869 311 875 q 185 864 244 864 q 92 869 125 864 q 47 875 58 875 q 26 856 26 875 q 31 841 26 844 q 44 837 36 838 q 65 835 53 836 q 90 831 76 835 q 117 813 113 824 q 121 767 121 801 l 121 279 q 127 165 121 215 q 161 74 133 114 q 257 -3 197 21 q 406 -26 317 -26 q 543 1 486 -26 q 629 78 600 28 q 662 181 657 125 q 667 308 667 236 l 667 650 q 668 738 667 701 q 676 795 669 774 q 694 826 682 817 q 728 836 706 836 q 758 840 749 836 q 768 856 768 843 q 739 875 768 875 q 704 873 728 875 q 643 871 681 871 q 584 873 607 871 q 549 875 561 875 q 525 856 525 875 q 533 841 525 844 q 553 836 542 838 q 578 833 565 835 q 600 825 590 832 q 622 767 618 810 q 625 646 625 725 l 625 310 q 620 186 625 238 q 590 97 615 135 q 428 24 539 24 q 338 40 372 24 q 283 90 303 57 q 255 170 263 122 q 247 282 247 218 l 247 767 z "},"Ú":{"ha":781,"x_min":26,"x_max":768,"o":"m 247 767 q 252 812 247 800 q 278 831 257 824 q 301 835 290 835 q 323 835 314 835 q 338 840 332 836 q 343 856 343 844 q 322 875 343 875 q 278 869 311 875 q 185 864 244 864 q 92 869 125 864 q 47 875 58 875 q 26 856 26 875 q 31 841 26 844 q 44 837 36 838 q 65 835 53 836 q 90 831 76 835 q 117 813 113 824 q 121 767 121 801 l 121 279 q 127 165 121 215 q 161 74 133 114 q 257 -3 197 21 q 406 -26 317 -26 q 543 1 486 -26 q 629 78 600 28 q 662 181 657 125 q 667 308 667 236 l 667 650 q 668 738 667 701 q 676 795 669 774 q 694 826 682 817 q 728 836 706 836 q 758 840 749 836 q 768 856 768 843 q 739 875 768 875 q 704 873 728 875 q 643 871 681 871 q 584 873 607 871 q 549 875 561 875 q 525 856 525 875 q 533 841 525 844 q 553 836 542 838 q 578 833 565 835 q 600 825 590 832 q 622 767 618 810 q 625 646 625 725 l 625 310 q 620 186 625 238 q 590 97 615 135 q 428 24 539 24 q 338 40 372 24 q 283 90 303 57 q 255 170 263 122 q 247 282 247 218 l 247 767 m 535 1115 q 568 1171 568 1140 q 556 1206 568 1193 q 529 1219 544 1219 q 503 1209 514 1219 q 476 1179 492 1199 l 319 975 l 356 975 l 535 1115 z "},"Û":{"ha":781,"x_min":26,"x_max":768,"o":"m 247 767 q 252 812 247 800 q 278 831 257 824 q 301 835 290 835 q 323 835 314 835 q 338 840 332 836 q 343 856 343 844 q 322 875 343 875 q 278 869 311 875 q 185 864 244 864 q 92 869 125 864 q 47 875 58 875 q 26 856 26 875 q 31 841 26 844 q 44 837 36 838 q 65 835 53 836 q 90 831 76 835 q 117 813 113 824 q 121 767 121 801 l 121 279 q 127 165 121 215 q 161 74 133 114 q 257 -3 197 21 q 406 -26 317 -26 q 543 1 486 -26 q 629 78 600 28 q 662 181 657 125 q 667 308 667 236 l 667 650 q 668 738 667 701 q 676 795 669 774 q 694 826 682 817 q 728 836 706 836 q 758 840 749 836 q 768 856 768 843 q 739 875 768 875 q 704 873 728 875 q 643 871 681 871 q 584 873 607 871 q 549 875 561 875 q 525 856 525 875 q 533 841 525 844 q 553 836 542 838 q 578 833 565 835 q 600 825 590 832 q 622 767 618 810 q 625 646 625 725 l 625 310 q 620 186 625 238 q 590 97 615 135 q 428 24 539 24 q 338 40 372 24 q 283 90 303 57 q 255 170 263 122 q 247 282 247 218 l 247 767 m 383 1213 l 257 975 l 289 975 l 415 1118 l 542 975 l 574 975 l 447 1213 l 383 1213 z "},"Ü":{"ha":781,"x_min":26,"x_max":768,"o":"m 247 767 q 252 812 247 800 q 278 831 257 824 q 301 835 290 835 q 323 835 314 835 q 338 840 332 836 q 343 856 343 844 q 322 875 343 875 q 278 869 311 875 q 185 864 244 864 q 92 869 125 864 q 47 875 58 875 q 26 856 26 875 q 31 841 26 844 q 44 837 36 838 q 65 835 53 836 q 90 831 76 835 q 117 813 113 824 q 121 767 121 801 l 121 279 q 127 165 121 215 q 161 74 133 114 q 257 -3 197 21 q 406 -26 317 -26 q 543 1 486 -26 q 629 78 600 28 q 662 181 657 125 q 667 308 667 236 l 667 650 q 668 738 667 701 q 676 795 669 774 q 694 826 682 817 q 728 836 706 836 q 758 840 749 836 q 768 856 768 843 q 739 875 768 875 q 704 873 728 875 q 643 871 681 871 q 584 873 607 871 q 549 875 561 875 q 525 856 525 875 q 533 841 525 844 q 553 836 542 838 q 578 833 565 835 q 600 825 590 832 q 622 767 618 810 q 625 646 625 725 l 625 310 q 620 186 625 238 q 590 97 615 135 q 428 24 539 24 q 338 40 372 24 q 283 90 303 57 q 255 170 263 122 q 247 282 247 218 l 247 767 m 219 1081 q 239 1032 219 1051 q 286 1013 258 1013 q 334 1032 314 1013 q 354 1081 354 1051 q 334 1128 354 1108 q 286 1149 314 1149 q 239 1128 258 1149 q 219 1081 219 1108 m 478 1081 q 497 1032 478 1051 q 544 1013 517 1013 q 592 1032 572 1013 q 613 1081 613 1051 q 592 1128 613 1108 q 544 1149 572 1149 q 497 1128 517 1149 q 478 1081 478 1108 z "},"Ù":{"ha":781,"x_min":26,"x_max":768,"o":"m 247 767 q 252 812 247 800 q 278 831 257 824 q 301 835 290 835 q 323 835 314 835 q 338 840 332 836 q 343 856 343 844 q 322 875 343 875 q 278 869 311 875 q 185 864 244 864 q 92 869 125 864 q 47 875 58 875 q 26 856 26 875 q 31 841 26 844 q 44 837 36 838 q 65 835 53 836 q 90 831 76 835 q 117 813 113 824 q 121 767 121 801 l 121 279 q 127 165 121 215 q 161 74 133 114 q 257 -3 197 21 q 406 -26 317 -26 q 543 1 486 -26 q 629 78 600 28 q 662 181 657 125 q 667 308 667 236 l 667 650 q 668 738 667 701 q 676 795 669 774 q 694 826 682 817 q 728 836 706 836 q 758 840 749 836 q 768 856 768 843 q 739 875 768 875 q 704 873 728 875 q 643 871 681 871 q 584 873 607 871 q 549 875 561 875 q 525 856 525 875 q 533 841 525 844 q 553 836 542 838 q 578 833 565 835 q 600 825 590 832 q 622 767 618 810 q 625 646 625 725 l 625 310 q 620 186 625 238 q 590 97 615 135 q 428 24 539 24 q 338 40 372 24 q 283 90 303 57 q 255 170 263 122 q 247 282 247 218 l 247 767 m 354 1179 q 328 1209 339 1199 q 301 1219 317 1219 q 274 1206 286 1219 q 263 1167 263 1192 q 296 1115 263 1140 l 475 975 l 511 975 l 354 1179 z "},"V":{"ha":651,"x_min":-39,"x_max":697,"o":"m 596 757 q 615 803 606 785 q 642 831 625 822 q 660 835 650 835 q 678 837 669 836 q 692 841 686 838 q 697 856 697 844 q 671 874 697 874 q 642 871 665 874 q 575 868 618 868 q 513 872 536 868 q 478 876 489 876 q 451 857 451 876 q 464 839 451 842 q 492 833 476 836 q 521 822 508 831 q 533 786 533 813 q 515 696 533 758 l 396 290 q 379 260 388 260 q 363 290 372 260 l 208 736 q 196 794 196 774 q 207 822 196 815 q 231 831 218 828 q 256 836 244 833 q 267 854 267 839 q 247 871 267 871 q 213 867 236 871 q 157 864 189 864 q 32 868 74 864 q -17 872 -10 872 q -39 851 -39 872 q -33 840 -39 843 q -18 836 -26 838 q 0 834 -10 835 q 17 829 10 833 q 50 787 38 818 q 81 703 63 756 l 304 53 q 319 8 314 26 q 335 -11 325 -11 q 353 14 344 -11 l 596 757 z "},"W":{"ha":972,"x_min":-33,"x_max":1028,"o":"m 892 683 q 926 769 910 736 q 953 814 942 803 q 978 831 965 828 q 1003 836 992 835 q 1021 840 1014 838 q 1028 856 1028 843 q 1006 872 1028 872 q 975 869 997 872 q 915 867 953 867 q 855 871 876 867 q 826 875 833 875 q 814 857 814 875 q 822 841 814 844 q 841 835 831 838 q 860 825 851 832 q 868 797 868 818 q 864 761 868 786 q 851 708 860 736 l 694 217 q 683 203 690 203 q 674 215 678 203 l 579 507 q 576 521 576 515 q 579 534 576 528 q 585 547 582 540 l 671 758 q 692 805 682 786 q 718 831 703 824 q 736 835 726 835 q 754 837 746 836 q 768 841 763 838 q 774 856 774 844 q 751 872 774 872 q 721 869 742 872 q 667 867 700 867 q 617 870 636 867 q 590 874 599 874 q 575 856 575 874 q 583 841 575 844 q 600 834 590 838 q 617 825 610 831 q 625 807 625 819 q 624 785 625 796 q 619 767 622 774 l 565 626 q 553 607 557 607 q 542 625 547 607 l 504 736 q 494 772 497 756 q 490 799 490 788 q 499 822 490 815 q 516 831 507 828 q 533 837 525 833 q 542 854 542 840 q 529 871 542 871 q 507 867 524 871 q 458 864 490 864 q 365 868 403 864 q 304 872 328 872 q 278 854 278 872 q 290 838 278 839 q 318 833 303 838 q 364 767 344 825 l 472 451 q 476 424 476 440 q 471 399 476 414 l 404 217 q 394 203 400 203 q 386 215 390 203 l 204 738 q 193 778 196 761 q 190 797 190 794 q 199 820 190 814 q 219 830 208 826 q 238 837 229 833 q 247 853 247 840 q 231 871 247 871 q 203 867 226 871 q 135 864 179 864 q 39 869 72 864 q -4 874 6 874 q -33 854 -33 874 q -28 842 -33 846 q -15 836 -22 838 q 2 834 -7 835 q 18 829 11 833 q 50 788 38 818 q 81 707 63 757 l 307 57 q 347 -18 333 -18 q 358 -12 356 -18 q 367 8 361 -6 l 496 326 q 506 340 503 340 q 517 326 513 340 l 613 47 q 628 0 624 18 q 643 -18 632 -18 q 667 8 658 -18 l 892 683 z "},"X":{"ha":711,"x_min":-24,"x_max":740,"o":"m 268 738 q 244 799 244 779 q 258 822 244 817 q 288 830 271 828 q 317 835 304 832 q 331 854 331 839 q 307 872 331 872 q 260 868 296 872 q 161 864 224 864 q 69 869 107 864 q 6 875 31 875 q -24 853 -24 875 q -19 843 -24 846 q -6 840 -14 840 q 10 838 1 839 q 28 835 19 838 q 92 769 57 825 l 290 435 q 296 414 296 425 q 289 392 296 403 l 144 160 q 81 81 111 106 q 27 48 50 57 q -10 35 4 39 q -24 18 -24 32 q -3 1 -24 1 q 42 5 13 1 q 114 8 72 8 q 181 3 151 8 q 233 -1 211 -1 q 267 19 267 -1 q 252 36 267 32 q 221 44 238 40 q 190 55 204 49 q 175 78 175 61 q 182 106 175 85 q 206 156 189 128 l 319 343 q 331 356 328 356 q 343 343 336 356 l 458 138 q 482 76 482 93 q 418 40 482 40 q 396 21 396 40 q 417 3 396 3 q 456 6 424 3 q 546 10 488 10 q 647 5 608 10 q 703 0 685 0 q 735 19 735 0 q 729 31 735 28 q 715 36 724 35 q 695 40 706 38 q 675 49 685 42 q 640 88 658 60 q 597 158 621 115 l 422 468 q 415 490 415 482 q 422 508 415 497 l 575 751 q 626 808 597 786 q 682 832 656 829 q 721 836 701 835 q 740 857 740 838 q 715 874 740 874 q 672 870 700 874 q 603 867 643 867 q 500 871 533 867 q 461 875 467 875 q 438 857 438 875 q 450 841 438 844 q 478 834 463 838 q 506 823 493 831 q 518 794 518 815 q 508 756 518 785 q 474 688 497 728 l 399 560 q 385 546 390 546 q 371 560 379 546 l 268 738 z "},"Y":{"ha":639,"x_min":-49,"x_max":703,"o":"m 215 768 q 206 801 206 786 q 216 822 206 817 q 240 829 226 826 q 263 836 253 832 q 274 854 274 840 q 257 872 274 872 q 225 869 251 872 q 149 867 199 867 q 38 871 81 867 q -21 875 -4 875 q -41 868 -33 875 q -49 854 -49 861 q -42 842 -49 844 q -27 838 -36 839 q -8 836 -18 838 q 13 828 3 835 q 88 718 38 808 l 264 396 q 271 378 268 389 q 274 363 274 368 l 274 131 q 268 73 274 90 q 236 47 263 56 q 214 43 225 43 q 194 42 203 43 q 181 36 186 40 q 175 22 175 32 q 204 0 175 0 q 249 4 217 0 q 336 8 282 8 q 423 4 390 8 q 468 0 456 0 q 497 19 497 0 q 493 35 497 31 q 481 41 489 39 q 464 43 474 43 q 443 46 454 43 q 406 69 413 53 q 399 124 399 85 l 399 388 q 401 404 399 394 q 407 421 404 414 l 572 731 q 610 795 593 771 q 650 828 626 819 q 669 833 660 832 q 686 835 679 833 q 698 840 693 836 q 703 856 703 844 q 682 872 703 872 q 656 869 678 872 q 588 867 633 867 q 526 871 551 867 q 486 875 500 875 q 464 858 464 875 q 476 840 464 843 q 502 834 488 836 q 529 826 517 832 q 542 803 542 821 q 538 783 542 797 q 522 749 533 769 l 390 483 q 382 471 383 471 q 369 481 374 471 l 215 768 z "},"Ÿ":{"ha":639,"x_min":-49,"x_max":703,"o":"m 215 768 q 206 801 206 786 q 216 822 206 817 q 240 829 226 826 q 263 836 253 832 q 274 854 274 840 q 257 872 274 872 q 225 869 251 872 q 149 867 199 867 q 38 871 81 867 q -21 875 -4 875 q -41 868 -33 875 q -49 854 -49 861 q -42 842 -49 844 q -27 838 -36 839 q -8 836 -18 838 q 13 828 3 835 q 88 718 38 808 l 264 396 q 271 378 268 389 q 274 363 274 368 l 274 131 q 268 73 274 90 q 236 47 263 56 q 214 43 225 43 q 194 42 203 43 q 181 36 186 40 q 175 22 175 32 q 204 0 175 0 q 249 4 217 0 q 336 8 282 8 q 423 4 390 8 q 468 0 456 0 q 497 19 497 0 q 493 35 497 31 q 481 41 489 39 q 464 43 474 43 q 443 46 454 43 q 406 69 413 53 q 399 124 399 85 l 399 388 q 401 404 399 394 q 407 421 404 414 l 572 731 q 610 795 593 771 q 650 828 626 819 q 669 833 660 832 q 686 835 679 833 q 698 840 693 836 q 703 856 703 844 q 682 872 703 872 q 656 869 678 872 q 588 867 633 867 q 526 871 551 867 q 486 875 500 875 q 464 858 464 875 q 476 840 464 843 q 502 834 488 836 q 529 826 517 832 q 542 803 542 821 q 538 783 542 797 q 522 749 533 769 l 390 483 q 382 471 383 471 q 369 481 374 471 l 215 768 m 125 1081 q 144 1032 125 1051 q 192 1013 164 1013 q 240 1032 219 1013 q 260 1081 260 1051 q 240 1128 260 1108 q 192 1149 219 1149 q 144 1128 164 1149 q 125 1081 125 1108 m 383 1081 q 403 1032 383 1051 q 450 1013 422 1013 q 498 1032 478 1013 q 518 1081 518 1051 q 498 1128 518 1108 q 450 1149 478 1149 q 403 1128 422 1149 q 383 1081 383 1108 z "},"Z":{"ha":661,"x_min":13,"x_max":625,"o":"m 194 871 q 151 876 164 871 q 133 899 139 881 q 128 926 128 915 q 114 936 129 936 q 103 928 104 936 q 99 910 101 921 l 61 725 q 54 675 54 686 q 67 667 54 667 q 81 678 74 667 q 99 706 89 689 q 122 742 108 722 q 154 781 135 763 q 228 819 183 810 q 343 829 274 829 l 431 829 q 449 811 449 829 q 446 799 449 803 l 18 36 q 13 15 13 25 q 40 -3 13 -3 q 149 1 51 -3 q 446 6 247 6 q 554 1 517 6 q 599 -3 592 -3 q 621 3 617 -3 q 625 19 625 8 l 625 219 q 610 249 625 249 q 594 235 597 249 q 587 200 590 221 q 578 154 583 179 q 556 107 572 129 q 461 53 521 61 q 318 44 401 44 l 211 44 q 188 58 188 44 q 189 67 188 61 q 194 79 190 72 l 603 815 q 613 847 613 835 q 572 875 613 875 q 531 873 565 875 q 431 871 496 871 l 194 871 z "},"a":{"ha":529,"x_min":40,"x_max":532,"o":"m 428 478 q 424 547 428 517 q 406 597 419 576 q 365 627 392 617 q 293 638 338 638 q 192 619 239 638 q 112 572 146 600 q 59 508 78 543 q 40 443 40 474 q 48 425 40 432 q 67 418 56 418 q 127 442 108 418 q 161 501 146 467 q 201 570 181 546 q 258 594 222 594 q 303 568 294 594 q 313 483 313 542 l 313 385 q 310 363 313 369 q 297 351 308 357 l 263 333 q 172 283 213 308 q 101 230 131 258 q 57 167 72 201 q 42 86 42 132 q 69 3 42 33 q 140 -26 96 -26 q 211 -5 179 -26 q 279 47 243 17 l 308 72 l 317 72 q 356 1 332 25 q 415 -22 379 -22 q 452 -11 432 -22 q 490 15 472 0 q 519 47 507 31 q 532 74 532 63 q 515 94 532 94 q 490 81 503 94 q 463 67 478 67 q 433 89 439 67 q 428 156 428 111 l 428 478 m 314 296 l 314 186 q 305 136 314 158 q 282 98 296 114 q 251 73 268 82 q 218 64 235 64 q 180 85 194 64 q 165 146 165 106 q 247 285 165 243 l 293 307 q 307 313 303 313 q 314 296 314 313 z "},"á":{"ha":529,"x_min":40,"x_max":532,"o":"m 428 478 q 424 547 428 517 q 406 597 419 576 q 365 627 392 617 q 293 638 338 638 q 192 619 239 638 q 112 572 146 600 q 59 508 78 543 q 40 443 40 474 q 48 425 40 432 q 67 418 56 418 q 127 442 108 418 q 161 501 146 467 q 201 570 181 546 q 258 594 222 594 q 303 568 294 594 q 313 483 313 542 l 313 385 q 310 363 313 369 q 297 351 308 357 l 263 333 q 172 283 213 308 q 101 230 131 258 q 57 167 72 201 q 42 86 42 132 q 69 3 42 33 q 140 -26 96 -26 q 211 -5 179 -26 q 279 47 243 17 l 308 72 l 317 72 q 356 1 332 25 q 415 -22 379 -22 q 452 -11 432 -22 q 490 15 472 0 q 519 47 507 31 q 532 74 532 63 q 515 94 532 94 q 490 81 503 94 q 463 67 478 67 q 433 89 439 67 q 428 156 428 111 l 428 478 m 314 296 l 314 186 q 305 136 314 158 q 282 98 296 114 q 251 73 268 82 q 218 64 235 64 q 180 85 194 64 q 165 146 165 106 q 247 285 165 243 l 293 307 q 307 313 303 313 q 314 296 314 313 m 386 851 q 419 907 419 876 q 408 942 419 929 q 381 956 396 956 q 354 945 365 956 q 328 915 343 935 l 171 711 l 207 711 l 386 851 z "},"â":{"ha":529,"x_min":40,"x_max":532,"o":"m 428 478 q 424 547 428 517 q 406 597 419 576 q 365 627 392 617 q 293 638 338 638 q 192 619 239 638 q 112 572 146 600 q 59 508 78 543 q 40 443 40 474 q 48 425 40 432 q 67 418 56 418 q 127 442 108 418 q 161 501 146 467 q 201 570 181 546 q 258 594 222 594 q 303 568 294 594 q 313 483 313 542 l 313 385 q 310 363 313 369 q 297 351 308 357 l 263 333 q 172 283 213 308 q 101 230 131 258 q 57 167 72 201 q 42 86 42 132 q 69 3 42 33 q 140 -26 96 -26 q 211 -5 179 -26 q 279 47 243 17 l 308 72 l 317 72 q 356 1 332 25 q 415 -22 379 -22 q 452 -11 432 -22 q 490 15 472 0 q 519 47 507 31 q 532 74 532 63 q 515 94 532 94 q 490 81 503 94 q 463 67 478 67 q 433 89 439 67 q 428 156 428 111 l 428 478 m 314 296 l 314 186 q 305 136 314 158 q 282 98 296 114 q 251 73 268 82 q 218 64 235 64 q 180 85 194 64 q 165 146 165 106 q 247 285 165 243 l 293 307 q 307 313 303 313 q 314 296 314 313 m 235 949 l 108 711 l 140 711 l 267 854 l 393 711 l 425 711 l 299 949 l 235 949 z "},"´":{"ha":694,"x_min":251,"x_max":500,"o":"m 467 851 q 500 907 500 876 q 488 942 500 929 q 461 956 476 956 q 435 945 446 956 q 408 915 424 935 l 251 711 l 288 711 l 467 851 z "},"ä":{"ha":529,"x_min":40,"x_max":532,"o":"m 428 478 q 424 547 428 517 q 406 597 419 576 q 365 627 392 617 q 293 638 338 638 q 192 619 239 638 q 112 572 146 600 q 59 508 78 543 q 40 443 40 474 q 48 425 40 432 q 67 418 56 418 q 127 442 108 418 q 161 501 146 467 q 201 570 181 546 q 258 594 222 594 q 303 568 294 594 q 313 483 313 542 l 313 385 q 310 363 313 369 q 297 351 308 357 l 263 333 q 172 283 213 308 q 101 230 131 258 q 57 167 72 201 q 42 86 42 132 q 69 3 42 33 q 140 -26 96 -26 q 211 -5 179 -26 q 279 47 243 17 l 308 72 l 317 72 q 356 1 332 25 q 415 -22 379 -22 q 452 -11 432 -22 q 490 15 472 0 q 519 47 507 31 q 532 74 532 63 q 515 94 532 94 q 490 81 503 94 q 463 67 478 67 q 433 89 439 67 q 428 156 428 111 l 428 478 m 314 296 l 314 186 q 305 136 314 158 q 282 98 296 114 q 251 73 268 82 q 218 64 235 64 q 180 85 194 64 q 165 146 165 106 q 247 285 165 243 l 293 307 q 307 313 303 313 q 314 296 314 313 m 71 817 q 90 768 71 788 q 138 749 110 749 q 185 768 165 749 q 206 817 206 788 q 185 865 206 844 q 138 885 165 885 q 90 865 110 885 q 71 817 71 844 m 329 817 q 349 768 329 788 q 396 749 368 749 q 444 768 424 749 q 464 817 464 788 q 444 865 464 844 q 396 885 424 885 q 349 865 368 885 q 329 817 329 844 z "},"æ":{"ha":794,"x_min":24,"x_max":758,"o":"m 347 597 q 242 638 303 638 q 159 619 199 638 q 90 574 119 601 q 42 515 60 547 q 24 454 24 483 q 50 418 24 418 q 88 425 72 418 q 114 443 103 432 q 133 469 125 454 q 147 499 140 483 q 188 568 167 542 q 249 594 208 594 q 294 568 285 594 q 304 483 304 542 l 304 392 q 301 363 304 374 q 286 344 299 351 l 250 324 q 151 265 193 292 q 82 210 110 238 q 40 153 54 183 q 26 86 26 124 q 54 3 26 32 q 139 -26 82 -26 q 247 -5 192 -26 q 365 57 303 17 l 378 57 q 448 -5 406 17 q 540 -26 490 -26 q 624 -9 585 -26 q 693 32 664 8 q 739 81 722 56 q 756 122 756 106 q 744 138 756 138 q 731 125 742 138 q 703 97 721 113 q 658 69 685 82 q 593 57 631 57 q 458 132 510 57 q 407 336 407 207 l 407 369 q 409 387 407 382 q 422 392 411 392 l 714 392 q 748 398 738 392 q 758 422 758 404 q 744 504 758 465 q 701 572 729 543 q 631 619 672 601 q 536 636 590 636 q 468 624 501 636 q 411 592 435 611 l 393 578 q 379 569 385 569 q 365 581 379 569 l 347 597 m 518 435 l 432 435 q 417 447 417 435 l 417 450 l 421 472 q 436 522 425 499 q 464 564 447 546 q 501 593 481 582 q 547 604 522 604 q 615 575 588 604 q 642 511 642 546 q 613 450 642 465 q 518 435 583 435 m 306 279 l 306 164 q 286 65 306 99 q 218 32 267 32 q 165 58 183 32 q 146 133 146 85 q 169 212 146 179 q 240 271 192 244 l 281 293 q 297 300 293 300 q 306 279 306 300 z "},"à":{"ha":529,"x_min":40,"x_max":532,"o":"m 428 478 q 424 547 428 517 q 406 597 419 576 q 365 627 392 617 q 293 638 338 638 q 192 619 239 638 q 112 572 146 600 q 59 508 78 543 q 40 443 40 474 q 48 425 40 432 q 67 418 56 418 q 127 442 108 418 q 161 501 146 467 q 201 570 181 546 q 258 594 222 594 q 303 568 294 594 q 313 483 313 542 l 313 385 q 310 363 313 369 q 297 351 308 357 l 263 333 q 172 283 213 308 q 101 230 131 258 q 57 167 72 201 q 42 86 42 132 q 69 3 42 33 q 140 -26 96 -26 q 211 -5 179 -26 q 279 47 243 17 l 308 72 l 317 72 q 356 1 332 25 q 415 -22 379 -22 q 452 -11 432 -22 q 490 15 472 0 q 519 47 507 31 q 532 74 532 63 q 515 94 532 94 q 490 81 503 94 q 463 67 478 67 q 433 89 439 67 q 428 156 428 111 l 428 478 m 314 296 l 314 186 q 305 136 314 158 q 282 98 296 114 q 251 73 268 82 q 218 64 235 64 q 180 85 194 64 q 165 146 165 106 q 247 285 165 243 l 293 307 q 307 313 303 313 q 314 296 314 313 m 206 915 q 179 945 190 935 q 153 956 168 956 q 126 942 138 956 q 114 903 114 928 q 147 851 114 876 l 326 711 l 363 711 l 206 915 z "},"&":{"ha":839,"x_min":36,"x_max":821,"o":"m 414 604 l 392 586 q 375 579 385 579 q 354 593 363 579 l 322 639 q 294 697 303 667 q 285 757 285 728 q 308 834 285 806 q 367 863 331 863 q 436 823 407 863 q 465 713 465 783 q 451 652 465 681 q 414 604 438 624 m 440 560 q 538 635 507 596 q 569 728 569 674 q 556 795 569 764 q 517 850 542 826 q 456 887 492 874 q 376 900 419 900 q 297 885 333 900 q 233 844 260 869 q 190 783 206 818 q 175 707 175 747 q 187 632 175 667 q 219 561 199 597 l 239 526 q 244 510 244 515 q 229 492 244 500 l 186 465 q 36 219 36 378 q 51 124 36 168 q 94 47 67 79 q 158 -5 121 14 q 239 -24 194 -24 q 360 8 308 -24 q 471 103 413 39 l 490 124 q 504 135 501 135 q 510 133 507 135 q 517 126 514 131 l 543 86 q 551 65 551 74 q 543 46 551 51 q 525 38 535 40 q 507 33 515 36 q 499 19 499 29 q 505 6 499 11 q 519 0 511 0 q 566 5 535 0 q 642 10 597 10 q 733 5 697 10 q 786 0 768 0 q 815 22 815 0 q 804 35 815 32 q 774 47 793 39 q 729 75 756 56 q 672 139 703 94 l 594 250 q 590 265 590 256 q 599 286 590 271 l 624 328 q 763 489 706 461 q 785 498 775 494 q 804 504 796 501 q 817 510 813 507 q 821 521 821 514 q 803 536 821 536 q 773 533 794 536 q 718 531 751 531 q 637 535 668 531 q 593 539 606 539 q 565 519 565 539 q 578 505 565 508 q 605 499 590 501 q 632 491 619 497 q 644 467 644 485 q 611 383 644 442 l 569 313 q 560 306 565 306 q 550 311 554 306 l 406 519 q 401 531 401 525 q 413 544 401 538 l 440 560 m 286 458 l 463 199 q 468 183 468 188 q 463 167 468 172 l 431 132 q 308 69 372 69 q 200 122 242 69 q 158 263 158 175 q 178 369 158 322 q 231 439 199 415 l 261 461 q 272 465 267 465 q 286 458 282 465 z "},"å":{"ha":529,"x_min":40,"x_max":532,"o":"m 428 478 q 424 547 428 517 q 406 597 419 576 q 365 627 392 617 q 293 638 338 638 q 192 619 239 638 q 112 572 146 600 q 59 508 78 543 q 40 443 40 474 q 48 425 40 432 q 67 418 56 418 q 127 442 108 418 q 161 501 146 467 q 201 570 181 546 q 258 594 222 594 q 303 568 294 594 q 313 483 313 542 l 313 385 q 310 363 313 369 q 297 351 308 357 l 263 333 q 172 283 213 308 q 101 230 131 258 q 57 167 72 201 q 42 86 42 132 q 69 3 42 33 q 140 -26 96 -26 q 211 -5 179 -26 q 279 47 243 17 l 308 72 l 317 72 q 356 1 332 25 q 415 -22 379 -22 q 452 -11 432 -22 q 490 15 472 0 q 519 47 507 31 q 532 74 532 63 q 515 94 532 94 q 490 81 503 94 q 463 67 478 67 q 433 89 439 67 q 428 156 428 111 l 428 478 m 314 296 l 314 186 q 305 136 314 158 q 282 98 296 114 q 251 73 268 82 q 218 64 235 64 q 180 85 194 64 q 165 146 165 106 q 247 285 165 243 l 293 307 q 307 313 303 313 q 314 296 314 313 m 257 1008 q 194 996 224 1008 q 142 961 164 983 q 107 909 119 939 q 94 846 94 879 q 107 783 94 813 q 142 731 119 753 q 194 695 164 708 q 257 682 224 682 q 322 694 292 682 q 374 729 351 707 q 408 781 396 751 q 421 846 421 811 q 408 909 421 879 q 374 961 396 939 q 322 996 351 983 q 257 1008 292 1008 m 257 947 q 328 917 299 947 q 358 846 358 888 q 328 774 358 804 q 257 744 299 744 q 186 774 215 744 q 157 846 157 803 q 186 917 157 888 q 257 947 215 947 z "},"^":{"ha":1389,"x_min":279,"x_max":1107,"o":"m 633 992 l 279 608 l 340 608 l 693 904 l 1044 608 l 1107 608 l 754 992 l 633 992 z "},"~":{"ha":1157,"x_min":121,"x_max":1038,"o":"m 1038 514 q 901 435 964 463 q 776 408 839 408 q 677 424 724 408 q 581 457 631 439 q 485 488 533 474 q 383 501 438 501 q 121 403 264 501 l 121 313 q 258 393 196 365 q 382 421 319 421 q 510 398 447 421 q 646 351 574 375 q 775 328 717 328 q 1038 425 901 328 l 1038 514 z "},"*":{"ha":556,"x_min":74,"x_max":482,"o":"m 288 635 q 287 645 288 640 q 286 654 286 650 q 292 713 286 686 q 307 761 299 739 q 322 803 315 783 q 328 840 328 822 q 278 900 328 900 q 241 883 254 900 q 228 842 228 867 q 234 802 228 822 q 249 760 240 782 q 263 711 257 738 q 269 653 269 685 l 269 636 q 217 685 236 658 q 183 736 197 713 q 156 776 169 760 q 121 792 143 792 q 87 773 100 792 q 74 731 74 754 q 91 683 74 701 q 136 663 108 665 q 196 655 165 660 q 260 619 226 650 q 156 578 225 582 q 74 508 74 574 q 89 463 74 481 q 122 446 104 446 q 156 461 143 446 q 183 500 169 476 q 217 551 197 524 q 268 601 236 578 q 269 591 268 596 q 269 581 269 586 q 263 522 269 547 q 249 474 257 496 q 234 433 240 451 q 228 396 228 414 q 278 336 228 336 q 314 354 301 336 q 326 396 326 372 q 320 435 326 415 q 306 478 314 456 q 292 526 299 500 q 286 586 286 553 l 286 600 q 338 552 319 579 q 371 501 357 525 q 398 460 385 476 q 433 444 411 444 q 465 463 449 444 q 482 504 482 481 q 464 553 482 535 q 419 575 446 572 q 362 583 392 578 q 296 617 332 588 q 356 651 324 644 q 425 663 388 658 q 463 683 444 665 q 482 729 482 701 q 467 772 482 753 q 435 792 453 792 q 399 776 413 792 q 372 738 385 761 q 340 686 358 714 q 288 635 321 658 z "},"@":{"ha":1369,"x_min":99,"x_max":1272,"o":"m 744 654 q 826 615 793 654 q 858 510 858 575 q 837 380 858 453 q 774 239 815 307 q 610 118 699 118 q 537 153 565 118 q 508 254 508 189 q 515 323 508 285 q 535 402 522 361 q 569 485 549 443 q 615 565 589 526 q 676 632 646 610 q 744 654 706 654 m 807 228 q 947 85 815 85 q 1037 103 992 85 q 1122 158 1082 121 q 1233 317 1193 224 q 1272 519 1272 411 q 1236 711 1272 625 q 1133 858 1200 797 q 970 951 1065 918 q 757 985 875 985 q 326 835 506 985 q 156 622 214 742 q 99 364 99 503 q 151 121 99 229 q 307 -65 204 13 q 725 -190 469 -190 q 1169 -40 967 -190 l 1149 -15 q 733 -156 956 -156 q 339 -22 496 -156 q 216 138 254 50 q 178 343 178 225 q 357 793 178 621 q 775 951 521 951 q 957 922 872 951 q 1103 839 1042 892 q 1240 531 1240 718 q 1196 315 1240 410 q 1069 160 1151 221 q 1008 126 1039 136 q 958 115 978 115 q 912 134 929 115 q 894 185 894 153 q 899 226 894 208 q 907 258 903 243 l 1022 672 l 925 672 l 889 550 q 739 682 860 682 q 636 658 690 682 q 536 590 582 635 q 442 458 474 531 q 410 313 410 385 q 461 147 410 208 q 597 85 513 85 q 807 228 724 85 z "},"ã":{"ha":529,"x_min":40,"x_max":532,"o":"m 428 478 q 424 547 428 517 q 406 597 419 576 q 365 627 392 617 q 293 638 338 638 q 192 619 239 638 q 112 572 146 600 q 59 508 78 543 q 40 443 40 474 q 48 425 40 432 q 67 418 56 418 q 127 442 108 418 q 161 501 146 467 q 201 570 181 546 q 258 594 222 594 q 303 568 294 594 q 313 483 313 542 l 313 385 q 310 363 313 369 q 297 351 308 357 l 263 333 q 172 283 213 308 q 101 230 131 258 q 57 167 72 201 q 42 86 42 132 q 69 3 42 33 q 140 -26 96 -26 q 211 -5 179 -26 q 279 47 243 17 l 308 72 l 317 72 q 356 1 332 25 q 415 -22 379 -22 q 452 -11 432 -22 q 490 15 472 0 q 519 47 507 31 q 532 74 532 63 q 515 94 532 94 q 490 81 503 94 q 463 67 478 67 q 433 89 439 67 q 428 156 428 111 l 428 478 m 314 296 l 314 186 q 305 136 314 158 q 282 98 296 114 q 251 73 268 82 q 218 64 235 64 q 180 85 194 64 q 165 146 165 106 q 247 285 165 243 l 293 307 q 307 313 303 313 q 314 296 314 313 m 393 914 q 374 869 385 883 q 342 856 364 856 q 313 863 333 856 l 253 882 q 218 888 238 888 q 111 743 131 888 l 139 743 q 158 791 147 776 q 192 806 168 806 q 205 804 199 806 q 218 800 211 803 l 276 782 q 317 775 300 775 q 422 914 401 775 l 393 914 z "},"b":{"ha":628,"x_min":6,"x_max":594,"o":"m 185 843 q 186 894 185 871 q 188 938 188 917 q 185 957 188 950 q 171 964 182 964 q 141 948 164 964 q 69 914 118 932 q 24 899 43 904 q 6 879 6 894 q 15 867 6 871 q 37 858 25 863 q 58 844 49 853 q 68 818 68 836 l 68 157 q 63 53 68 100 q 57 -26 57 7 q 72 -53 57 -53 q 88 -42 81 -53 q 103 -17 96 -31 q 117 8 110 -3 q 136 19 125 19 q 160 13 146 19 q 196 -3 175 6 q 244 -19 217 -12 q 310 -26 272 -26 q 424 -1 372 -26 q 515 71 476 25 q 574 181 553 117 q 594 322 594 244 q 576 451 594 393 q 528 551 558 510 q 456 614 497 592 q 368 636 414 636 q 288 617 322 636 q 215 558 254 599 l 199 542 q 188 535 192 535 q 185 543 185 535 l 185 843 m 185 146 l 185 350 q 187 428 185 393 q 200 489 189 464 q 233 528 211 514 q 296 542 256 542 q 427 474 375 542 q 479 282 479 407 q 466 174 479 224 q 428 90 453 125 q 371 35 404 54 q 297 15 338 15 q 215 47 244 15 q 185 146 185 79 z "},"\\":{"ha":308,"x_min":-22,"x_max":365,"o":"m -22 900 l 322 -129 l 365 -129 l 22 900 l -22 900 z "},"|":{"ha":694,"x_min":304,"x_max":390,"o":"m 304 1061 l 304 -328 l 390 -328 l 390 1061 l 304 1061 z "},"{":{"ha":694,"x_min":119,"x_max":574,"o":"m 574 1028 l 567 1028 q 442 1016 492 1028 q 363 976 393 1004 q 322 904 333 949 q 310 793 310 860 l 310 649 q 301 561 310 596 q 272 503 293 526 q 213 469 250 481 q 119 451 176 457 l 119 411 q 213 395 176 407 q 272 360 250 383 q 301 301 293 338 q 310 214 310 265 l 310 69 q 322 -42 310 3 q 363 -114 333 -86 q 442 -153 393 -142 q 567 -165 492 -165 l 574 -165 l 574 -131 q 490 -121 522 -131 q 439 -90 457 -111 q 414 -36 421 -69 q 407 47 407 -3 l 407 144 q 401 260 407 211 q 374 342 394 308 q 315 397 353 376 q 213 431 276 418 q 315 464 276 443 q 374 519 353 485 q 401 601 394 553 q 407 717 407 650 l 407 814 q 414 898 407 864 q 439 953 421 932 q 490 983 457 974 q 574 993 522 993 l 574 1028 z "},"}":{"ha":694,"x_min":121,"x_max":575,"o":"m 121 1028 l 121 993 q 205 983 172 993 q 256 953 238 974 q 281 898 274 932 q 288 814 288 864 l 288 717 q 294 601 288 650 q 321 519 300 553 q 380 464 342 485 q 482 431 418 443 q 380 397 418 418 q 321 342 342 376 q 294 260 300 308 q 288 144 288 211 l 288 47 q 281 -36 288 -3 q 256 -90 274 -69 q 205 -121 238 -111 q 121 -131 172 -131 l 121 -165 l 128 -165 q 252 -153 203 -165 q 331 -114 301 -142 q 372 -42 360 -86 q 385 69 385 3 l 385 214 q 393 301 385 265 q 423 360 401 338 q 481 395 444 383 q 575 411 518 407 l 575 451 q 481 469 518 457 q 423 503 444 481 q 393 561 401 526 q 385 649 385 596 l 385 793 q 372 904 385 860 q 331 976 360 949 q 252 1016 301 1004 q 128 1028 203 1028 l 121 1028 z "},"[":{"ha":432,"x_min":131,"x_max":349,"o":"m 179 900 q 138 887 144 900 q 131 836 131 874 l 131 -254 q 138 -305 131 -292 q 179 -318 144 -318 l 328 -318 q 349 -296 349 -318 q 328 -275 349 -275 l 257 -275 q 233 -265 238 -275 q 228 -236 228 -256 l 228 819 q 233 849 228 839 q 257 858 238 858 l 328 858 q 349 879 349 858 q 344 896 349 892 q 328 900 339 900 l 179 900 z "},"]":{"ha":432,"x_min":83,"x_max":301,"o":"m 104 900 q 88 896 92 900 q 83 879 83 892 q 104 858 83 858 l 175 858 q 199 849 194 858 q 204 819 204 839 l 204 -236 q 199 -265 204 -256 q 175 -275 194 -275 l 104 -275 q 83 -296 83 -275 q 88 -313 83 -308 q 104 -318 92 -318 l 253 -318 q 294 -305 288 -318 q 301 -254 301 -292 l 301 836 q 294 887 301 874 q 253 900 288 900 l 104 900 z "},"˘":{"ha":694,"x_min":189,"x_max":504,"o":"m 189 922 q 347 738 213 738 q 453 784 414 738 q 504 922 493 831 l 476 922 q 437 849 467 872 q 347 826 407 826 q 257 849 288 826 q 217 922 226 871 l 189 922 z "},"•":{"ha":819,"x_min":208,"x_max":610,"o":"m 208 517 q 224 438 208 475 q 266 374 239 401 q 330 331 293 347 q 408 315 367 315 q 487 331 450 315 q 551 375 524 347 q 594 439 578 403 q 610 517 610 475 q 594 594 610 558 q 551 658 578 631 q 488 701 524 685 q 410 717 451 717 q 331 701 368 717 q 267 658 294 685 q 224 594 240 631 q 208 517 208 558 z "},"c":{"ha":511,"x_min":33,"x_max":486,"o":"m 315 636 q 203 613 254 636 q 114 545 151 589 q 55 440 76 501 q 33 300 33 378 q 53 165 33 225 q 107 62 72 104 q 189 -3 142 19 q 292 -26 236 -26 q 369 -12 333 -26 q 431 20 406 1 q 472 59 457 39 q 486 92 486 79 q 468 110 486 110 q 455 101 464 110 q 431 81 446 92 q 395 60 417 69 q 347 51 374 51 q 271 70 306 51 q 210 124 236 89 q 170 211 185 160 q 156 328 156 263 q 169 442 156 392 q 203 527 182 492 q 250 581 224 563 q 301 600 276 600 q 334 591 321 600 q 358 567 347 582 q 379 528 369 551 q 401 479 389 506 q 439 439 419 439 q 466 469 456 439 q 476 551 476 499 q 463 585 476 569 q 428 611 450 600 q 378 629 407 622 q 315 636 349 636 z "},"ˇ":{"ha":694,"x_min":189,"x_max":506,"o":"m 189 949 l 315 711 l 379 711 l 506 949 l 474 949 l 347 806 l 221 949 l 189 949 z "},"ç":{"ha":511,"x_min":33,"x_max":486,"o":"m 315 636 q 203 613 254 636 q 114 545 151 589 q 55 440 76 501 q 33 300 33 378 q 53 165 33 225 q 107 62 72 104 q 189 -3 142 19 q 292 -26 236 -26 q 369 -12 333 -26 q 431 20 406 1 q 472 59 457 39 q 486 92 486 79 q 468 110 486 110 q 455 101 464 110 q 431 81 446 92 q 395 60 417 69 q 347 51 374 51 q 271 70 306 51 q 210 124 236 89 q 170 211 185 160 q 156 328 156 263 q 169 442 156 392 q 203 527 182 492 q 250 581 224 563 q 301 600 276 600 q 334 591 321 600 q 358 567 347 582 q 379 528 369 551 q 401 479 389 506 q 439 439 419 439 q 466 469 456 439 q 476 551 476 499 q 463 585 476 569 q 428 611 450 600 q 378 629 407 622 q 315 636 349 636 m 257 0 l 257 -129 q 278 -125 269 -126 q 292 -124 286 -124 q 337 -140 321 -124 q 353 -185 353 -157 q 286 -247 353 -247 q 234 -236 267 -247 q 165 -199 201 -225 l 146 -251 q 230 -289 192 -275 q 306 -303 268 -303 q 393 -271 363 -303 q 424 -183 424 -239 q 398 -102 424 -132 q 329 -72 372 -72 q 292 -76 317 -72 l 292 0 l 257 0 z "},"¸":{"ha":694,"x_min":218,"x_max":496,"o":"m 329 0 l 329 -129 q 350 -125 342 -126 q 364 -124 358 -124 q 409 -140 393 -124 q 425 -185 425 -157 q 358 -247 425 -247 q 306 -236 339 -247 q 238 -199 274 -225 l 218 -251 q 302 -289 264 -275 q 378 -303 340 -303 q 465 -271 435 -303 q 496 -183 496 -239 q 470 -102 496 -132 q 401 -72 444 -72 q 364 -76 389 -72 l 364 0 l 329 0 z "},"¢":{"ha":607,"x_min":103,"x_max":475,"o":"m 294 875 l 294 713 q 154 628 206 697 q 103 451 103 560 q 156 273 103 340 q 294 196 208 206 l 294 0 l 325 0 l 325 196 q 386 208 358 197 q 434 233 414 219 q 465 262 454 247 q 475 286 475 276 q 469 299 475 293 q 460 306 464 306 q 450 298 457 306 q 431 281 443 290 q 401 265 418 272 q 361 257 383 257 q 345 258 354 257 q 325 263 336 260 l 325 688 q 367 663 351 683 q 394 619 383 642 q 413 578 404 596 q 435 560 421 560 q 457 584 449 560 q 465 644 465 608 q 325 717 465 710 l 325 875 l 294 875 m 294 681 l 294 275 q 204 475 204 326 q 228 604 204 551 q 294 681 253 657 z "},"ˆ":{"ha":694,"x_min":189,"x_max":506,"o":"m 315 949 l 189 711 l 221 711 l 347 854 l 474 711 l 506 711 l 379 949 l 315 949 z "},":":{"ha":329,"x_min":104,"x_max":225,"o":"m 164 521 q 122 500 140 521 q 104 447 104 479 q 122 394 104 415 q 164 374 140 374 q 206 394 188 374 q 225 447 225 415 q 206 500 225 479 q 164 521 188 521 m 164 133 q 122 113 140 133 q 104 60 104 92 q 122 7 104 28 q 164 -14 140 -14 q 206 7 188 -14 q 225 60 225 28 q 206 113 225 92 q 164 133 188 133 z "},",":{"ha":304,"x_min":72,"x_max":217,"o":"m 72 57 q 83 15 72 33 q 111 -10 94 -3 q 133 -14 124 -14 q 150 -15 143 -14 q 160 -24 157 -17 q 164 -49 164 -31 q 150 -121 164 -90 q 120 -173 136 -151 q 90 -209 104 -194 q 76 -233 76 -224 q 89 -247 76 -247 q 119 -227 99 -247 q 162 -173 140 -207 q 200 -93 183 -139 q 217 4 217 -47 q 194 95 217 63 q 138 128 172 128 q 91 108 110 128 q 72 57 72 88 z "},"©":{"ha":1142,"x_min":94,"x_max":1047,"o":"m 572 938 q 388 901 476 938 q 233 797 300 865 q 130 642 165 728 q 94 460 94 556 q 130 276 94 363 q 235 122 165 190 q 390 18 304 53 q 571 -17 475 -17 q 754 19 668 -17 q 907 122 840 54 q 1012 279 976 193 q 1047 460 1047 365 q 1010 644 1047 556 q 907 799 974 732 q 753 901 840 865 q 572 938 665 938 m 572 883 q 731 851 654 883 q 867 760 808 818 q 957 622 925 701 q 989 460 989 543 q 958 300 989 376 q 865 161 926 224 q 731 69 806 100 q 571 39 657 39 q 276 161 399 39 q 185 297 217 221 q 153 460 153 374 q 184 621 153 544 q 275 758 215 697 q 411 851 333 818 q 572 883 489 883 m 760 743 q 717 701 751 701 q 694 708 707 701 q 662 724 681 715 q 618 740 643 733 q 561 747 593 747 q 455 725 504 747 q 369 663 406 703 q 310 569 332 624 q 289 450 289 514 q 310 340 289 392 q 369 249 332 288 q 456 188 406 210 q 563 165 506 165 q 794 307 715 165 l 771 324 q 579 206 694 206 q 399 464 399 206 q 567 717 399 717 q 757 531 711 717 l 785 531 l 783 743 l 760 743 z "},"¤":{"ha":842,"x_min":58,"x_max":785,"o":"m 107 963 l 58 913 l 199 774 q 139 600 139 694 q 199 426 139 506 l 58 288 l 107 238 l 247 378 q 421 318 324 318 q 597 378 521 318 l 736 238 l 785 288 l 646 426 q 704 600 704 503 q 646 774 704 696 l 785 913 l 736 963 l 597 822 q 421 883 517 883 q 330 868 372 883 q 247 822 288 853 l 107 963 m 422 814 q 506 797 467 814 q 573 751 544 781 q 618 683 601 722 q 635 601 635 644 q 618 518 635 557 q 573 450 601 479 q 506 404 544 421 q 422 388 467 388 q 339 404 378 388 q 272 450 300 421 q 226 518 243 479 q 210 601 210 557 q 226 683 210 644 q 272 751 243 722 q 339 797 300 781 q 422 814 378 814 z "},"d":{"ha":651,"x_min":33,"x_max":628,"o":"m 556 843 q 558 894 556 871 q 560 938 560 918 q 557 957 560 950 q 543 964 554 964 q 513 948 536 964 q 442 914 490 932 q 397 899 415 904 q 378 879 378 894 q 388 867 378 871 q 408 858 397 863 q 429 844 419 853 q 439 818 439 836 l 439 635 q 431 614 439 614 l 428 614 l 410 621 q 369 631 394 626 q 317 636 344 636 q 207 611 258 636 q 117 541 156 586 q 56 433 79 496 q 33 294 33 369 q 53 162 33 221 q 109 61 74 103 q 190 -3 144 19 q 289 -26 236 -26 q 350 -17 324 -26 q 395 5 376 -7 q 425 26 414 17 q 439 36 436 36 q 446 27 443 36 q 451 6 449 18 q 459 -15 454 -6 q 471 -24 464 -24 q 512 -6 482 -24 q 593 31 542 13 q 618 42 608 36 q 628 72 628 49 q 624 90 628 83 q 617 96 619 96 q 599 83 610 96 q 575 69 589 69 q 556 125 556 69 l 556 843 m 439 388 l 439 153 q 438 104 439 125 q 428 68 436 83 q 403 45 419 53 q 357 38 386 38 q 213 106 265 38 q 160 299 160 175 q 174 422 160 367 q 212 516 188 478 q 267 575 236 554 q 335 596 299 596 q 393 581 372 596 q 424 540 414 567 q 437 474 435 513 q 439 388 439 436 z "},"†":{"ha":556,"x_min":53,"x_max":503,"o":"m 292 599 q 291 615 292 607 q 290 629 290 622 q 297 703 290 671 q 310 761 303 736 q 324 805 318 786 q 331 838 331 824 q 316 888 331 869 q 279 907 301 907 q 239 888 254 907 q 224 838 224 868 q 230 805 224 824 q 244 761 236 786 q 259 704 253 736 q 265 631 265 672 q 265 615 265 624 q 264 597 265 607 l 256 597 q 210 605 231 597 q 172 621 189 613 q 139 637 154 629 q 111 644 124 644 q 68 626 83 644 q 53 575 53 607 q 70 530 53 546 q 111 514 88 514 q 142 522 126 514 q 176 538 158 529 q 215 556 193 547 q 264 565 236 564 l 264 547 q 254 434 264 489 q 215 317 244 379 q 254 21 246 165 q 263 -269 263 -124 l 296 -269 l 296 -229 q 305 49 296 -86 q 340 317 314 185 q 302 428 313 367 q 290 565 292 489 q 342 557 321 565 q 382 539 364 549 q 415 522 400 529 q 444 514 429 514 q 487 531 471 514 q 503 579 503 547 q 487 626 503 607 q 444 644 471 644 q 417 638 432 644 q 385 622 401 631 q 348 606 368 613 q 304 599 328 599 l 292 599 z "},"‡":{"ha":556,"x_min":53,"x_max":503,"o":"m 292 593 q 291 609 292 601 q 290 624 290 617 q 297 698 290 665 q 310 756 303 731 q 324 799 318 781 q 331 831 331 817 q 316 881 331 863 q 279 900 301 900 q 239 881 254 900 q 224 831 224 861 q 230 799 224 817 q 244 756 236 781 q 259 699 253 731 q 265 625 265 667 q 265 610 265 618 q 264 592 265 601 l 256 592 q 210 599 231 592 q 172 615 189 606 q 139 631 154 624 q 111 638 124 638 q 68 619 83 638 q 53 569 53 601 q 70 524 53 540 q 111 508 88 508 q 142 516 126 508 q 176 533 158 524 q 215 549 193 542 q 264 558 236 557 l 264 542 q 254 428 264 483 q 215 311 244 374 q 252 208 239 265 q 265 82 265 150 l 265 61 q 213 69 235 61 q 174 86 192 76 q 141 103 157 96 q 107 111 125 111 q 69 94 85 111 q 53 46 53 78 q 69 0 53 18 q 111 -18 85 -18 q 139 -11 124 -18 q 172 5 154 -4 q 208 21 189 14 q 246 28 226 28 l 264 28 q 265 12 264 19 q 265 -3 265 4 q 259 -77 265 -44 q 245 -135 253 -110 q 231 -178 238 -160 q 225 -211 225 -197 q 240 -262 225 -243 q 276 -281 254 -281 q 317 -261 301 -281 q 332 -211 332 -242 q 326 -178 332 -197 q 311 -135 319 -160 q 297 -79 303 -111 q 290 -7 290 -47 q 290 10 290 1 q 292 29 290 19 l 300 29 q 346 22 325 29 q 384 6 367 14 q 417 -10 401 -3 q 444 -18 432 -18 q 488 0 472 -18 q 503 46 503 18 q 486 94 503 78 q 444 111 469 111 q 413 103 429 111 q 380 87 397 96 q 341 70 363 78 q 292 61 319 63 l 292 86 q 303 199 292 146 q 340 308 314 253 q 302 423 313 361 q 290 560 292 485 q 342 551 321 560 q 382 533 364 543 q 415 516 400 524 q 444 508 429 508 q 487 525 471 508 q 503 574 503 542 q 487 620 503 601 q 444 639 471 639 q 417 632 432 639 q 385 616 401 625 q 348 600 368 607 q 304 593 328 593 l 292 593 z "},"°":{"ha":457,"x_min":38,"x_max":421,"o":"m 229 986 q 154 972 189 986 q 94 931 119 957 q 53 870 68 906 q 38 794 38 835 q 52 719 38 754 q 92 658 67 685 q 153 617 118 632 q 228 603 188 603 q 303 618 268 603 q 365 660 339 633 q 406 721 390 686 q 421 794 421 756 q 406 869 421 833 q 365 930 390 904 q 303 971 339 956 q 229 986 268 986 m 229 931 q 326 891 288 931 q 365 794 365 851 q 355 742 365 767 q 326 698 344 717 q 283 668 308 679 q 229 657 258 657 q 176 667 201 657 q 133 697 151 678 q 103 740 114 715 q 92 794 92 765 q 132 892 92 853 q 229 931 172 931 z "},"¨":{"ha":694,"x_min":151,"x_max":544,"o":"m 151 817 q 171 768 151 788 q 218 749 190 749 q 266 768 246 749 q 286 817 286 788 q 266 865 286 844 q 218 885 246 885 q 171 865 190 885 q 151 817 151 844 m 410 817 q 429 768 410 788 q 476 749 449 749 q 524 768 504 749 q 544 817 544 788 q 524 865 544 844 q 476 885 504 885 q 429 865 449 885 q 410 817 410 844 z "},"÷":{"ha":1157,"x_min":172,"x_max":985,"o":"m 579 736 q 524 713 547 736 q 501 658 501 690 q 524 603 501 626 q 579 581 546 581 q 635 603 613 581 q 657 658 657 626 q 634 713 657 690 q 579 736 611 736 m 172 454 l 172 375 l 985 375 l 985 454 l 172 454 m 579 247 q 524 225 547 247 q 501 169 501 203 q 524 115 501 138 q 579 92 547 92 q 635 115 613 92 q 657 169 657 138 q 634 224 657 201 q 579 247 611 247 z "},"$":{"ha":607,"x_min":72,"x_max":521,"o":"m 311 974 l 294 865 q 156 788 206 850 q 107 631 107 726 q 136 515 107 563 q 229 428 165 468 l 179 97 q 140 148 151 121 q 122 211 128 175 q 119 249 119 232 q 117 278 118 265 q 113 297 117 290 q 99 304 108 304 q 76 267 81 304 q 72 143 72 229 q 75 112 72 125 q 88 87 78 99 q 117 63 97 75 q 169 36 136 51 l 144 -133 l 179 -133 l 204 24 q 269 15 238 17 l 247 -133 l 282 -133 l 306 18 q 393 47 353 25 q 461 103 433 68 q 505 182 489 138 q 521 279 521 226 q 488 415 521 358 q 382 522 456 471 l 421 788 q 448 742 440 765 q 460 701 456 719 q 469 670 464 682 q 488 658 474 658 q 506 713 506 658 l 506 757 q 503 788 506 775 q 494 813 501 801 q 472 833 486 824 q 432 854 457 843 l 450 974 l 415 974 l 397 861 q 331 865 364 865 l 347 974 l 311 974 m 324 819 l 335 819 q 390 808 367 819 l 349 540 q 286 574 315 557 l 324 819 m 288 815 l 253 593 q 193 701 193 635 q 220 781 193 750 q 288 815 247 813 m 261 411 q 325 375 296 396 l 278 64 q 244 66 260 64 q 211 75 228 68 l 261 411 m 357 357 q 413 294 396 325 q 431 221 431 264 q 398 116 431 158 q 313 67 365 74 l 357 357 z "},"˙":{"ha":694,"x_min":279,"x_max":415,"o":"m 279 817 q 299 768 279 788 q 347 749 319 749 q 395 769 375 749 q 415 817 415 789 q 395 865 415 844 q 347 885 375 885 q 299 865 319 885 q 279 817 279 844 z "},"ı":{"ha":307,"x_min":33,"x_max":293,"o":"m 214 611 q 200 640 214 640 q 188 634 194 640 q 172 618 182 628 q 148 596 163 608 q 113 571 133 583 q 59 542 78 551 q 40 517 40 532 q 49 502 40 503 q 69 498 58 501 q 90 482 81 494 q 99 432 99 469 l 99 104 q 94 65 99 76 q 75 44 90 53 q 60 40 67 40 q 47 38 53 39 q 37 32 40 36 q 33 18 33 28 q 54 -6 33 -6 q 94 -1 69 -6 q 156 4 119 4 q 218 -1 189 4 q 268 -6 247 -6 q 293 17 293 -6 q 288 31 293 26 q 276 37 283 35 q 258 40 268 39 q 236 47 247 42 q 219 67 224 54 q 214 104 214 79 l 214 611 z "},"e":{"ha":565,"x_min":33,"x_max":526,"o":"m 274 435 l 183 435 q 167 447 167 435 l 167 450 l 171 472 q 218 567 182 529 q 303 604 254 604 q 376 575 347 604 q 404 511 404 546 q 373 450 404 465 q 274 435 342 435 m 479 392 q 515 397 504 392 q 526 421 526 403 q 510 504 526 465 q 465 572 494 543 q 394 619 436 601 q 303 636 353 636 q 195 613 244 636 q 110 546 146 589 q 53 441 74 503 q 33 303 33 379 q 51 165 33 226 q 103 61 69 104 q 183 -5 136 18 q 286 -28 229 -28 q 383 -10 340 -28 q 458 33 426 8 q 506 82 489 57 q 522 122 522 107 q 511 138 522 138 q 497 125 507 138 q 467 97 486 113 q 420 69 449 82 q 353 57 392 57 q 210 132 265 57 q 156 336 156 207 l 156 369 q 158 388 156 383 q 172 392 161 392 l 479 392 z "},"é":{"ha":565,"x_min":33,"x_max":526,"o":"m 274 435 l 183 435 q 167 447 167 435 l 167 450 l 171 472 q 218 567 182 529 q 303 604 254 604 q 376 575 347 604 q 404 511 404 546 q 373 450 404 465 q 274 435 342 435 m 479 392 q 515 397 504 392 q 526 421 526 403 q 510 504 526 465 q 465 572 494 543 q 394 619 436 601 q 303 636 353 636 q 195 613 244 636 q 110 546 146 589 q 53 441 74 503 q 33 303 33 379 q 51 165 33 226 q 103 61 69 104 q 183 -5 136 18 q 286 -28 229 -28 q 383 -10 340 -28 q 458 33 426 8 q 506 82 489 57 q 522 122 522 107 q 511 138 522 138 q 497 125 507 138 q 467 97 486 113 q 420 69 449 82 q 353 57 392 57 q 210 132 265 57 q 156 336 156 207 l 156 369 q 158 388 156 383 q 172 392 161 392 l 479 392 m 404 851 q 438 907 438 876 q 426 942 438 929 q 399 956 414 956 q 372 945 383 956 q 346 915 361 935 l 189 711 l 225 711 l 404 851 z "},"ê":{"ha":565,"x_min":33,"x_max":526,"o":"m 274 435 l 183 435 q 167 447 167 435 l 167 450 l 171 472 q 218 567 182 529 q 303 604 254 604 q 376 575 347 604 q 404 511 404 546 q 373 450 404 465 q 274 435 342 435 m 479 392 q 515 397 504 392 q 526 421 526 403 q 510 504 526 465 q 465 572 494 543 q 394 619 436 601 q 303 636 353 636 q 195 613 244 636 q 110 546 146 589 q 53 441 74 503 q 33 303 33 379 q 51 165 33 226 q 103 61 69 104 q 183 -5 136 18 q 286 -28 229 -28 q 383 -10 340 -28 q 458 33 426 8 q 506 82 489 57 q 522 122 522 107 q 511 138 522 138 q 497 125 507 138 q 467 97 486 113 q 420 69 449 82 q 353 57 392 57 q 210 132 265 57 q 156 336 156 207 l 156 369 q 158 388 156 383 q 172 392 161 392 l 479 392 m 253 949 l 126 711 l 158 711 l 285 854 l 411 711 l 443 711 l 317 949 l 253 949 z "},"ë":{"ha":565,"x_min":33,"x_max":526,"o":"m 274 435 l 183 435 q 167 447 167 435 l 167 450 l 171 472 q 218 567 182 529 q 303 604 254 604 q 376 575 347 604 q 404 511 404 546 q 373 450 404 465 q 274 435 342 435 m 479 392 q 515 397 504 392 q 526 421 526 403 q 510 504 526 465 q 465 572 494 543 q 394 619 436 601 q 303 636 353 636 q 195 613 244 636 q 110 546 146 589 q 53 441 74 503 q 33 303 33 379 q 51 165 33 226 q 103 61 69 104 q 183 -5 136 18 q 286 -28 229 -28 q 383 -10 340 -28 q 458 33 426 8 q 506 82 489 57 q 522 122 522 107 q 511 138 522 138 q 497 125 507 138 q 467 97 486 113 q 420 69 449 82 q 353 57 392 57 q 210 132 265 57 q 156 336 156 207 l 156 369 q 158 388 156 383 q 172 392 161 392 l 479 392 m 89 817 q 108 768 89 788 q 156 749 128 749 q 203 768 183 749 q 224 817 224 788 q 203 865 224 844 q 156 885 183 885 q 108 865 128 885 q 89 817 89 844 m 347 817 q 367 768 347 788 q 414 749 386 749 q 462 768 442 749 q 482 817 482 788 q 462 865 482 844 q 414 885 442 885 q 367 865 386 885 q 347 817 347 844 z "},"è":{"ha":565,"x_min":33,"x_max":526,"o":"m 274 435 l 183 435 q 167 447 167 435 l 167 450 l 171 472 q 218 567 182 529 q 303 604 254 604 q 376 575 347 604 q 404 511 404 546 q 373 450 404 465 q 274 435 342 435 m 479 392 q 515 397 504 392 q 526 421 526 403 q 510 504 526 465 q 465 572 494 543 q 394 619 436 601 q 303 636 353 636 q 195 613 244 636 q 110 546 146 589 q 53 441 74 503 q 33 303 33 379 q 51 165 33 226 q 103 61 69 104 q 183 -5 136 18 q 286 -28 229 -28 q 383 -10 340 -28 q 458 33 426 8 q 506 82 489 57 q 522 122 522 107 q 511 138 522 138 q 497 125 507 138 q 467 97 486 113 q 420 69 449 82 q 353 57 392 57 q 210 132 265 57 q 156 336 156 207 l 156 369 q 158 388 156 383 q 172 392 161 392 l 479 392 m 224 915 q 197 945 208 935 q 171 956 186 956 q 144 942 156 956 q 132 903 132 928 q 165 851 132 876 l 344 711 l 381 711 l 224 915 z "},"…":{"ha":1389,"x_min":169,"x_max":1218,"o":"m 231 133 q 188 113 207 133 q 169 60 169 92 q 188 7 169 28 q 231 -14 207 -14 q 273 7 254 -14 q 292 60 292 28 q 273 113 292 92 q 231 133 254 133 m 693 133 q 651 113 669 133 q 632 60 632 92 q 651 7 632 28 q 693 -14 669 -14 q 735 7 717 -14 q 754 60 754 28 q 735 113 754 92 q 693 133 717 133 m 1157 133 q 1115 113 1133 133 q 1096 60 1096 92 q 1115 7 1096 28 q 1157 -14 1133 -14 q 1199 7 1181 -14 q 1218 60 1218 28 q 1199 113 1218 92 q 1157 133 1181 133 z "},"—":{"ha":903,"x_min":-28,"x_max":932,"o":"m -17 257 l 888 257 q 901 263 894 257 q 910 275 907 268 l 929 336 q 932 346 932 344 q 919 354 932 354 l 17 354 q 3 349 10 354 q -6 336 -3 343 l -26 274 q -28 265 -28 269 q -17 257 -28 257 z "},"–":{"ha":694,"x_min":-14,"x_max":708,"o":"m 8 336 l -12 274 q -14 265 -14 269 q -3 257 -14 257 l 664 257 q 686 275 679 257 l 706 336 q 708 346 708 344 q 697 354 708 354 l 31 354 q 8 336 15 354 z "},"=":{"ha":1157,"x_min":172,"x_max":985,"o":"m 172 583 l 172 504 l 985 504 l 985 583 l 172 583 m 172 324 l 172 244 l 985 244 l 985 324 l 172 324 z "},"!":{"ha":335,"x_min":97,"x_max":238,"o":"m 222 626 q 233 731 229 689 q 238 794 238 772 q 218 852 238 831 q 167 874 199 874 q 116 851 135 874 q 97 788 97 829 q 101 733 97 772 q 113 626 106 693 l 150 251 q 155 226 153 236 q 167 217 157 217 q 179 226 176 217 q 185 251 182 236 l 222 626 m 167 133 q 124 113 143 133 q 106 60 106 92 q 124 7 106 28 q 167 -14 143 -14 q 209 7 190 -14 q 228 60 228 28 q 209 113 228 92 q 167 133 190 133 z "},"¡":{"ha":335,"x_min":97,"x_max":238,"o":"m 168 881 q 126 860 144 881 q 107 807 107 839 q 126 753 107 775 q 168 732 144 732 q 210 753 192 732 q 228 807 228 775 q 210 860 228 839 q 168 881 192 881 m 185 615 q 179 640 182 631 q 167 650 176 650 q 155 640 157 650 q 150 615 153 631 l 113 240 q 101 133 106 174 q 97 78 97 93 q 116 14 97 36 q 167 -8 135 -8 q 218 14 199 -8 q 238 72 238 36 q 233 137 238 96 q 222 240 229 178 l 185 615 z "},"f":{"ha":329,"x_min":13,"x_max":429,"o":"m 217 700 q 235 864 217 810 q 282 918 254 918 q 307 903 296 918 q 330 869 318 888 q 353 836 342 851 q 378 821 364 821 q 395 831 386 821 q 412 856 404 842 q 424 884 419 869 q 429 908 429 899 q 399 946 429 928 q 329 964 369 964 q 249 947 288 964 q 181 897 211 929 q 131 816 150 864 q 107 708 111 768 l 101 638 q 86 614 99 621 l 61 601 q 35 575 35 588 q 41 562 35 568 q 56 556 47 556 l 81 556 q 99 538 99 556 l 99 106 q 93 69 99 82 q 68 47 88 57 q 28 37 43 36 q 13 18 13 38 q 39 -4 13 -4 q 92 0 63 -4 q 156 4 121 4 q 222 0 190 4 q 282 -4 254 -4 q 313 15 313 -4 q 308 31 313 26 q 293 37 303 35 q 270 41 283 39 q 240 51 257 43 q 220 70 225 58 q 215 106 215 82 l 215 538 q 232 556 215 556 l 336 556 q 352 562 350 556 q 354 582 354 568 l 354 589 q 351 606 354 600 q 336 611 349 611 l 233 611 q 217 629 217 611 l 217 700 z "},"ﬁ":{"ha":629,"x_min":13,"x_max":615,"o":"m 215 700 q 238 867 215 810 q 324 925 261 925 q 372 908 353 925 q 406 872 392 892 q 433 835 421 851 q 457 818 444 818 q 474 827 464 818 q 492 849 483 836 q 506 877 500 863 q 511 903 511 892 q 468 946 511 926 q 363 965 425 965 q 268 949 313 965 q 190 899 224 932 q 133 819 156 867 q 107 708 111 771 l 101 638 q 86 614 99 621 l 61 601 q 35 575 35 588 q 41 562 35 568 q 56 556 47 556 l 81 556 q 99 538 99 556 l 99 106 q 93 69 99 82 q 68 47 88 57 q 28 37 43 36 q 13 18 13 38 q 39 -4 13 -4 q 91 1 58 -4 q 165 6 124 6 q 226 1 201 6 q 264 -4 250 -4 q 288 15 288 -4 q 284 31 288 26 q 274 37 281 35 q 257 42 267 39 q 235 51 247 44 q 219 72 222 60 q 215 106 215 85 l 215 538 q 232 556 215 556 l 328 556 q 399 538 378 556 q 421 465 421 521 l 421 104 q 417 64 421 76 q 399 44 414 51 q 383 40 390 40 q 369 38 375 39 q 360 32 364 36 q 357 18 357 28 q 378 -6 357 -6 q 418 -1 393 -6 q 479 4 443 4 q 542 -1 514 4 q 590 -6 571 -6 q 615 15 615 -6 q 611 32 615 28 q 599 38 607 36 q 581 40 592 39 q 558 47 571 40 q 541 67 544 54 q 538 104 538 81 l 538 599 q 522 638 538 638 q 512 633 518 638 q 492 624 506 629 q 456 615 479 619 q 394 611 433 611 l 233 611 q 215 629 215 611 l 215 700 z "},"ﬂ":{"ha":629,"x_min":13,"x_max":615,"o":"m 471 940 q 363 965 417 965 q 268 949 313 965 q 190 899 224 932 q 133 819 156 867 q 107 708 111 771 l 101 638 q 86 614 99 621 l 61 601 q 35 575 35 588 q 41 562 35 568 q 56 556 47 556 l 81 556 q 99 538 99 556 l 99 106 q 93 69 99 82 q 68 47 88 57 q 28 37 43 36 q 13 18 13 38 q 39 -4 13 -4 q 91 1 58 -4 q 165 6 124 6 q 226 1 201 6 q 264 -4 250 -4 q 288 15 288 -4 q 284 31 288 26 q 274 37 281 35 q 257 42 267 39 q 235 51 247 44 q 219 72 222 60 q 215 106 215 85 l 215 538 q 232 556 215 556 l 336 556 q 352 562 350 556 q 354 582 354 568 l 354 589 q 351 606 354 600 q 336 611 349 611 l 233 611 q 215 629 215 611 l 215 700 q 238 868 215 811 q 325 925 261 925 q 421 782 421 925 l 421 104 q 417 64 421 76 q 399 44 414 51 q 383 40 390 40 q 369 38 375 39 q 360 32 364 36 q 357 18 357 28 q 378 -6 357 -6 q 418 -1 393 -6 q 479 4 443 4 q 542 -1 514 4 q 590 -6 571 -6 q 615 15 615 -6 q 611 32 615 28 q 599 38 607 36 q 581 40 592 39 q 558 47 571 40 q 541 67 544 54 q 538 104 538 81 l 538 788 q 539 879 538 840 q 540 942 540 918 q 524 964 540 964 q 508 957 519 964 q 471 940 496 950 z "},"ƒ":{"ha":607,"x_min":-29,"x_max":575,"o":"m 349 636 q 417 886 361 886 q 441 870 431 886 q 463 835 451 854 q 488 801 474 817 q 522 786 501 786 q 560 805 544 786 q 575 853 575 824 q 465 940 575 940 q 316 863 375 940 q 239 638 257 785 l 231 567 q 213 549 229 549 l 113 549 l 108 483 l 204 483 q 222 465 222 483 l 204 76 q 181 -171 197 -90 q 121 -251 165 -251 q 93 -233 101 -251 q 74 -189 85 -215 q 25 -147 57 -147 q -14 -165 1 -147 q -29 -214 -29 -183 q 0 -282 -29 -258 q 85 -306 29 -306 q 196 -267 153 -306 q 265 -153 239 -229 q 306 34 292 -78 q 329 292 319 146 l 340 465 q 357 483 342 483 l 460 483 l 464 549 l 364 549 q 346 567 346 549 l 349 636 z "},"g":{"ha":574,"x_min":15,"x_max":569,"o":"m 276 599 q 349 551 321 599 q 378 419 378 503 q 349 288 378 336 q 276 240 321 240 q 203 288 232 240 q 174 419 174 336 q 203 551 174 504 q 276 599 232 599 m 476 585 l 464 585 q 437 589 444 585 q 418 599 429 593 q 353 626 386 617 q 271 636 321 636 q 181 619 222 636 q 110 572 140 601 q 64 501 81 542 q 47 414 47 460 q 69 316 47 361 q 132 243 92 271 l 153 228 q 168 215 168 217 q 151 203 168 211 l 99 178 q 67 159 79 168 q 56 133 56 150 q 70 93 56 117 q 111 36 85 69 l 129 14 q 139 -1 139 3 q 124 -21 139 -10 l 78 -54 q 15 -154 15 -100 q 76 -264 15 -222 q 250 -306 136 -306 q 376 -284 318 -306 q 478 -226 435 -262 q 545 -142 521 -189 q 569 -42 569 -94 q 553 33 569 4 q 506 78 538 63 q 426 101 474 94 q 318 107 379 107 l 286 107 q 211 113 242 107 q 181 150 181 119 q 207 188 181 175 q 282 203 233 200 q 449 267 393 211 q 506 415 506 322 q 485 521 506 467 q 508 523 499 522 q 522 524 517 524 q 556 525 544 524 q 568 533 568 526 q 561 578 568 568 q 536 589 554 589 q 523 588 528 589 q 515 588 518 588 l 476 585 m 185 -12 q 310 -16 257 -14 q 397 -28 363 -18 q 449 -59 432 -37 q 465 -122 465 -81 q 414 -221 465 -182 q 282 -260 363 -260 q 172 -221 213 -260 q 131 -124 131 -182 q 185 -12 131 -57 z "},"ß":{"ha":644,"x_min":13,"x_max":611,"o":"m 214 613 q 217 742 214 685 q 233 838 221 799 q 270 897 246 876 q 338 917 294 917 q 413 876 382 917 q 443 764 443 835 q 426 679 443 710 q 360 619 408 649 q 328 599 343 608 q 301 576 313 589 q 284 544 290 563 q 278 499 278 526 q 288 441 278 465 q 314 396 297 417 q 354 356 331 375 q 406 311 378 336 q 479 233 453 269 q 506 147 506 196 q 478 60 506 93 q 406 28 450 28 q 358 49 374 28 q 325 121 342 71 q 315 158 318 142 q 310 185 313 174 q 303 201 307 196 q 293 207 300 207 q 278 178 281 207 q 275 89 275 150 l 275 58 q 278 32 275 42 q 292 15 281 22 q 344 -8 313 0 q 407 -17 375 -17 q 555 42 499 -17 q 611 207 611 101 q 574 331 611 279 q 468 438 536 383 q 397 493 425 471 q 369 540 369 515 q 393 578 369 564 q 457 610 417 593 q 531 663 508 631 q 554 763 554 694 q 540 842 554 806 q 498 906 525 879 q 433 949 471 933 q 349 965 394 965 q 256 947 299 965 q 181 896 213 929 q 129 815 149 863 q 107 708 110 768 l 103 642 q 86 615 103 625 l 61 601 q 35 575 35 588 q 41 562 35 568 q 56 556 47 556 l 79 556 q 97 538 97 556 l 97 106 q 92 66 97 79 q 65 44 88 53 q 46 40 56 40 q 29 38 36 39 q 17 32 22 36 q 13 18 13 28 q 39 -6 13 -6 q 74 -1 54 -6 q 121 4 93 4 q 155 2 140 4 q 181 0 169 0 q 209 14 204 0 q 214 60 214 28 l 214 613 z "},"`":{"ha":694,"x_min":194,"x_max":443,"o":"m 286 915 q 260 945 271 935 q 233 956 249 956 q 206 942 218 956 q 194 903 194 928 q 228 851 194 876 l 407 711 l 443 711 l 286 915 z "},">":{"ha":1157,"x_min":179,"x_max":978,"o":"m 179 776 l 179 690 l 857 414 l 179 139 l 179 51 l 978 379 l 978 449 l 179 776 z "},"«":{"ha":456,"x_min":33,"x_max":428,"o":"m 221 439 q 239 476 232 460 q 246 504 246 492 q 238 515 246 515 q 207 491 222 515 q 154 426 192 467 q 67 347 101 372 q 33 306 33 321 q 44 286 33 297 q 73 259 54 275 q 117 220 92 243 q 172 165 143 197 q 210 116 199 136 q 238 96 222 96 q 246 107 246 96 q 239 135 246 119 q 221 172 232 150 l 149 306 l 221 439 m 401 439 q 428 501 428 488 q 418 515 428 515 q 388 491 403 515 q 335 426 372 467 q 249 347 283 372 q 214 306 214 321 q 224 286 214 297 q 253 259 235 275 q 298 220 272 243 q 353 164 324 197 q 391 115 379 135 q 418 96 403 96 q 428 110 428 96 q 401 172 428 124 l 329 306 l 401 439 z "},"»":{"ha":456,"x_min":28,"x_max":422,"o":"m 53 172 q 28 110 28 128 q 36 96 28 96 q 67 120 51 96 q 119 185 82 144 q 206 265 172 239 q 240 306 240 290 q 231 323 240 314 q 206 346 222 332 q 167 380 190 360 q 118 428 144 400 q 66 491 81 467 q 36 515 51 515 q 28 501 28 515 q 53 439 28 485 l 125 306 l 53 172 m 235 172 q 208 110 208 126 q 217 96 208 96 q 248 120 232 96 q 301 185 264 144 q 388 265 354 239 q 422 306 422 290 q 413 324 422 314 q 388 347 404 333 q 349 381 371 361 q 300 428 326 400 q 247 491 263 467 q 217 515 232 515 q 208 501 208 515 q 235 439 208 485 l 307 306 l 235 172 z "},"‹":{"ha":274,"x_min":33,"x_max":246,"o":"m 221 439 q 239 476 232 460 q 246 504 246 492 q 238 515 246 515 q 207 491 222 515 q 154 426 192 467 q 67 347 101 372 q 33 306 33 321 q 44 286 33 297 q 73 259 54 275 q 117 220 92 243 q 172 165 143 197 q 210 116 199 136 q 238 96 222 96 q 246 107 246 96 q 239 135 246 119 q 221 172 232 150 l 149 306 l 221 439 z "},"›":{"ha":274,"x_min":28,"x_max":240,"o":"m 53 172 q 28 110 28 128 q 36 96 28 96 q 67 120 51 96 q 119 185 82 144 q 206 265 172 239 q 240 306 240 290 q 231 323 240 314 q 206 346 222 332 q 167 380 190 360 q 118 428 144 400 q 66 491 81 467 q 36 515 51 515 q 28 501 28 515 q 53 439 28 485 l 125 306 l 53 172 z "},"h":{"ha":647,"x_min":18,"x_max":619,"o":"m 214 843 q 216 894 214 871 q 218 938 218 918 q 215 957 218 950 q 201 964 213 964 q 172 948 194 964 q 100 914 149 932 q 55 899 74 904 q 36 879 36 894 q 46 866 36 868 q 67 859 56 864 q 88 842 78 854 q 97 799 97 829 l 97 106 q 94 66 97 79 q 68 44 90 53 q 48 39 57 40 q 33 36 39 38 q 22 31 26 35 q 18 18 18 28 q 43 -4 18 -4 q 88 0 60 -4 q 156 4 115 4 q 224 0 196 4 q 265 -4 251 -4 q 289 15 289 -4 q 284 32 289 28 q 272 38 279 36 q 254 41 264 40 q 235 49 244 42 q 218 71 222 57 q 214 106 214 85 l 214 407 q 247 518 214 482 q 329 554 279 554 q 439 386 439 554 l 439 106 q 435 68 439 81 q 410 46 431 56 q 391 40 400 42 q 375 38 382 39 q 364 32 368 36 q 360 18 360 28 q 385 -4 360 -4 q 433 0 404 -4 q 497 4 461 4 q 558 0 532 4 q 599 -4 583 -4 q 619 15 619 -4 q 616 31 619 26 q 606 37 613 35 q 592 41 600 39 q 572 51 583 43 q 558 71 561 58 q 556 106 556 83 l 556 417 q 509 579 556 522 q 379 636 463 636 q 304 616 340 636 q 242 561 268 596 l 228 543 q 217 535 221 535 q 214 553 214 535 l 214 843 z "},"˝":{"ha":694,"x_min":243,"x_max":556,"o":"m 385 858 q 401 887 396 874 q 407 910 407 900 q 397 942 407 929 q 371 956 386 956 q 321 901 343 956 l 243 711 l 275 711 l 385 858 m 535 858 q 551 887 546 874 q 556 910 556 900 q 545 942 556 929 q 519 956 535 956 q 469 901 492 956 l 392 711 l 424 711 l 535 858 z "},"-":{"ha":308,"x_min":21,"x_max":288,"o":"m 65 369 q 56 365 61 369 q 47 351 50 360 l 24 258 q 21 249 21 247 q 31 242 21 242 l 243 242 q 253 247 247 242 q 261 260 258 251 l 286 353 q 288 363 288 358 q 278 369 288 369 l 65 369 z "},"i":{"ha":307,"x_min":33,"x_max":293,"o":"m 161 878 q 118 854 136 878 q 100 801 100 831 q 118 749 100 772 q 161 725 136 725 q 204 749 186 725 q 222 801 222 772 q 204 854 222 831 q 161 878 186 878 m 214 611 q 200 640 214 640 q 188 634 194 640 q 172 618 182 628 q 148 596 163 608 q 113 571 133 583 q 59 542 78 551 q 40 517 40 532 q 49 502 40 503 q 69 498 58 501 q 88 482 79 494 q 97 432 97 469 l 97 104 q 94 65 97 76 q 75 44 90 53 q 60 40 67 40 q 47 38 53 39 q 37 32 40 36 q 33 18 33 28 q 54 -6 33 -6 q 94 -1 69 -6 q 156 4 119 4 q 218 -1 189 4 q 268 -6 247 -6 q 293 17 293 -6 q 288 31 293 26 q 276 37 283 35 q 258 40 268 39 q 236 47 247 42 q 219 67 224 54 q 214 104 214 79 l 214 611 z "},"í":{"ha":307,"x_min":33,"x_max":308,"o":"m 214 611 q 200 640 214 640 q 188 634 194 640 q 172 618 182 628 q 148 596 163 608 q 113 571 133 583 q 59 542 78 551 q 40 517 40 532 q 49 502 40 503 q 69 498 58 501 q 90 482 81 494 q 99 432 99 469 l 99 104 q 94 65 99 76 q 75 44 90 53 q 60 40 67 40 q 47 38 53 39 q 37 32 40 36 q 33 18 33 28 q 54 -6 33 -6 q 94 -1 69 -6 q 156 4 119 4 q 218 -1 189 4 q 268 -6 247 -6 q 293 17 293 -6 q 288 31 293 26 q 276 37 283 35 q 258 40 268 39 q 236 47 247 42 q 219 67 224 54 q 214 104 214 79 l 214 611 m 275 851 q 308 907 308 876 q 297 942 308 929 q 269 956 285 956 q 243 945 254 956 q 217 915 232 935 l 60 711 l 96 711 l 275 851 z "},"î":{"ha":307,"x_min":-3,"x_max":314,"o":"m 214 611 q 200 640 214 640 q 188 634 194 640 q 172 618 182 628 q 148 596 163 608 q 113 571 133 583 q 59 542 78 551 q 40 517 40 532 q 49 502 40 503 q 69 498 58 501 q 90 482 81 494 q 99 432 99 469 l 99 104 q 94 65 99 76 q 75 44 90 53 q 60 40 67 40 q 47 38 53 39 q 37 32 40 36 q 33 18 33 28 q 54 -6 33 -6 q 94 -1 69 -6 q 156 4 119 4 q 218 -1 189 4 q 268 -6 247 -6 q 293 17 293 -6 q 288 31 293 26 q 276 37 283 35 q 258 40 268 39 q 236 47 247 42 q 219 67 224 54 q 214 104 214 79 l 214 611 m 124 949 l -3 711 l 29 711 l 156 854 l 282 711 l 314 711 l 188 949 l 124 949 z "},"ï":{"ha":307,"x_min":-40,"x_max":353,"o":"m 214 611 q 200 640 214 640 q 188 634 194 640 q 172 618 182 628 q 148 596 163 608 q 113 571 133 583 q 59 542 78 551 q 40 517 40 532 q 49 502 40 503 q 69 498 58 501 q 90 482 81 494 q 99 432 99 469 l 99 104 q 94 65 99 76 q 75 44 90 53 q 60 40 67 40 q 47 38 53 39 q 37 32 40 36 q 33 18 33 28 q 54 -6 33 -6 q 94 -1 69 -6 q 156 4 119 4 q 218 -1 189 4 q 268 -6 247 -6 q 293 17 293 -6 q 288 31 293 26 q 276 37 283 35 q 258 40 268 39 q 236 47 247 42 q 219 67 224 54 q 214 104 214 79 l 214 611 m -40 817 q -21 768 -40 788 q 26 749 -1 749 q 74 768 54 749 q 94 817 94 788 q 74 865 94 844 q 26 885 54 885 q -21 865 -1 885 q -40 817 -40 844 m 218 817 q 238 768 218 788 q 285 749 257 749 q 333 768 313 749 q 353 817 353 788 q 333 865 353 844 q 285 885 313 885 q 238 865 257 885 q 218 817 218 844 z "},"ì":{"ha":307,"x_min":3,"x_max":293,"o":"m 214 611 q 200 640 214 640 q 188 634 194 640 q 172 618 182 628 q 148 596 163 608 q 113 571 133 583 q 59 542 78 551 q 40 517 40 532 q 49 502 40 503 q 69 498 58 501 q 90 482 81 494 q 99 432 99 469 l 99 104 q 94 65 99 76 q 75 44 90 53 q 60 40 67 40 q 47 38 53 39 q 37 32 40 36 q 33 18 33 28 q 54 -6 33 -6 q 94 -1 69 -6 q 156 4 119 4 q 218 -1 189 4 q 268 -6 247 -6 q 293 17 293 -6 q 288 31 293 26 q 276 37 283 35 q 258 40 268 39 q 236 47 247 42 q 219 67 224 54 q 214 104 214 79 l 214 611 m 94 915 q 68 945 79 935 q 42 956 57 956 q 15 942 26 956 q 3 903 3 928 q 36 851 3 876 l 215 711 l 251 711 l 94 915 z "},"j":{"ha":301,"x_min":-7,"x_max":222,"o":"m 161 878 q 118 854 136 878 q 100 801 100 831 q 118 749 100 772 q 161 725 136 725 q 204 749 186 725 q 222 801 222 772 q 204 854 222 831 q 161 878 186 878 m 214 611 q 200 640 214 640 q 188 634 194 640 q 172 618 182 628 q 148 596 163 608 q 113 571 133 583 q 59 542 78 551 q 40 517 40 532 q 49 502 40 503 q 69 498 58 501 q 88 482 79 494 q 97 432 97 469 l 97 46 q 92 -108 97 -43 q 60 -217 86 -172 q 39 -243 50 -232 q 17 -262 28 -254 q 0 -278 7 -271 q -7 -293 -7 -285 q 7 -306 -7 -306 q 64 -281 25 -306 q 142 -212 103 -257 q 183 -151 168 -182 q 204 -88 197 -121 q 213 -19 211 -56 q 214 60 214 17 l 214 611 z "},"k":{"ha":583,"x_min":15,"x_max":608,"o":"m 215 843 q 217 892 215 868 q 218 938 218 915 q 215 957 218 950 q 201 964 213 964 q 172 948 194 964 q 100 914 149 932 q 55 899 74 904 q 36 879 36 894 q 46 867 36 871 q 67 858 56 863 q 89 844 79 853 q 99 818 99 836 l 99 106 q 94 69 99 82 q 69 47 89 57 q 47 40 57 42 q 31 37 38 39 q 19 31 24 35 q 15 18 15 28 q 42 -4 15 -4 q 89 0 60 -4 q 158 4 118 4 q 215 0 190 4 q 258 -4 239 -4 q 281 18 281 -4 q 277 31 281 28 q 267 37 274 35 q 250 42 260 39 q 229 51 240 44 q 217 65 219 57 q 215 83 215 72 l 215 288 q 225 306 215 306 q 253 279 238 306 l 369 85 q 377 70 374 76 q 381 57 381 64 q 372 43 381 46 q 353 38 364 40 q 335 32 343 36 q 326 17 326 28 q 332 -1 326 3 q 349 -6 338 -6 q 395 -1 364 -6 q 474 3 426 3 q 544 -1 517 3 q 585 -6 572 -6 q 608 15 608 -6 q 594 35 608 33 q 564 44 579 38 q 528 74 543 53 q 493 126 513 96 l 335 372 q 332 377 333 375 q 331 382 331 379 q 340 399 331 390 l 467 517 q 519 556 497 546 q 556 571 542 567 q 576 577 569 575 q 582 592 582 579 q 577 608 582 604 q 558 611 572 611 q 527 607 547 611 q 475 603 507 603 q 403 608 431 603 q 365 613 376 613 q 349 608 353 613 q 344 593 344 604 q 354 575 344 579 q 376 569 364 571 q 399 563 389 567 q 408 544 408 558 q 392 515 408 529 l 224 351 q 217 349 221 349 q 215 350 215 349 l 215 843 z "},"l":{"ha":314,"x_min":18,"x_max":303,"o":"m 214 843 q 216 896 214 872 q 218 938 218 919 q 215 957 218 950 q 201 964 213 964 q 172 948 194 964 q 100 914 149 932 q 56 899 75 904 q 38 879 38 894 q 47 867 38 871 q 67 858 56 863 q 88 846 79 854 q 97 819 97 838 l 97 97 q 93 65 97 76 q 69 46 89 53 q 32 38 47 38 q 18 18 18 38 q 43 -4 18 -4 q 91 0 63 -4 q 156 4 119 4 q 221 0 190 4 q 275 -4 251 -4 q 303 15 303 -4 q 297 33 303 28 q 283 39 292 38 q 263 41 274 40 q 240 47 251 42 q 214 106 214 60 l 214 843 z "},"<":{"ha":1157,"x_min":179,"x_max":978,"o":"m 978 776 l 179 449 l 179 379 l 978 51 l 978 139 l 300 414 l 978 690 l 978 776 z "},"¬":{"ha":1157,"x_min":172,"x_max":985,"o":"m 172 582 l 172 503 l 907 503 l 907 242 l 985 242 l 985 582 l 172 582 z "},"m":{"ha":956,"x_min":28,"x_max":940,"o":"m 204 611 q 201 632 204 624 q 194 640 199 640 q 183 634 190 640 q 166 617 176 628 q 140 593 156 607 q 100 565 124 579 q 52 542 72 550 q 32 515 32 533 q 42 501 32 503 q 63 497 51 500 q 83 481 74 494 q 93 432 93 468 l 93 104 q 89 65 93 78 q 69 44 85 51 q 53 39 61 40 q 40 36 46 38 q 31 31 35 35 q 28 18 28 28 q 50 -6 28 -6 q 90 -1 65 -6 q 151 4 115 4 q 214 -1 186 4 q 263 -6 242 -6 q 288 17 288 -6 q 283 31 288 26 q 270 37 278 35 q 252 40 263 39 q 231 47 242 42 q 214 67 218 54 q 210 104 210 79 l 210 407 q 239 518 210 482 q 317 554 268 554 q 399 499 378 554 q 421 336 421 444 l 421 104 q 416 65 421 76 q 396 44 411 53 q 381 40 388 40 q 367 38 374 39 q 358 32 361 36 q 354 18 354 28 q 376 -6 354 -6 q 417 -1 392 -6 q 478 4 442 4 q 540 -1 511 4 q 589 -6 568 -6 q 614 17 614 -6 q 609 31 614 26 q 597 37 604 35 q 578 40 589 39 q 557 47 568 42 q 541 67 544 54 q 538 104 538 79 l 538 407 q 567 518 538 482 q 643 554 596 554 q 726 499 706 554 q 746 336 746 443 l 746 104 q 742 65 746 78 q 722 44 738 51 q 706 39 714 40 q 693 36 699 38 q 684 31 688 35 q 681 18 681 28 q 703 -6 681 -6 q 743 -1 718 -6 q 804 4 768 4 q 867 -1 839 4 q 915 -6 894 -6 q 940 17 940 -6 q 935 31 940 26 q 923 37 931 35 q 905 40 915 39 q 883 47 894 42 q 867 67 871 54 q 863 104 863 79 l 863 432 q 818 581 863 525 q 703 636 774 636 q 532 526 600 636 l 525 526 q 461 606 497 575 q 368 636 425 636 q 294 617 329 636 q 232 561 258 597 l 218 543 q 208 535 211 535 q 204 553 204 535 l 204 611 z "},"¯":{"ha":694,"x_min":207,"x_max":488,"o":"m 207 860 l 207 774 l 488 774 l 488 860 l 207 860 z "},"µ":{"ha":760,"x_min":-54,"x_max":738,"o":"m 111 131 q 263 -15 131 -15 q 453 132 390 -15 l 453 117 q 481 21 453 54 q 554 -12 510 -12 q 710 99 660 -12 q 731 160 725 133 q 738 200 738 188 q 719 225 738 225 q 706 215 711 225 q 695 191 700 206 q 684 158 690 176 q 665 121 678 139 q 586 74 635 74 q 541 94 558 74 q 524 147 524 114 q 527 188 524 165 q 538 240 531 210 l 615 600 l 514 600 l 439 254 q 264 72 399 72 q 184 103 213 72 q 156 190 156 133 q 164 267 156 225 l 235 600 l 135 600 l 61 251 q 19 74 40 153 q -17 -63 -1 -4 q -44 -162 -33 -122 q -54 -224 -54 -203 q -40 -267 -54 -251 q 0 -283 -25 -283 q 43 -258 29 -283 q 65 -180 57 -232 q 82 -51 74 -128 q 111 131 90 26 z "},"n":{"ha":661,"x_min":36,"x_max":650,"o":"m 213 610 q 208 632 213 625 q 200 639 204 639 q 171 617 188 639 q 114 571 154 594 q 61 540 79 550 q 43 515 43 529 q 52 501 43 501 q 72 497 61 500 q 92 482 83 494 q 101 432 101 469 l 101 104 q 97 64 101 76 q 78 44 93 51 q 62 40 69 40 q 49 38 54 39 q 40 32 43 36 q 36 18 36 28 q 58 -6 36 -6 q 99 -1 74 -6 q 160 4 124 4 q 222 -1 194 4 q 269 -6 250 -6 q 294 15 294 -6 q 290 32 294 28 q 278 38 286 36 q 261 40 271 39 q 239 47 251 40 q 222 67 225 54 q 218 104 218 81 l 218 406 q 251 517 218 481 q 338 553 285 553 q 425 510 394 553 q 456 385 456 468 l 456 104 q 453 66 456 79 q 433 44 450 53 q 417 40 425 40 q 403 38 410 39 q 394 32 397 36 q 390 18 390 28 q 413 -6 390 -6 q 452 -1 426 -6 q 514 4 478 4 q 578 -1 550 4 q 625 -6 606 -6 q 650 17 650 -6 q 645 32 650 28 q 632 38 640 36 q 613 40 624 39 q 593 47 603 42 q 572 104 572 61 l 572 403 q 524 577 572 518 q 390 636 476 636 q 310 617 349 636 q 243 561 272 597 l 228 543 q 217 535 221 535 q 213 553 213 535 l 213 610 z "},"ñ":{"ha":661,"x_min":36,"x_max":650,"o":"m 213 610 q 208 632 213 625 q 200 639 204 639 q 171 617 188 639 q 114 571 154 594 q 61 540 79 550 q 43 515 43 529 q 52 501 43 501 q 72 497 61 500 q 92 482 83 494 q 101 432 101 469 l 101 104 q 97 64 101 76 q 78 44 93 51 q 62 40 69 40 q 49 38 54 39 q 40 32 43 36 q 36 18 36 28 q 58 -6 36 -6 q 99 -1 74 -6 q 160 4 124 4 q 222 -1 194 4 q 269 -6 250 -6 q 294 15 294 -6 q 290 32 294 28 q 278 38 286 36 q 261 40 271 39 q 239 47 251 40 q 222 67 225 54 q 218 104 218 81 l 218 406 q 251 517 218 481 q 338 553 285 553 q 425 510 394 553 q 456 385 456 468 l 456 104 q 453 66 456 79 q 433 44 450 53 q 417 40 425 40 q 403 38 410 39 q 394 32 397 36 q 390 18 390 28 q 413 -6 390 -6 q 452 -1 426 -6 q 514 4 478 4 q 578 -1 550 4 q 625 -6 606 -6 q 650 17 650 -6 q 645 32 650 28 q 632 38 640 36 q 613 40 624 39 q 593 47 603 42 q 572 104 572 61 l 572 403 q 524 577 572 518 q 390 636 476 636 q 310 617 349 636 q 243 561 272 597 l 228 543 q 217 535 221 535 q 213 553 213 535 l 213 610 m 458 914 q 440 869 450 883 q 407 856 429 856 q 378 863 399 856 l 318 882 q 283 888 303 888 q 176 743 196 888 l 204 743 q 223 791 213 776 q 257 806 233 806 q 270 804 264 806 q 283 800 276 803 l 342 782 q 382 775 365 775 q 488 914 467 775 l 458 914 z "},"#":{"ha":1068,"x_min":71,"x_max":997,"o":"m 528 988 l 415 667 l 179 667 l 150 589 l 386 589 l 318 394 l 100 394 l 71 317 l 290 317 l 178 -1 l 267 -1 l 379 317 l 574 317 l 461 -1 l 551 -1 l 664 317 l 888 317 l 917 394 l 692 394 l 760 589 l 969 589 l 997 667 l 789 667 l 901 988 l 813 988 l 699 667 l 504 667 l 618 988 l 528 988 m 475 589 l 672 589 l 603 394 l 407 394 l 475 589 z "},"o":{"ha":646,"x_min":33,"x_max":611,"o":"m 33 306 q 53 171 33 232 q 110 66 74 110 q 199 -2 147 22 q 313 -26 250 -26 q 438 -3 382 -26 q 531 64 493 21 q 590 168 569 107 q 611 303 611 229 q 591 439 611 378 q 534 544 571 500 q 444 612 497 588 q 328 636 392 636 q 207 613 261 636 q 114 546 153 589 q 54 442 75 503 q 33 306 33 381 m 322 597 q 442 515 396 597 q 489 285 489 432 q 445 84 489 156 q 325 13 401 13 q 203 95 250 13 q 157 325 157 178 q 200 526 157 456 q 322 597 243 597 z "},"ó":{"ha":646,"x_min":33,"x_max":611,"o":"m 33 306 q 53 171 33 232 q 110 66 74 110 q 199 -2 147 22 q 313 -26 250 -26 q 438 -3 382 -26 q 531 64 493 21 q 590 168 569 107 q 611 303 611 229 q 591 439 611 378 q 534 544 571 500 q 444 612 497 588 q 328 636 392 636 q 207 613 261 636 q 114 546 153 589 q 54 442 75 503 q 33 306 33 381 m 322 597 q 442 515 396 597 q 489 285 489 432 q 445 84 489 156 q 325 13 401 13 q 203 95 250 13 q 157 325 157 178 q 200 526 157 456 q 322 597 243 597 m 444 851 q 478 907 478 876 q 466 942 478 929 q 439 956 454 956 q 413 945 424 956 q 386 915 401 935 l 229 711 l 265 711 l 444 851 z "},"ô":{"ha":646,"x_min":33,"x_max":611,"o":"m 33 306 q 53 171 33 232 q 110 66 74 110 q 199 -2 147 22 q 313 -26 250 -26 q 438 -3 382 -26 q 531 64 493 21 q 590 168 569 107 q 611 303 611 229 q 591 439 611 378 q 534 544 571 500 q 444 612 497 588 q 328 636 392 636 q 207 613 261 636 q 114 546 153 589 q 54 442 75 503 q 33 306 33 381 m 322 597 q 442 515 396 597 q 489 285 489 432 q 445 84 489 156 q 325 13 401 13 q 203 95 250 13 q 157 325 157 178 q 200 526 157 456 q 322 597 243 597 m 293 949 l 167 711 l 199 711 l 325 854 l 451 711 l 483 711 l 357 949 l 293 949 z "},"ö":{"ha":646,"x_min":33,"x_max":611,"o":"m 33 306 q 53 171 33 232 q 110 66 74 110 q 199 -2 147 22 q 313 -26 250 -26 q 438 -3 382 -26 q 531 64 493 21 q 590 168 569 107 q 611 303 611 229 q 591 439 611 378 q 534 544 571 500 q 444 612 497 588 q 328 636 392 636 q 207 613 261 636 q 114 546 153 589 q 54 442 75 503 q 33 306 33 381 m 322 597 q 442 515 396 597 q 489 285 489 432 q 445 84 489 156 q 325 13 401 13 q 203 95 250 13 q 157 325 157 178 q 200 526 157 456 q 322 597 243 597 m 129 817 q 149 768 129 788 q 196 749 168 749 q 244 768 224 749 q 264 817 264 788 q 244 865 264 844 q 196 885 224 885 q 149 865 168 885 q 129 817 129 844 m 388 817 q 407 768 388 788 q 454 749 426 749 q 502 768 482 749 q 522 817 522 788 q 502 865 522 844 q 454 885 482 885 q 407 865 426 885 q 388 817 388 844 z "},"œ":{"ha":974,"x_min":33,"x_max":933,"o":"m 306 599 q 420 516 375 599 q 465 285 465 433 q 424 83 465 154 q 311 11 382 11 q 197 94 242 11 q 151 324 151 176 q 193 526 151 454 q 306 599 235 599 m 494 558 q 314 636 425 636 q 199 613 250 636 q 110 546 147 589 q 53 442 74 503 q 33 306 33 381 q 53 171 33 232 q 107 66 72 110 q 190 -2 142 22 q 299 -26 239 -26 q 425 1 372 -26 q 521 86 478 28 l 531 86 q 611 1 564 29 q 717 -26 658 -26 q 800 -9 761 -26 q 868 32 839 8 q 914 81 897 56 q 931 122 931 106 q 919 138 931 138 q 907 125 917 138 q 879 97 897 113 q 834 69 861 82 q 769 57 807 57 q 693 76 728 57 q 634 133 658 96 q 596 221 610 169 q 582 336 582 272 l 582 369 q 584 387 582 382 q 597 392 586 392 l 890 392 q 933 419 933 392 q 919 505 933 465 q 876 574 904 544 q 806 619 847 603 q 711 636 764 636 q 625 617 663 636 q 551 560 588 599 l 535 542 q 521 532 526 532 q 508 543 519 532 l 494 558 m 694 435 l 608 435 q 593 447 593 435 l 593 450 l 597 472 q 642 567 608 529 q 722 604 675 604 q 790 575 763 604 q 818 506 818 546 q 788 449 818 464 q 694 435 757 435 z "},"˛":{"ha":694,"x_min":269,"x_max":471,"o":"m 407 21 q 269 -207 269 -90 q 294 -277 269 -250 q 356 -304 318 -304 q 421 -278 390 -304 q 471 -204 451 -253 l 454 -192 q 390 -240 433 -240 q 351 -219 367 -240 q 336 -160 336 -197 q 433 21 336 -75 l 407 21 z "},"ò":{"ha":646,"x_min":33,"x_max":611,"o":"m 33 306 q 53 171 33 232 q 110 66 74 110 q 199 -2 147 22 q 313 -26 250 -26 q 438 -3 382 -26 q 531 64 493 21 q 590 168 569 107 q 611 303 611 229 q 591 439 611 378 q 534 544 571 500 q 444 612 497 588 q 328 636 392 636 q 207 613 261 636 q 114 546 153 589 q 54 442 75 503 q 33 306 33 381 m 322 597 q 442 515 396 597 q 489 285 489 432 q 445 84 489 156 q 325 13 401 13 q 203 95 250 13 q 157 325 157 178 q 200 526 157 456 q 322 597 243 597 m 264 915 q 238 945 249 935 q 211 956 226 956 q 184 942 196 956 q 172 903 172 928 q 206 851 172 876 l 385 711 l 421 711 l 264 915 z "},"ª":{"ha":397,"x_min":31,"x_max":399,"o":"m 321 781 q 317 828 321 807 q 303 863 314 849 q 273 885 293 878 q 219 892 253 892 q 144 878 179 892 q 85 845 110 865 q 45 801 60 825 q 31 756 31 778 q 37 744 31 749 q 50 739 43 739 q 96 756 82 739 q 121 797 110 774 q 151 845 136 828 q 194 863 167 863 q 228 844 221 863 q 235 785 235 825 l 235 715 q 233 700 235 704 q 224 692 232 696 l 197 679 q 129 644 160 661 q 77 606 99 626 q 44 562 56 586 q 32 506 32 538 q 52 449 32 469 q 106 428 72 428 q 158 442 135 428 q 210 479 182 457 l 232 496 l 238 496 q 311 431 261 431 q 339 438 324 431 q 367 456 354 446 q 390 478 381 467 q 399 497 399 490 q 386 513 399 513 q 367 503 376 513 q 347 493 358 493 q 325 508 329 493 q 321 554 321 524 l 321 781 m 236 653 l 236 576 q 212 514 236 538 q 164 490 188 490 q 135 505 146 490 q 124 547 124 519 q 186 644 124 615 l 219 661 q 231 664 225 664 q 236 653 236 664 z "},"º":{"ha":485,"x_min":25,"x_max":458,"o":"m 25 660 q 40 565 25 608 q 83 492 56 522 q 149 444 111 461 q 235 428 188 428 q 399 491 339 428 q 458 658 458 554 q 443 753 458 710 q 400 827 428 796 q 333 875 372 858 q 246 892 294 892 q 85 828 146 892 q 25 660 25 765 m 242 864 q 332 806 297 864 q 367 644 367 747 q 334 504 367 554 q 244 454 301 454 q 153 513 188 454 q 118 674 118 571 q 151 815 118 765 q 242 864 183 864 z "},"ø":{"ha":646,"x_min":33,"x_max":610,"o":"m 521 739 l 454 610 q 329 638 390 638 q 208 614 263 638 q 114 547 153 590 q 54 442 75 504 q 33 303 33 379 q 146 31 33 131 l 56 -142 l 114 -142 l 190 3 q 313 -26 238 -26 q 531 63 451 -26 q 610 314 610 151 q 497 583 610 483 l 581 739 l 521 739 m 419 546 l 193 118 q 165 216 172 167 q 157 321 157 265 q 201 526 157 454 q 321 599 246 599 q 419 546 383 599 m 451 496 q 480 394 471 447 q 489 283 489 342 q 445 84 489 156 q 324 13 401 13 q 225 67 256 13 l 451 496 z "},"õ":{"ha":646,"x_min":33,"x_max":611,"o":"m 33 306 q 53 171 33 232 q 110 66 74 110 q 199 -2 147 22 q 313 -26 250 -26 q 438 -3 382 -26 q 531 64 493 21 q 590 168 569 107 q 611 303 611 229 q 591 439 611 378 q 534 544 571 500 q 444 612 497 588 q 328 636 392 636 q 207 613 261 636 q 114 546 153 589 q 54 442 75 503 q 33 306 33 381 m 322 597 q 442 515 396 597 q 489 285 489 432 q 445 84 489 156 q 325 13 401 13 q 203 95 250 13 q 157 325 157 178 q 200 526 157 456 q 322 597 243 597 m 451 914 q 433 869 443 883 q 400 856 422 856 q 371 863 392 856 l 311 882 q 276 888 296 888 q 169 743 189 888 l 197 743 q 216 791 206 776 q 250 806 226 806 q 263 804 257 806 q 276 800 269 803 l 335 782 q 375 775 358 775 q 481 914 460 775 l 451 914 z "},"p":{"ha":664,"x_min":18,"x_max":625,"o":"m 214 611 q 200 640 214 640 q 171 619 189 640 q 113 571 153 599 q 59 541 81 549 q 38 517 38 533 q 47 502 38 503 q 69 498 57 501 q 90 482 81 494 q 100 432 100 469 l 100 -196 q 94 -236 100 -224 q 69 -256 88 -249 q 33 -264 49 -264 q 18 -283 18 -264 q 43 -306 18 -306 q 90 -301 63 -306 q 154 -297 118 -297 q 222 -301 190 -297 q 281 -306 253 -306 q 310 -286 310 -306 q 304 -269 310 -274 q 290 -264 299 -265 q 267 -261 281 -262 q 240 -253 254 -260 q 219 -233 224 -246 q 215 -196 215 -221 l 217 1 l 222 6 q 343 -26 278 -26 q 457 -1 406 -26 q 546 72 508 25 q 604 182 583 118 q 625 324 625 246 q 607 453 625 394 q 558 551 589 511 q 486 614 528 592 q 399 636 444 636 q 317 617 354 636 q 243 557 279 599 l 229 540 q 218 533 222 533 q 214 543 214 533 l 214 611 m 217 146 l 217 404 q 242 508 217 474 q 326 542 268 542 q 458 474 406 542 q 510 282 510 406 q 497 174 510 224 q 459 90 483 125 q 401 35 435 54 q 328 15 368 15 q 246 47 275 15 q 217 146 217 79 z "},"¶":{"ha":694,"x_min":51,"x_max":643,"o":"m 643 1003 l 318 1003 q 208 985 257 1003 q 124 937 158 968 q 70 862 89 906 q 51 767 51 818 q 119 601 51 665 q 306 531 186 536 l 306 0 l 369 0 l 369 950 l 494 950 l 494 0 l 558 0 l 558 950 l 643 950 l 643 1003 z "},"(":{"ha":432,"x_min":103,"x_max":440,"o":"m 425 900 q 371 872 414 900 q 278 783 328 843 q 148 558 193 683 q 103 290 103 433 q 153 7 103 139 q 294 -224 204 -125 q 377 -297 340 -274 q 425 -321 414 -321 q 440 -310 440 -321 q 432 -296 440 -301 q 409 -280 424 -290 q 376 -253 394 -269 q 339 -207 358 -236 q 251 3 283 -124 q 218 290 218 129 q 251 578 218 453 q 339 786 285 703 q 376 832 358 815 q 409 858 394 849 q 432 874 424 868 q 440 889 440 881 q 425 900 440 900 z "},")":{"ha":432,"x_min":-8,"x_max":329,"o":"m 7 900 q -8 889 -8 900 q 1 874 -8 881 q 26 856 11 868 q 63 825 42 844 q 104 771 83 806 q 185 563 156 685 q 214 290 214 442 q 181 1 214 126 q 93 -207 147 -125 q 56 -253 74 -236 q 23 -279 38 -269 q 0 -295 8 -289 q -8 -310 -8 -301 q 7 -321 -8 -321 q 60 -293 18 -321 q 154 -204 103 -265 q 284 22 239 -104 q 329 290 329 147 q 284 558 329 433 q 154 783 239 683 q 60 872 103 844 q 7 900 18 900 z "},"%":{"ha":854,"x_min":58,"x_max":796,"o":"m 240 900 q 172 883 204 900 q 114 835 139 865 q 74 762 89 804 q 58 669 58 719 q 74 581 58 621 q 114 511 89 540 q 172 466 139 482 q 240 450 204 450 q 308 467 275 450 q 366 514 340 483 q 407 587 392 544 q 422 681 422 629 q 408 767 422 726 q 368 836 393 807 q 310 883 343 865 q 240 900 278 900 m 679 900 l 117 -26 l 174 -26 l 738 900 l 679 900 m 236 856 q 306 805 276 856 q 335 665 335 754 q 309 536 335 582 q 243 490 283 490 q 174 542 203 490 q 146 685 146 594 q 171 810 146 765 q 236 856 196 856 m 614 424 q 545 406 578 424 q 488 358 513 389 q 447 285 463 328 q 432 193 432 243 q 447 104 432 144 q 486 35 461 64 q 544 -10 511 6 q 614 -26 578 -26 q 681 -9 649 -26 q 740 39 714 8 q 781 112 765 69 q 796 204 796 154 q 781 292 796 251 q 742 361 767 332 q 684 407 717 390 q 614 424 651 424 m 611 382 q 679 331 650 382 q 708 193 708 281 q 683 63 708 108 q 617 17 657 17 q 548 67 576 17 q 519 210 519 118 q 545 336 519 290 q 611 382 571 382 z "},".":{"ha":304,"x_min":90,"x_max":213,"o":"m 151 133 q 109 113 128 133 q 90 60 90 92 q 109 7 90 28 q 151 -14 128 -14 q 194 7 175 -14 q 213 60 213 28 q 194 113 213 92 q 151 133 175 133 z "},"·":{"ha":304,"x_min":94,"x_max":210,"o":"m 151 510 q 111 490 128 510 q 94 438 94 469 q 111 385 94 406 q 151 364 128 364 q 192 385 175 364 q 210 438 210 406 q 192 490 210 469 q 151 510 175 510 z "},"‰":{"ha":1271,"x_min":58,"x_max":1213,"o":"m 240 900 q 172 883 204 900 q 114 835 139 865 q 74 762 89 804 q 58 669 58 719 q 74 581 58 621 q 114 511 89 540 q 172 466 139 482 q 240 450 204 450 q 308 467 275 450 q 366 514 340 483 q 407 587 392 544 q 422 681 422 629 q 408 767 422 726 q 368 836 393 807 q 310 883 343 865 q 240 900 278 900 m 679 900 l 117 -26 l 174 -26 l 738 900 l 679 900 m 236 856 q 306 805 276 856 q 335 665 335 754 q 309 536 335 582 q 243 490 283 490 q 174 542 203 490 q 146 685 146 594 q 171 810 146 765 q 236 856 196 856 m 614 424 q 545 406 578 424 q 488 358 513 389 q 447 285 463 328 q 432 193 432 243 q 447 104 432 144 q 486 35 461 64 q 544 -10 511 6 q 614 -26 578 -26 q 681 -9 649 -26 q 740 39 714 8 q 781 112 765 69 q 796 204 796 154 q 781 292 796 251 q 742 361 767 332 q 684 407 717 390 q 614 424 651 424 m 1031 424 q 962 406 994 424 q 904 358 929 389 q 864 285 879 328 q 849 193 849 243 q 864 104 849 144 q 904 35 879 64 q 962 -10 929 6 q 1031 -26 994 -26 q 1098 -9 1065 -26 q 1156 39 1131 8 q 1197 112 1182 69 q 1213 204 1213 154 q 1198 292 1213 251 q 1158 361 1183 332 q 1100 407 1133 390 q 1031 424 1067 424 m 611 382 q 679 331 650 382 q 708 193 708 281 q 683 63 708 108 q 617 17 657 17 q 548 67 576 17 q 519 210 519 118 q 545 336 519 290 q 611 382 571 382 m 1028 382 q 1097 331 1068 382 q 1126 190 1126 279 q 1101 62 1126 107 q 1035 17 1075 17 q 965 68 994 17 q 936 210 936 119 q 962 336 936 290 q 1028 382 988 382 z "},"+":{"ha":1157,"x_min":172,"x_max":985,"o":"m 539 828 l 539 454 l 172 454 l 172 375 l 539 375 l 539 0 l 619 0 l 619 375 l 985 375 l 985 454 l 619 454 l 619 828 l 539 828 z "},"±":{"ha":1157,"x_min":172,"x_max":985,"o":"m 539 800 l 539 567 l 172 567 l 172 488 l 539 488 l 539 254 l 619 254 l 619 488 l 985 488 l 985 567 l 619 567 l 619 800 l 539 800 m 172 107 l 172 28 l 985 28 l 985 107 l 172 107 z "},"q":{"ha":628,"x_min":33,"x_max":640,"o":"m 443 450 l 443 122 q 357 39 443 39 q 213 107 265 39 q 160 299 160 175 q 174 422 160 367 q 211 516 188 478 q 267 575 235 554 q 335 596 299 596 q 443 450 443 596 m 560 408 q 565 558 560 501 q 571 638 571 615 q 566 657 571 651 q 554 663 561 663 q 539 651 546 663 q 524 627 532 640 q 509 603 517 614 q 490 592 501 592 q 466 599 481 592 q 431 614 451 606 q 385 629 411 622 q 324 636 358 636 q 208 611 261 636 q 117 540 156 586 q 56 432 78 494 q 33 294 33 369 q 53 161 33 221 q 109 60 74 101 q 190 -4 144 18 q 289 -26 236 -26 q 435 24 353 -26 l 443 18 l 443 -196 q 438 -233 443 -222 q 410 -253 433 -244 q 364 -264 381 -264 q 347 -283 347 -264 q 376 -306 347 -306 q 433 -300 400 -306 q 501 -294 465 -294 q 567 -300 539 -294 q 615 -306 596 -306 q 640 -283 640 -306 q 635 -269 640 -274 q 623 -263 631 -265 q 604 -259 615 -261 q 581 -250 593 -257 q 563 -229 565 -242 q 560 -196 560 -217 l 560 408 z "},"?":{"ha":381,"x_min":54,"x_max":354,"o":"m 147 872 q 54 811 54 872 q 64 742 54 767 q 88 717 74 717 q 117 733 104 717 q 143 768 129 749 q 174 803 157 788 q 214 819 190 819 q 263 787 242 819 q 283 703 283 754 q 255 611 283 651 q 175 522 226 571 q 124 474 144 493 q 103 424 103 454 q 114 275 103 332 q 139 218 125 218 q 153 230 151 218 q 156 258 156 242 q 159 294 157 275 q 172 329 161 314 q 216 372 186 349 q 278 432 246 394 q 354 625 354 518 q 339 725 354 679 q 297 803 324 771 q 231 854 269 836 q 147 872 193 872 m 146 133 q 104 113 122 133 q 86 60 86 92 q 104 7 86 28 q 146 -14 122 -14 q 188 7 169 -14 q 207 60 207 28 q 188 113 207 92 q 146 133 169 133 z "},"¿":{"ha":381,"x_min":40,"x_max":340,"o":"m 251 872 q 209 851 228 872 q 190 799 190 831 q 209 746 190 767 q 251 725 228 725 q 293 746 275 725 q 311 799 311 767 q 293 851 311 831 q 251 872 275 872 m 40 233 q 56 133 40 179 q 98 55 71 88 q 163 4 125 22 q 247 -14 201 -14 q 318 0 296 -14 q 340 47 340 14 q 331 117 340 92 q 307 142 321 142 q 278 126 292 142 q 251 90 265 110 q 221 55 238 71 q 181 39 204 39 q 132 71 153 39 q 111 156 111 103 q 140 248 111 208 q 219 336 168 288 q 270 384 250 364 q 290 435 290 404 q 280 583 290 526 q 256 640 269 640 q 241 629 243 640 q 238 601 239 618 q 235 565 238 585 q 222 529 233 546 q 178 485 207 508 q 117 426 149 463 q 59 336 78 382 q 40 233 40 290 z "},"\"":{"ha":460,"x_min":61,"x_max":399,"o":"m 129 586 l 174 896 q 176 911 175 904 q 176 924 176 918 q 161 974 176 957 q 118 992 146 992 q 61 924 61 992 q 62 910 61 917 q 64 896 63 903 l 107 586 l 129 586 m 351 586 l 397 896 q 399 911 399 904 q 399 924 399 918 q 342 992 399 992 q 299 974 314 992 q 283 922 283 957 q 284 909 283 915 q 286 896 285 903 l 331 586 l 351 586 z "},"„":{"ha":458,"x_min":51,"x_max":397,"o":"m 110 128 q 69 108 86 128 q 51 58 51 88 q 100 -8 51 1 q 128 -16 115 -11 q 142 -43 142 -21 q 130 -92 142 -69 q 104 -133 118 -115 q 78 -165 90 -151 q 67 -187 67 -179 q 81 -201 67 -201 q 109 -183 90 -201 q 146 -136 128 -165 q 177 -69 164 -107 q 190 7 190 -32 q 169 97 190 65 q 110 128 147 128 m 317 128 q 276 108 293 128 q 258 58 258 88 q 307 -8 258 1 q 335 -16 322 -11 q 349 -43 349 -21 q 337 -92 349 -69 q 311 -133 325 -115 q 285 -165 297 -151 q 274 -187 274 -179 q 288 -201 274 -201 q 316 -183 297 -201 q 353 -136 335 -165 q 384 -69 371 -107 q 397 7 397 -32 q 376 97 397 65 q 317 128 354 128 z "},"“":{"ha":458,"x_min":54,"x_max":400,"o":"m 54 690 q 76 601 54 632 q 131 571 97 571 q 176 591 158 571 q 193 640 193 611 q 144 707 193 697 q 115 716 128 711 q 103 744 103 721 q 115 792 103 769 q 140 832 126 814 q 166 864 154 850 q 178 886 178 878 q 164 900 178 900 q 135 882 154 900 q 99 835 117 864 q 67 767 81 806 q 54 690 54 729 m 261 690 q 283 601 261 632 q 338 571 304 571 q 383 591 365 571 q 400 640 400 611 q 351 707 400 697 q 322 716 335 711 q 310 744 310 721 q 322 792 310 769 q 347 832 333 814 q 373 864 361 850 q 385 886 385 878 q 371 900 385 900 q 342 882 361 900 q 306 835 324 864 q 274 767 288 806 q 261 690 261 729 z "},"”":{"ha":458,"x_min":57,"x_max":403,"o":"m 115 899 q 74 879 92 899 q 57 831 57 860 q 104 764 57 774 q 134 755 121 761 q 147 728 147 749 q 135 678 147 701 q 110 638 124 656 q 84 606 96 619 q 72 583 72 592 q 85 569 72 569 q 113 588 94 569 q 150 635 132 606 q 182 701 168 664 q 196 779 196 739 q 174 868 196 838 q 115 899 153 899 m 322 899 q 281 879 299 899 q 264 831 264 860 q 313 764 264 774 q 342 755 329 761 q 354 728 354 749 q 342 678 354 701 q 317 638 331 656 q 291 606 303 619 q 279 583 279 592 q 292 569 279 569 q 320 588 301 569 q 357 635 339 606 q 389 703 375 665 q 403 779 403 740 q 381 868 403 838 q 322 899 360 899 z "},"‘":{"ha":304,"x_min":83,"x_max":221,"o":"m 83 690 q 105 601 83 632 q 160 571 126 571 q 203 590 186 571 q 221 639 221 610 q 174 707 221 697 q 144 716 157 711 q 132 744 132 721 q 144 792 132 769 q 169 832 156 814 q 194 864 182 850 q 206 886 206 878 q 193 900 206 900 q 165 882 183 900 q 128 835 146 864 q 97 768 110 806 q 83 690 83 731 z "},"’":{"ha":304,"x_min":85,"x_max":224,"o":"m 143 899 q 102 879 119 899 q 85 831 85 860 q 133 764 85 774 q 163 755 150 761 q 175 728 175 749 q 163 678 175 701 q 138 638 151 656 q 112 606 124 619 q 100 583 100 592 q 114 569 100 569 q 142 588 124 569 q 179 635 161 606 q 210 701 197 664 q 224 779 224 739 q 202 868 224 838 q 143 899 181 899 z "},"‚":{"ha":304,"x_min":78,"x_max":217,"o":"m 138 128 q 96 108 114 128 q 78 58 78 88 q 126 -8 78 1 q 155 -16 142 -11 q 168 -43 168 -21 q 156 -92 168 -69 q 131 -133 144 -115 q 105 -165 117 -151 q 93 -187 93 -179 q 107 -201 93 -201 q 135 -183 117 -201 q 172 -136 154 -165 q 203 -69 190 -107 q 217 7 217 -32 q 196 97 217 65 q 138 128 175 128 z "},"'":{"ha":236,"x_min":61,"x_max":176,"o":"m 129 586 l 174 896 q 176 911 175 904 q 176 924 176 918 q 161 974 176 957 q 118 992 146 992 q 61 922 61 992 q 61 908 61 915 q 63 896 61 903 l 107 586 l 129 586 z "},"r":{"ha":431,"x_min":18,"x_max":439,"o":"m 210 611 q 196 640 210 640 q 165 617 183 640 q 106 567 146 594 q 58 540 76 547 q 40 517 40 532 q 49 502 40 504 q 69 497 58 500 q 88 486 79 494 q 97 453 97 478 l 97 97 q 94 67 97 78 q 71 47 90 57 q 50 40 60 42 q 33 37 40 39 q 22 31 26 35 q 18 18 18 28 q 43 -4 18 -4 q 94 0 65 -4 q 156 4 122 4 q 224 -1 192 4 q 285 -6 257 -6 q 308 1 300 -6 q 315 15 315 7 q 310 31 315 26 q 295 37 304 35 q 272 41 286 39 q 242 51 258 43 q 219 70 225 58 q 214 106 214 82 l 214 407 q 265 538 214 538 q 288 527 276 538 q 311 504 299 517 q 339 481 324 492 q 375 471 354 471 q 420 490 401 471 q 439 540 439 510 q 413 610 439 582 q 349 638 386 638 q 254 585 299 638 l 226 554 q 214 544 217 544 q 210 557 210 544 l 210 611 z "},"®":{"ha":1142,"x_min":94,"x_max":1047,"o":"m 572 938 q 388 901 476 938 q 233 797 300 865 q 130 642 165 728 q 94 460 94 556 q 130 276 94 363 q 235 122 165 190 q 389 19 304 54 q 567 -17 474 -17 q 751 18 667 -17 q 903 119 836 53 q 1010 278 974 190 q 1047 458 1047 367 q 1012 642 1047 554 q 910 797 976 731 q 755 901 843 864 q 572 938 667 938 m 572 883 q 731 851 654 883 q 867 760 808 818 q 957 622 925 701 q 989 460 989 543 q 958 300 989 376 q 865 161 926 224 q 731 69 806 100 q 571 39 657 39 q 276 161 399 39 q 153 460 153 285 q 184 621 153 544 q 275 758 215 697 q 412 851 335 818 q 572 883 489 883 m 318 740 l 318 711 q 385 695 367 708 q 404 643 404 682 l 404 293 q 385 241 404 256 q 318 225 367 226 l 318 197 l 579 197 l 579 225 q 513 242 531 228 q 494 293 494 256 l 494 461 l 517 461 q 657 371 631 461 q 662 339 661 356 q 663 303 663 322 q 667 266 664 285 q 678 229 669 247 q 764 185 700 185 q 872 306 872 185 l 872 314 l 843 314 q 797 224 843 224 q 774 232 781 224 q 763 255 767 240 q 758 288 760 269 q 750 326 756 306 q 702 417 735 385 q 606 469 669 450 q 753 519 706 488 q 800 604 800 551 q 744 703 800 665 q 585 740 689 740 l 318 740 m 494 488 l 494 665 q 565 714 494 714 q 665 683 631 714 q 699 604 699 651 q 658 517 699 549 q 539 486 618 486 q 522 486 533 486 q 494 488 511 486 z "},"˚":{"ha":694,"x_min":185,"x_max":511,"o":"m 185 863 q 197 798 185 828 q 231 746 210 768 q 283 711 253 724 q 347 699 313 699 q 412 711 382 699 q 464 746 442 724 q 499 798 486 768 q 511 863 511 828 q 498 926 511 896 q 463 978 485 956 q 410 1013 440 1000 q 347 1025 381 1025 q 284 1013 314 1025 q 232 978 254 1000 q 197 926 210 956 q 185 863 185 896 m 246 863 q 276 934 246 904 q 347 964 306 964 q 419 934 389 964 q 449 863 449 904 q 419 790 449 819 q 347 761 389 761 q 275 790 304 761 q 246 863 246 819 z "},"s":{"ha":456,"x_min":40,"x_max":417,"o":"m 235 636 q 98 585 151 636 q 44 449 44 535 q 53 388 44 414 q 81 342 63 363 q 125 305 99 322 q 186 269 151 288 q 242 238 217 253 q 284 208 267 224 q 310 172 301 192 q 319 125 319 151 q 291 43 319 74 q 218 13 263 13 q 107 97 146 13 q 91 140 96 121 q 83 172 86 158 q 75 192 79 185 q 61 199 71 199 q 43 173 46 199 q 40 90 40 147 l 40 56 q 43 25 40 36 q 58 7 46 14 q 115 -16 78 -6 q 200 -26 153 -26 q 287 -11 247 -26 q 356 33 326 4 q 401 103 385 61 q 417 197 417 144 q 385 310 417 265 q 285 392 353 356 q 227 422 253 408 q 183 449 201 435 q 156 478 165 463 q 146 518 146 494 q 170 577 146 554 q 235 600 194 600 q 326 540 292 600 q 346 492 343 511 q 364 472 349 472 q 382 495 378 472 q 386 567 386 518 q 354 619 386 603 q 235 636 322 636 z "},"§":{"ha":556,"x_min":74,"x_max":482,"o":"m 292 590 q 220 678 247 639 q 193 765 193 718 q 219 842 193 813 q 285 871 244 871 q 339 855 317 871 q 361 822 361 839 q 356 805 361 814 q 343 787 350 796 q 331 766 336 778 q 325 740 325 754 q 340 701 325 717 q 375 686 354 686 q 415 705 399 686 q 431 758 431 724 q 389 860 431 819 q 286 900 347 900 q 169 851 213 900 q 126 726 126 801 q 153 624 126 671 q 232 524 181 576 l 219 524 q 163 510 189 524 q 116 475 136 497 q 85 422 96 453 q 74 357 74 392 q 98 257 74 304 q 169 160 122 210 l 267 54 q 337 -34 311 6 q 363 -115 363 -74 q 334 -191 363 -161 q 260 -221 306 -221 q 198 -206 219 -221 q 176 -175 176 -192 q 182 -160 176 -167 q 194 -144 188 -153 q 206 -123 200 -135 q 211 -94 211 -111 q 196 -52 211 -68 q 160 -36 181 -36 q 121 -56 136 -36 q 106 -112 106 -76 q 117 -165 106 -140 q 149 -209 128 -190 q 198 -240 169 -228 q 261 -251 226 -251 q 328 -238 297 -251 q 382 -202 360 -225 q 417 -148 404 -179 q 429 -81 429 -117 q 402 21 429 -29 q 321 124 375 71 q 328 123 325 124 q 336 122 332 122 q 440 170 399 122 q 482 292 482 218 q 458 390 482 342 q 388 489 435 439 l 292 590 m 225 496 q 279 473 254 496 q 342 408 304 450 q 419 256 419 322 q 393 183 419 211 q 331 154 367 154 q 270 183 301 154 q 196 265 239 211 q 151 332 167 301 q 136 392 136 363 q 162 466 136 436 q 225 496 188 496 z "},";":{"ha":329,"x_min":93,"x_max":238,"o":"m 156 521 q 114 500 132 521 q 96 447 96 479 q 114 394 96 415 q 156 374 132 374 q 198 394 179 374 q 217 447 217 415 q 198 500 217 479 q 156 521 179 521 m 93 57 q 104 15 93 33 q 132 -10 115 -3 q 154 -15 144 -15 q 171 -15 164 -14 q 181 -24 178 -17 q 185 -49 185 -31 q 171 -121 185 -90 q 141 -173 157 -151 q 111 -209 125 -194 q 97 -233 97 -224 q 110 -247 97 -247 q 140 -227 119 -247 q 183 -173 161 -207 q 221 -93 204 -139 q 238 6 238 -47 q 215 96 238 64 q 158 128 193 128 q 112 108 131 128 q 93 57 93 88 z "},"/":{"ha":308,"x_min":-22,"x_max":365,"o":"m 322 900 l -22 -129 l 22 -129 l 365 900 l 322 900 z "},"Á":{"ha":638,"x_min":-51,"x_max":675,"o":"m 346 835 q 332 882 336 864 q 313 900 328 900 q 298 891 301 900 q 289 867 294 882 l 68 150 q 47 87 57 113 q 18 47 38 61 q -5 38 7 39 q -27 35 -17 36 q -44 30 -37 33 q -51 15 -51 26 q -26 -3 -51 -3 q 12 1 -11 -3 q 65 4 35 4 q 140 0 110 4 q 186 -4 171 -4 q 210 13 210 -4 q 196 33 210 28 q 154 43 182 39 q 126 53 135 46 q 118 81 118 60 q 139 188 118 106 l 172 311 q 178 320 174 317 q 188 324 183 324 l 360 324 q 381 313 378 324 l 435 135 q 447 72 447 90 q 436 46 447 53 q 390 39 425 39 q 363 17 363 39 q 386 0 363 0 q 435 3 400 0 q 529 7 471 7 q 599 3 571 7 q 646 -1 628 -1 q 675 18 675 -1 q 659 33 675 31 q 624 49 643 35 q 583 96 596 67 q 556 174 571 125 l 346 835 m 278 643 l 353 401 q 356 388 356 390 q 351 380 356 383 q 343 376 347 376 l 204 376 q 194 385 194 376 q 194 389 194 386 q 196 399 194 393 l 261 644 q 269 656 264 656 q 278 643 274 656 m 440 1115 q 474 1171 474 1140 q 462 1206 474 1193 q 435 1219 450 1219 q 408 1209 419 1219 q 382 1179 397 1199 l 225 975 l 261 975 l 440 1115 z "},"£":{"ha":607,"x_min":6,"x_max":579,"o":"m 336 447 q 253 614 285 544 q 221 739 221 683 q 249 819 221 786 q 314 851 276 851 q 356 833 339 851 q 387 792 374 814 q 411 751 400 769 q 435 732 422 732 q 451 740 443 732 q 467 761 460 749 q 478 789 474 774 q 482 819 482 804 q 447 874 482 856 q 356 892 411 892 q 265 873 307 892 q 190 822 222 854 q 138 745 157 789 q 119 651 119 701 q 137 555 119 604 q 186 447 154 506 l 86 447 q 71 401 71 421 l 71 396 l 213 396 q 267 235 267 304 q 258 189 267 214 q 197 213 225 204 q 144 222 168 222 q 46 185 86 222 q 6 94 6 149 q 35 15 6 46 q 114 -15 65 -15 q 268 83 194 -15 q 338 8 307 33 q 401 -18 369 -18 q 465 6 433 -18 q 522 65 497 29 q 563 142 547 100 q 579 222 579 185 q 560 295 579 269 q 514 321 542 321 q 478 303 492 321 q 464 260 464 285 q 474 222 464 236 q 495 197 483 207 q 517 176 507 186 q 526 151 526 165 q 511 119 526 133 q 476 106 496 106 q 423 119 461 106 q 326 165 385 133 q 357 247 346 208 q 368 329 368 286 q 367 353 368 336 q 361 396 365 369 l 469 396 q 488 440 488 413 l 488 447 l 336 447 m 239 113 q 203 64 224 81 q 163 47 182 47 q 124 67 140 47 q 108 111 108 86 q 122 159 108 142 q 156 176 135 176 q 195 160 175 176 q 239 113 215 144 z "},"t":{"ha":361,"x_min":22,"x_max":354,"o":"m 204 714 q 202 738 204 729 q 190 747 200 747 q 162 719 178 747 q 113 653 146 692 q 77 619 93 632 q 49 599 61 607 q 29 583 36 590 q 22 568 22 576 q 47 550 22 550 l 72 550 q 89 538 86 550 q 92 507 92 526 l 86 208 l 86 150 q 197 -26 86 -26 q 258 -15 229 -26 q 308 14 286 -3 q 342 47 329 31 q 354 74 354 64 q 340 93 354 93 q 326 88 333 93 q 308 74 318 82 q 287 61 299 67 q 260 56 275 56 q 216 85 228 56 q 204 181 204 115 l 204 532 q 221 550 204 550 l 326 550 q 342 554 339 550 q 344 569 344 558 l 344 597 q 342 608 344 606 q 326 611 339 611 l 222 611 q 204 629 204 611 l 204 714 z "},"˜":{"ha":694,"x_min":192,"x_max":503,"o":"m 474 914 q 455 869 465 883 q 422 856 444 856 q 393 863 414 856 l 333 882 q 299 888 318 888 q 192 743 211 888 l 219 743 q 238 791 228 776 q 272 806 249 806 q 285 804 279 806 q 299 800 292 803 l 357 782 q 397 775 381 775 q 503 914 482 775 l 474 914 z "},"™":{"ha":1142,"x_min":165,"x_max":972,"o":"m 174 975 l 165 854 l 183 854 q 210 932 189 907 q 276 957 232 957 l 290 957 l 290 668 q 260 632 290 635 l 239 631 l 239 613 l 407 613 l 407 631 l 386 632 q 356 668 356 635 l 356 957 l 369 957 q 435 932 414 957 q 463 854 457 907 l 479 854 l 472 975 l 174 975 m 535 975 l 535 957 l 556 956 q 578 945 569 954 q 588 919 588 936 l 588 668 q 557 632 588 635 l 535 631 l 535 613 l 668 613 l 668 631 l 647 632 q 624 642 633 633 q 615 668 615 651 l 615 936 l 733 611 l 743 611 l 864 936 l 864 668 q 833 632 864 635 l 813 631 l 813 613 l 972 613 l 972 631 l 953 632 q 921 668 921 635 l 921 921 q 953 957 921 954 l 972 958 l 972 975 l 854 975 l 754 704 l 658 975 l 535 975 z "},"u":{"ha":661,"x_min":13,"x_max":624,"o":"m 207 589 q 203 607 207 601 q 186 613 200 613 q 167 610 179 613 q 136 608 154 608 q 80 613 104 608 q 38 618 56 618 q 13 596 13 618 q 24 578 13 581 q 51 571 36 575 q 78 554 65 567 q 90 508 90 542 l 90 186 q 140 34 90 90 q 274 -22 190 -22 q 354 -3 315 -22 q 421 51 393 17 l 435 69 q 447 79 442 79 q 451 60 451 79 l 451 3 q 468 -26 451 -26 q 571 4 482 -26 q 610 19 596 13 q 624 40 624 26 q 614 55 624 54 q 592 58 604 56 q 571 73 581 61 q 561 121 561 85 l 561 589 q 558 607 561 601 q 540 613 554 613 q 522 611 533 613 q 490 610 510 610 q 430 615 454 610 q 392 619 406 619 q 368 596 368 619 q 373 581 368 585 q 385 576 378 578 q 403 572 393 574 q 425 563 414 569 q 442 543 438 554 q 446 508 446 532 l 446 207 q 412 96 446 132 q 324 60 378 60 q 238 102 269 60 q 207 219 207 144 l 207 589 z "},"ú":{"ha":661,"x_min":13,"x_max":624,"o":"m 207 589 q 203 607 207 601 q 186 613 200 613 q 167 610 179 613 q 136 608 154 608 q 80 613 104 608 q 38 618 56 618 q 13 596 13 618 q 24 578 13 581 q 51 571 36 575 q 78 554 65 567 q 90 508 90 542 l 90 186 q 140 34 90 90 q 274 -22 190 -22 q 354 -3 315 -22 q 421 51 393 17 l 435 69 q 447 79 442 79 q 451 60 451 79 l 451 3 q 468 -26 451 -26 q 571 4 482 -26 q 610 19 596 13 q 624 40 624 26 q 614 55 624 54 q 592 58 604 56 q 571 73 581 61 q 561 121 561 85 l 561 589 q 558 607 561 601 q 540 613 554 613 q 522 611 533 613 q 490 610 510 610 q 430 615 454 610 q 392 619 406 619 q 368 596 368 619 q 373 581 368 585 q 385 576 378 578 q 403 572 393 574 q 425 563 414 569 q 442 543 438 554 q 446 508 446 532 l 446 207 q 412 96 446 132 q 324 60 378 60 q 238 102 269 60 q 207 219 207 144 l 207 589 m 451 851 q 485 907 485 876 q 473 942 485 929 q 446 956 461 956 q 419 945 431 956 q 393 915 408 935 l 236 711 l 272 711 l 451 851 z "},"û":{"ha":661,"x_min":13,"x_max":624,"o":"m 207 589 q 203 607 207 601 q 186 613 200 613 q 167 610 179 613 q 136 608 154 608 q 80 613 104 608 q 38 618 56 618 q 13 596 13 618 q 24 578 13 581 q 51 571 36 575 q 78 554 65 567 q 90 508 90 542 l 90 186 q 140 34 90 90 q 274 -22 190 -22 q 354 -3 315 -22 q 421 51 393 17 l 435 69 q 447 79 442 79 q 451 60 451 79 l 451 3 q 468 -26 451 -26 q 571 4 482 -26 q 610 19 596 13 q 624 40 624 26 q 614 55 624 54 q 592 58 604 56 q 571 73 581 61 q 561 121 561 85 l 561 589 q 558 607 561 601 q 540 613 554 613 q 522 611 533 613 q 490 610 510 610 q 430 615 454 610 q 392 619 406 619 q 368 596 368 619 q 373 581 368 585 q 385 576 378 578 q 403 572 393 574 q 425 563 414 569 q 442 543 438 554 q 446 508 446 532 l 446 207 q 412 96 446 132 q 324 60 378 60 q 238 102 269 60 q 207 219 207 144 l 207 589 m 300 949 l 174 711 l 206 711 l 332 854 l 458 711 l 490 711 l 364 949 l 300 949 z "},"ü":{"ha":661,"x_min":13,"x_max":624,"o":"m 207 589 q 203 607 207 601 q 186 613 200 613 q 167 610 179 613 q 136 608 154 608 q 80 613 104 608 q 38 618 56 618 q 13 596 13 618 q 24 578 13 581 q 51 571 36 575 q 78 554 65 567 q 90 508 90 542 l 90 186 q 140 34 90 90 q 274 -22 190 -22 q 354 -3 315 -22 q 421 51 393 17 l 435 69 q 447 79 442 79 q 451 60 451 79 l 451 3 q 468 -26 451 -26 q 571 4 482 -26 q 610 19 596 13 q 624 40 624 26 q 614 55 624 54 q 592 58 604 56 q 571 73 581 61 q 561 121 561 85 l 561 589 q 558 607 561 601 q 540 613 554 613 q 522 611 533 613 q 490 610 510 610 q 430 615 454 610 q 392 619 406 619 q 368 596 368 619 q 373 581 368 585 q 385 576 378 578 q 403 572 393 574 q 425 563 414 569 q 442 543 438 554 q 446 508 446 532 l 446 207 q 412 96 446 132 q 324 60 378 60 q 238 102 269 60 q 207 219 207 144 l 207 589 m 136 817 q 156 768 136 788 q 203 749 175 749 q 251 768 231 749 q 271 817 271 788 q 251 865 271 844 q 203 885 231 885 q 156 865 175 885 q 136 817 136 844 m 394 817 q 414 768 394 788 q 461 749 433 749 q 509 768 489 749 q 529 817 529 788 q 509 865 529 844 q 461 885 489 885 q 414 865 433 885 q 394 817 394 844 z "},"ù":{"ha":661,"x_min":13,"x_max":624,"o":"m 207 589 q 203 607 207 601 q 186 613 200 613 q 167 610 179 613 q 136 608 154 608 q 80 613 104 608 q 38 618 56 618 q 13 596 13 618 q 24 578 13 581 q 51 571 36 575 q 78 554 65 567 q 90 508 90 542 l 90 186 q 140 34 90 90 q 274 -22 190 -22 q 354 -3 315 -22 q 421 51 393 17 l 435 69 q 447 79 442 79 q 451 60 451 79 l 451 3 q 468 -26 451 -26 q 571 4 482 -26 q 610 19 596 13 q 624 40 624 26 q 614 55 624 54 q 592 58 604 56 q 571 73 581 61 q 561 121 561 85 l 561 589 q 558 607 561 601 q 540 613 554 613 q 522 611 533 613 q 490 610 510 610 q 430 615 454 610 q 392 619 406 619 q 368 596 368 619 q 373 581 368 585 q 385 576 378 578 q 403 572 393 574 q 425 563 414 569 q 442 543 438 554 q 446 508 446 532 l 446 207 q 412 96 446 132 q 324 60 378 60 q 238 102 269 60 q 207 219 207 144 l 207 589 m 271 915 q 244 945 256 935 q 218 956 233 956 q 191 942 203 956 q 179 903 179 928 q 213 851 179 876 l 392 711 l 428 711 l 271 915 z "},"_":{"ha":694,"x_min":0,"x_max":694,"o":"m 0 -247 l 0 -328 l 694 -328 l 694 -247 l 0 -247 z "},"v":{"ha":513,"x_min":-19,"x_max":551,"o":"m 201 460 q 188 513 192 492 q 185 544 185 535 q 195 565 185 560 q 218 574 206 571 q 241 580 231 576 q 251 596 251 583 q 235 611 251 611 q 197 608 228 611 q 108 604 167 604 q 36 608 63 604 q 0 613 10 613 q -19 594 -19 613 q -10 579 -19 582 q 13 569 -1 576 q 42 544 26 563 q 72 482 58 525 l 224 15 q 232 -8 229 0 q 247 -17 235 -17 q 274 14 263 -17 l 435 457 q 469 533 454 508 q 507 568 483 558 q 538 575 524 575 q 551 594 551 575 q 548 608 551 606 q 532 611 544 611 q 508 609 526 611 q 453 607 489 607 q 382 610 410 607 q 343 613 354 613 q 324 610 329 613 q 319 594 319 607 q 333 578 319 581 q 361 572 346 575 q 390 560 376 568 q 403 531 403 553 q 399 500 403 521 q 386 450 396 479 l 300 192 q 293 183 297 183 q 285 192 286 183 l 201 460 z "},"w":{"ha":840,"x_min":-21,"x_max":879,"o":"m 507 460 q 491 512 496 490 q 486 544 486 533 q 499 565 486 560 q 528 574 513 571 q 556 581 543 576 q 569 596 569 585 q 546 613 569 613 q 506 608 535 613 q 431 604 478 604 l 188 604 q 57 608 104 604 q -4 611 10 611 q -18 608 -15 611 q -21 594 -21 606 q -12 579 -21 583 q 10 569 -3 575 q 35 551 22 563 q 58 514 49 539 l 240 15 q 250 -8 246 0 q 265 -17 254 -17 q 281 -9 276 -17 q 292 14 286 -1 l 424 353 l 553 15 q 562 -8 558 0 q 578 -17 565 -17 q 604 14 593 -17 l 763 457 q 797 535 782 508 q 835 568 813 561 q 867 575 854 575 q 879 594 879 575 q 876 608 879 606 q 863 611 874 611 q 829 608 854 611 q 763 606 804 606 q 703 608 728 606 q 664 611 679 611 q 651 608 654 611 q 647 593 647 604 q 660 578 647 581 q 689 572 674 575 q 717 560 704 568 q 731 532 731 553 q 727 501 731 522 q 713 450 724 481 l 629 192 q 618 176 624 176 q 607 186 611 176 l 507 460 m 375 347 l 317 186 q 308 174 313 174 q 300 183 304 174 l 190 482 q 182 528 182 504 q 203 561 182 549 q 263 574 225 574 q 350 538 322 574 q 366 510 358 526 q 380 476 374 493 q 390 444 386 458 q 394 424 394 429 q 388 386 394 404 q 375 347 382 368 z "},"x":{"ha":558,"x_min":-25,"x_max":575,"o":"m 228 519 q 219 540 219 533 q 228 558 219 553 q 249 567 238 564 q 270 575 261 569 q 279 593 279 581 q 275 609 279 606 q 257 613 271 613 q 223 608 250 613 q 150 604 196 604 q 51 608 88 604 q 6 611 14 611 q -17 593 -17 611 q -10 576 -17 578 q 11 568 -3 574 q 45 547 25 563 q 93 492 65 532 l 215 308 q 221 290 221 300 q 214 269 221 279 l 160 188 q 92 97 122 129 q 44 54 61 64 q 19 45 32 47 q -3 41 7 43 q -19 34 -12 39 q -25 17 -25 29 q -1 -1 -25 -1 q 30 1 10 -1 q 82 4 50 4 q 147 1 118 4 q 200 -1 176 -1 q 226 17 226 -1 q 215 35 226 31 q 189 41 203 39 q 163 47 175 43 q 151 67 151 51 q 158 92 151 74 q 179 133 164 110 l 240 228 q 251 238 246 238 q 265 225 257 238 l 329 118 q 347 89 340 100 q 353 71 353 78 q 341 52 353 57 q 315 44 329 47 q 290 35 301 40 q 278 18 278 31 q 306 -1 278 -1 q 343 2 314 -1 q 425 6 372 6 q 516 3 485 6 q 554 0 547 0 q 575 18 575 0 q 568 35 575 32 q 548 45 561 38 q 514 71 535 53 q 465 133 493 89 l 338 338 q 336 346 336 340 q 343 369 336 361 l 401 453 q 456 522 432 496 q 506 558 479 547 q 531 565 519 564 q 553 569 543 567 q 568 575 563 571 q 574 590 574 579 q 567 607 574 603 q 550 611 561 611 q 517 609 536 611 q 471 607 497 607 l 451 607 q 394 609 419 607 q 354 611 369 611 q 336 593 336 611 q 344 576 336 581 q 363 569 353 572 q 383 563 374 567 q 392 546 392 558 q 379 508 392 526 l 317 413 q 304 400 308 400 q 292 413 299 400 l 228 519 z "},"y":{"ha":513,"x_min":-31,"x_max":543,"o":"m 451 500 q 482 553 465 539 q 512 571 499 567 q 534 577 525 575 q 543 594 543 579 q 542 608 543 606 q 529 611 540 611 q 496 609 518 611 q 440 607 474 607 q 378 609 401 607 q 343 611 354 611 q 330 609 333 611 q 326 596 326 607 q 338 576 326 581 q 365 567 350 571 q 392 557 379 564 q 404 531 404 550 q 400 501 404 525 q 386 450 396 478 l 301 213 q 290 196 294 196 q 279 213 285 196 l 201 460 q 188 514 190 492 q 185 544 185 536 q 195 561 185 557 q 218 569 206 565 q 241 577 231 572 q 251 596 251 582 q 235 611 251 611 q 201 608 229 611 q 121 606 174 606 q 36 608 68 606 q -7 611 4 611 q -25 608 -19 611 q -31 594 -31 606 q -26 581 -31 585 q -13 574 -21 576 q 4 568 -6 571 q 24 558 14 565 q 56 514 42 546 q 88 431 71 482 l 201 82 q 217 22 213 46 q 222 -8 222 -1 q 213 -51 222 -26 l 183 -132 q 158 -173 171 -167 q 124 -179 144 -179 l 118 -179 q 67 -197 79 -179 q 56 -256 56 -214 q 108 -306 56 -306 q 148 -301 133 -306 q 172 -287 163 -297 q 186 -260 181 -276 q 199 -219 192 -244 q 241 -83 210 -186 q 338 194 272 21 l 451 500 z "},"ÿ":{"ha":513,"x_min":-31,"x_max":543,"o":"m 451 500 q 482 553 465 539 q 512 571 499 567 q 534 577 525 575 q 543 594 543 579 q 542 608 543 606 q 529 611 540 611 q 496 609 518 611 q 440 607 474 607 q 378 609 401 607 q 343 611 354 611 q 330 609 333 611 q 326 596 326 607 q 338 576 326 581 q 365 567 350 571 q 392 557 379 564 q 404 531 404 550 q 400 501 404 525 q 386 450 396 478 l 301 213 q 290 196 294 196 q 279 213 285 196 l 201 460 q 188 514 190 492 q 185 544 185 536 q 195 561 185 557 q 218 569 206 565 q 241 577 231 572 q 251 596 251 582 q 235 611 251 611 q 201 608 229 611 q 121 606 174 606 q 36 608 68 606 q -7 611 4 611 q -25 608 -19 611 q -31 594 -31 606 q -26 581 -31 585 q -13 574 -21 576 q 4 568 -6 571 q 24 558 14 565 q 56 514 42 546 q 88 431 71 482 l 201 82 q 217 22 213 46 q 222 -8 222 -1 q 213 -51 222 -26 l 183 -132 q 158 -173 171 -167 q 124 -179 144 -179 l 118 -179 q 67 -197 79 -179 q 56 -256 56 -214 q 108 -306 56 -306 q 148 -301 133 -306 q 172 -287 163 -297 q 186 -260 181 -276 q 199 -219 192 -244 q 241 -83 210 -186 q 338 194 272 21 l 451 500 m 63 817 q 82 768 63 788 q 129 749 101 749 q 177 768 157 749 q 197 817 197 788 q 177 865 197 844 q 129 885 157 885 q 82 865 101 885 q 63 817 63 844 m 321 817 q 340 768 321 788 q 388 749 360 749 q 435 768 415 749 q 456 817 456 788 q 435 865 456 844 q 388 885 415 885 q 340 865 360 885 q 321 817 321 844 z "},"¥":{"ha":743,"x_min":6,"x_max":736,"o":"m 250 768 q 240 801 240 786 q 251 822 240 817 q 274 829 261 826 q 298 836 288 832 q 308 854 308 840 q 290 872 308 872 q 259 869 283 872 q 190 867 235 867 q 92 871 131 867 q 33 875 53 875 q 13 869 21 875 q 6 854 6 863 q 11 842 6 844 q 26 838 17 839 q 45 836 35 838 q 65 828 56 835 q 96 794 76 821 q 142 718 115 767 l 215 582 l 31 582 l 31 538 l 239 538 l 297 431 l 31 431 l 31 388 l 317 388 q 321 372 319 378 q 322 363 322 365 l 322 131 q 322 94 322 108 q 317 70 321 79 q 303 56 313 61 q 278 46 294 50 q 258 43 268 43 q 241 42 249 43 q 228 36 233 40 q 224 22 224 32 q 254 0 224 0 q 299 4 267 0 q 386 8 332 8 q 456 4 428 8 q 501 0 485 0 q 532 19 532 0 q 526 35 532 31 q 513 42 521 40 q 493 43 504 43 q 469 47 482 43 q 449 57 456 51 q 438 72 442 63 q 434 94 435 81 q 433 131 433 108 l 433 388 l 721 388 l 721 431 l 447 431 l 504 538 l 721 538 l 721 582 l 528 582 l 607 731 q 646 797 629 772 q 685 828 663 821 q 721 835 706 835 q 736 856 736 835 q 717 872 736 872 q 691 869 713 872 q 626 867 669 867 q 571 871 594 867 q 532 875 547 875 q 510 858 510 875 q 522 840 510 843 q 548 834 533 836 q 575 826 563 832 q 588 803 588 821 q 583 784 588 799 q 568 749 579 769 l 429 474 q 421 461 422 461 q 410 471 414 461 l 250 768 z "},"z":{"ha":500,"x_min":-1,"x_max":485,"o":"m 211 611 q 185 609 197 610 q 164 608 174 608 q 108 626 119 608 q 104 638 106 631 q 102 652 103 646 q 98 663 101 658 q 88 668 94 668 q 67 648 74 668 q 46 588 61 628 q 25 524 31 547 q 19 494 19 501 q 33 475 19 475 q 47 482 42 475 q 59 499 53 489 q 73 522 65 510 q 92 542 81 533 q 155 565 117 561 q 247 569 193 569 l 319 569 q 329 558 329 569 q 326 550 329 556 l 14 46 q -1 10 -1 19 q 22 -3 -1 -3 q 48 -1 26 -3 q 113 0 69 0 l 361 0 q 406 -3 386 0 q 443 -6 426 -6 q 465 0 461 -6 q 469 17 469 6 q 469 31 469 24 q 468 46 468 39 q 470 107 468 79 q 472 158 472 135 q 457 182 472 182 q 440 172 446 182 q 430 146 435 161 q 417 113 425 131 q 394 83 408 96 q 231 43 349 43 l 169 43 q 165 47 167 43 q 163 56 163 51 q 168 69 163 63 l 469 564 q 485 599 485 590 q 478 612 485 606 q 463 618 472 618 q 410 615 443 618 q 333 611 378 611 l 211 611 z "},"A":{"ha":638,"x_min":-51,"x_max":675,"o":"m 346 835 q 332 882 336 864 q 313 900 328 900 q 298 891 301 900 q 289 867 294 882 l 68 150 q 47 87 57 113 q 18 47 38 61 q -5 38 7 39 q -27 35 -17 36 q -44 30 -37 33 q -51 15 -51 26 q -26 -3 -51 -3 q 12 1 -11 -3 q 65 4 35 4 q 140 0 110 4 q 186 -4 171 -4 q 210 13 210 -4 q 196 33 210 28 q 154 43 182 39 q 126 53 135 46 q 118 81 118 60 q 139 188 118 106 l 172 311 q 178 320 174 317 q 188 324 183 324 l 360 324 q 381 313 378 324 l 435 135 q 447 72 447 90 q 436 46 447 53 q 390 39 425 39 q 363 17 363 39 q 386 0 363 0 q 435 3 400 0 q 529 7 471 7 q 599 3 571 7 q 646 -1 628 -1 q 675 18 675 -1 q 659 33 675 31 q 624 49 643 35 q 583 96 596 67 q 556 174 571 125 l 346 835 m 278 643 l 353 401 q 356 388 356 390 q 351 380 356 383 q 343 376 347 376 l 204 376 q 194 385 194 376 q 194 389 194 386 q 196 399 194 393 l 261 644 q 269 656 264 656 q 278 643 274 656 z "},"Æ":{"ha":964,"x_min":-58,"x_max":932,"o":"m 435 869 q 394 872 404 869 q 381 875 383 875 q 361 856 361 875 q 368 840 361 843 q 384 836 375 838 q 400 834 393 835 q 407 825 407 833 q 406 815 407 822 q 399 797 404 808 l 76 161 q 33 88 53 115 q -7 50 14 61 q -26 44 -17 46 q -42 41 -35 43 q -54 35 -50 39 q -58 19 -58 31 q -31 0 -58 0 q 3 2 -21 0 q 63 4 26 4 q 148 2 114 4 q 200 0 182 0 q 242 22 242 0 q 224 40 242 40 q 183 43 207 40 q 138 89 138 47 q 142 124 138 103 q 156 164 147 146 l 275 426 q 281 438 279 435 q 294 442 283 442 l 463 442 q 481 424 481 442 l 481 131 q 480 94 481 108 q 475 70 479 79 q 461 56 471 61 q 435 46 451 50 q 414 42 424 43 q 397 40 404 42 q 384 35 389 39 q 379 22 379 32 q 410 0 379 0 q 451 3 417 0 q 551 7 486 7 q 762 1 681 7 q 875 -4 843 -4 q 908 4 903 -4 q 915 44 913 13 l 929 179 q 931 197 931 190 q 932 204 932 203 q 928 213 932 208 q 919 217 924 217 q 892 189 904 217 q 857 121 881 161 q 792 56 828 71 q 697 42 757 42 q 649 45 667 42 q 621 59 631 49 q 608 86 611 69 q 606 131 606 103 l 606 417 q 610 437 606 432 q 628 442 614 442 l 685 442 q 751 435 725 442 q 792 396 776 428 q 807 357 801 375 q 815 326 813 339 q 822 306 818 314 q 835 299 826 299 q 850 324 850 299 q 848 364 850 335 q 846 442 846 393 q 850 532 846 500 q 854 572 854 564 q 838 599 854 599 q 824 590 828 599 q 818 569 821 582 q 810 542 815 557 q 793 514 806 526 q 754 497 783 504 q 686 489 725 489 l 628 489 q 609 493 613 489 q 606 510 606 497 l 606 746 q 607 786 606 769 q 615 813 608 803 q 637 826 622 822 q 676 831 651 831 q 833 778 783 831 q 858 742 850 761 q 872 708 867 724 q 881 683 876 693 q 894 674 886 674 q 910 708 910 674 l 910 828 q 906 865 910 854 q 874 875 901 875 q 810 872 854 875 q 699 869 767 869 l 435 869 m 481 767 l 481 507 q 463 489 481 489 l 303 489 l 432 765 q 467 806 450 806 q 478 795 476 806 q 481 767 481 785 z "},"Ð":{"ha":832,"x_min":6,"x_max":790,"o":"m 257 171 l 257 446 l 433 446 l 433 496 l 257 496 l 257 769 q 260 805 257 790 q 274 829 263 819 q 306 844 285 839 q 363 849 326 849 q 479 819 426 849 q 570 735 532 789 q 629 606 608 681 q 650 444 650 532 q 629 275 650 350 q 569 148 608 200 q 476 67 531 96 q 356 39 422 39 q 275 69 293 39 q 257 171 257 99 m 131 131 q 130 94 131 108 q 125 70 129 79 q 112 56 121 61 q 86 46 103 50 q 67 43 76 43 q 49 42 57 43 q 37 36 42 40 q 32 22 32 32 q 63 0 32 0 q 118 5 89 0 q 179 10 147 10 q 260 3 215 10 q 360 -4 306 -4 q 544 27 464 -4 q 678 115 624 58 q 762 254 733 172 q 790 438 790 336 q 760 622 790 538 q 675 765 731 706 q 540 858 619 825 q 363 892 461 892 q 119 874 204 892 q 33 829 33 857 q 38 814 33 819 q 50 808 43 808 q 75 815 63 808 q 103 821 88 821 q 126 810 121 821 q 131 776 131 799 l 131 496 l 6 496 l 6 446 l 131 446 l 131 131 z "},"Ł":{"ha":578,"x_min":6,"x_max":575,"o":"m 257 767 q 262 813 257 800 q 293 832 267 826 q 317 835 306 835 q 336 838 328 836 q 349 842 344 839 q 353 856 353 846 q 332 875 353 875 q 287 869 321 875 q 190 864 253 864 q 103 869 133 864 q 63 875 74 875 q 43 856 43 875 q 48 841 43 844 q 61 837 53 838 q 81 835 69 836 q 104 831 92 835 q 127 811 124 824 q 131 767 131 799 l 131 431 l 6 319 l 6 260 l 131 369 l 131 131 q 130 94 131 108 q 125 70 129 79 q 112 56 121 61 q 86 46 103 50 q 67 43 76 43 q 49 42 57 43 q 37 36 42 40 q 32 22 32 32 q 63 0 32 0 q 108 4 75 0 q 194 8 140 8 q 401 2 318 8 q 528 -4 483 -4 q 556 19 556 -4 q 556 28 556 22 q 558 43 557 33 l 572 174 q 574 191 574 185 q 575 199 575 197 q 571 206 575 201 q 563 210 567 210 q 536 184 551 210 q 489 117 521 158 q 426 59 460 78 q 347 40 392 40 q 257 131 257 40 l 257 454 l 410 586 l 410 649 l 257 515 l 257 767 z "},"Š":{"ha":581,"x_min":54,"x_max":528,"o":"m 67 658 q 83 557 67 597 q 126 488 99 517 q 190 436 153 458 q 268 390 226 414 q 387 295 347 346 q 426 181 426 244 q 415 114 426 144 q 383 61 403 83 q 335 26 363 39 q 276 14 307 14 q 177 53 224 14 q 110 163 131 92 q 101 200 104 182 q 97 231 99 218 q 90 252 94 244 q 76 260 86 260 q 56 217 56 260 q 56 205 56 214 q 57 181 57 196 q 56 139 57 161 q 54 93 54 117 q 111 3 54 33 q 260 -26 168 -26 q 367 -5 318 -26 q 452 54 417 17 q 508 143 488 92 q 528 256 528 194 q 513 358 528 314 q 467 438 497 403 q 394 503 438 474 q 296 561 351 532 q 198 631 229 596 q 167 721 167 665 q 202 826 167 788 q 300 864 238 864 q 375 835 349 864 q 424 750 401 806 q 444 695 439 714 q 464 676 449 676 q 482 706 482 676 q 471 857 482 843 q 416 885 461 869 q 313 900 371 900 q 210 883 256 900 q 133 833 165 865 q 84 757 101 801 q 67 658 67 713 m 133 1213 l 260 975 l 324 975 l 450 1213 l 418 1213 l 292 1069 l 165 1213 l 133 1213 z "},"Þ":{"ha":599,"x_min":32,"x_max":574,"o":"m 250 767 q 256 812 250 799 q 285 831 261 825 q 325 836 310 836 q 342 856 342 836 q 318 876 342 876 q 282 874 313 876 q 189 871 251 871 q 97 873 126 871 q 61 875 67 875 q 35 856 35 875 q 40 841 35 844 q 53 836 44 838 q 73 834 61 835 q 97 829 85 833 q 122 810 117 822 q 126 767 126 797 l 126 140 q 121 73 126 93 q 85 44 115 53 q 65 42 75 42 q 49 40 56 42 q 37 35 42 39 q 32 21 32 31 q 60 -1 32 -1 q 106 3 75 -1 q 186 8 138 8 q 272 3 239 8 q 318 -1 304 -1 q 340 5 332 -1 q 347 19 347 11 q 342 36 347 32 q 327 42 336 40 q 306 44 318 43 q 281 50 293 44 q 257 75 261 60 q 253 126 253 90 l 253 215 q 255 235 253 229 q 265 240 257 240 q 275 238 267 240 l 297 228 q 343 210 322 217 q 383 203 364 203 q 456 222 422 203 q 517 273 490 240 q 558 350 543 306 q 574 447 574 394 q 517 633 574 564 q 363 701 460 701 q 319 701 339 701 q 279 700 299 700 q 256 707 261 700 q 250 729 250 714 l 250 767 m 251 325 l 251 594 q 263 647 251 631 q 317 663 274 663 q 365 647 342 663 q 405 605 388 632 q 433 540 422 578 q 443 454 443 501 q 407 316 443 367 q 324 265 371 265 q 274 280 297 265 q 251 325 251 294 z "},"Ý":{"ha":639,"x_min":-49,"x_max":703,"o":"m 215 768 q 206 801 206 786 q 216 822 206 817 q 240 829 226 826 q 263 836 253 832 q 274 854 274 840 q 257 872 274 872 q 225 869 251 872 q 149 867 199 867 q 38 871 81 867 q -21 875 -4 875 q -41 868 -33 875 q -49 854 -49 861 q -42 842 -49 844 q -27 838 -36 839 q -8 836 -18 838 q 13 828 3 835 q 88 718 38 808 l 264 396 q 271 378 268 389 q 274 363 274 368 l 274 131 q 268 73 274 90 q 236 47 263 56 q 214 43 225 43 q 194 42 203 43 q 181 36 186 40 q 175 22 175 32 q 204 0 175 0 q 249 4 217 0 q 336 8 282 8 q 423 4 390 8 q 468 0 456 0 q 497 19 497 0 q 493 35 497 31 q 481 41 489 39 q 464 43 474 43 q 443 46 454 43 q 406 69 413 53 q 399 124 399 85 l 399 388 q 401 404 399 394 q 407 421 404 414 l 572 731 q 610 795 593 771 q 650 828 626 819 q 669 833 660 832 q 686 835 679 833 q 698 840 693 836 q 703 856 703 844 q 682 872 703 872 q 656 869 678 872 q 588 867 633 867 q 526 871 551 867 q 486 875 500 875 q 464 858 464 875 q 476 840 464 843 q 502 834 488 836 q 529 826 517 832 q 542 803 542 821 q 538 783 542 797 q 522 749 533 769 l 390 483 q 382 471 383 471 q 369 481 374 471 l 215 768 m 440 1115 q 474 1171 474 1140 q 462 1206 474 1193 q 435 1219 450 1219 q 408 1209 419 1219 q 382 1179 397 1199 l 225 975 l 261 975 l 440 1115 z "},"Ž":{"ha":661,"x_min":13,"x_max":625,"o":"m 194 871 q 151 876 164 871 q 133 899 139 881 q 128 926 128 915 q 114 936 129 936 q 103 928 104 936 q 99 910 101 921 l 61 725 q 54 675 54 686 q 67 667 54 667 q 81 678 74 667 q 99 706 89 689 q 122 742 108 722 q 154 781 135 763 q 228 819 183 810 q 343 829 274 829 l 431 829 q 449 811 449 829 q 446 799 449 803 l 18 36 q 13 15 13 25 q 40 -3 13 -3 q 149 1 51 -3 q 446 6 247 6 q 554 1 517 6 q 599 -3 592 -3 q 621 3 617 -3 q 625 19 625 8 l 625 219 q 610 249 625 249 q 594 235 597 249 q 587 200 590 221 q 578 154 583 179 q 556 107 572 129 q 461 53 521 61 q 318 44 401 44 l 211 44 q 188 58 188 44 q 189 67 188 61 q 194 79 190 72 l 603 815 q 613 847 613 835 q 572 875 613 875 q 531 873 565 875 q 431 871 496 871 l 194 871 m 174 1213 l 300 975 l 364 975 l 490 1213 l 458 1213 l 332 1069 l 206 1213 l 174 1213 z "},"¦":{"ha":694,"x_min":304,"x_max":390,"o":"m 304 971 l 304 457 l 390 457 l 390 971 l 304 971 m 304 276 l 304 -237 l 390 -237 l 390 276 l 304 276 z "},"ð":{"ha":646,"x_min":31,"x_max":615,"o":"m 347 829 q 190 936 215 936 q 176 924 176 936 q 212 888 176 913 q 304 801 247 863 l 139 699 q 123 688 129 692 q 117 674 117 685 q 136 656 117 656 q 151 665 135 656 l 326 774 q 392 670 367 715 q 426 589 417 625 q 317 610 369 610 q 203 587 256 610 q 113 522 151 564 q 52 422 74 481 q 31 293 31 364 q 51 165 31 224 q 108 64 71 107 q 198 -3 146 21 q 313 -26 250 -26 q 534 61 453 -26 q 615 303 615 149 q 601 438 615 374 q 558 561 588 501 q 482 680 528 621 q 374 801 436 739 l 518 893 q 534 904 528 900 q 540 918 540 908 q 522 935 540 935 q 506 926 518 935 l 347 829 m 322 572 q 444 493 397 572 q 490 271 490 414 q 446 81 490 149 q 325 13 401 13 q 203 91 250 13 q 157 313 157 169 q 201 503 157 435 q 322 572 244 572 z "},"∕":{"ha":185,"x_min":-186,"x_max":371,"o":"m 322 900 l -186 -26 l -137 -26 l 371 900 l 322 900 z "},"ł":{"ha":324,"x_min":6,"x_max":319,"o":"m 219 843 q 222 898 219 875 q 224 938 224 921 q 221 957 224 950 q 207 964 218 964 q 176 948 200 964 q 104 914 153 932 q 62 900 81 906 q 43 879 43 894 q 52 867 43 871 q 73 858 61 863 q 94 846 85 854 q 103 819 103 838 l 103 475 l 6 390 l 6 336 l 103 421 l 103 106 q 99 67 103 81 q 74 46 96 54 q 38 37 51 38 q 24 18 24 36 q 49 -4 24 -4 q 94 0 67 -4 q 161 4 122 4 q 226 0 196 4 q 281 -4 257 -4 q 308 15 308 -4 q 303 32 308 28 q 288 38 297 36 q 268 40 279 39 q 246 47 257 42 q 225 69 231 56 q 219 106 219 83 l 219 504 l 319 592 l 319 644 l 219 558 l 219 843 z "},"−":{"ha":1157,"x_min":172,"x_max":985,"o":"m 172 454 l 172 374 l 985 374 l 985 454 l 172 454 z "},"×":{"ha":1157,"x_min":204,"x_max":960,"o":"m 258 793 l 204 738 l 526 414 l 204 92 l 258 36 l 582 358 l 904 36 l 960 92 l 638 414 l 960 738 l 904 793 l 582 469 l 258 793 z "},"½":{"ha":950,"x_min":71,"x_max":900,"o":"m 249 829 q 250 854 249 843 q 251 872 251 865 q 240 886 251 886 q 215 873 236 886 q 138 840 193 860 q 90 824 108 831 q 71 807 71 818 q 83 797 71 797 q 119 808 99 797 q 157 819 140 819 q 168 810 167 819 q 169 776 169 800 l 169 474 q 165 430 169 444 q 138 413 160 415 q 99 410 114 410 q 83 399 83 411 q 99 385 83 385 q 133 387 110 385 q 193 389 157 389 q 287 386 257 389 q 321 383 317 383 q 333 396 333 383 q 327 407 333 404 q 311 410 321 410 q 292 410 303 410 q 271 414 281 410 q 252 437 256 421 q 249 481 249 453 l 249 829 m 704 900 l 196 -26 l 244 -26 l 753 900 l 704 900 m 696 107 q 794 206 754 169 q 851 260 835 242 q 900 375 900 317 q 860 467 900 432 q 760 503 821 503 q 697 490 725 503 q 648 458 668 476 q 617 420 628 439 q 606 392 606 401 q 615 382 606 382 q 630 392 624 382 q 649 418 636 403 q 732 465 688 465 q 793 438 768 465 q 818 365 818 411 q 795 288 818 326 q 733 197 772 249 l 618 50 q 597 14 597 25 q 617 -1 597 -1 q 623 -1 619 -1 q 629 0 626 0 l 868 0 q 894 5 889 0 q 899 31 899 10 l 899 104 q 897 122 899 115 q 889 128 896 128 q 876 115 878 128 q 867 90 874 103 q 821 76 860 76 l 683 76 q 672 79 672 76 q 676 86 672 82 l 696 107 z "},"¼":{"ha":950,"x_min":71,"x_max":925,"o":"m 249 829 q 250 854 249 843 q 251 872 251 865 q 240 886 251 886 q 215 873 236 886 q 138 840 193 860 q 90 824 108 831 q 71 807 71 818 q 83 797 71 797 q 119 808 99 797 q 157 819 140 819 q 168 810 167 819 q 169 776 169 800 l 169 474 q 165 430 169 444 q 138 413 160 415 q 99 410 114 410 q 83 399 83 411 q 99 385 83 385 q 133 387 110 385 q 193 389 157 389 q 287 386 257 389 q 321 383 317 383 q 333 396 333 383 q 327 407 333 404 q 311 410 321 410 q 292 410 303 410 q 271 414 281 410 q 252 437 256 421 q 249 481 249 453 l 249 829 m 704 900 l 196 -26 l 244 -26 l 753 900 l 704 900 m 876 553 q 858 543 867 553 l 615 225 q 594 196 603 208 q 586 175 586 183 q 592 160 586 163 q 608 157 597 157 l 763 157 q 778 154 776 157 q 781 138 781 151 l 781 76 q 777 48 781 58 q 761 33 774 38 q 721 25 733 25 q 708 11 708 25 q 719 0 708 0 q 751 3 726 0 q 824 6 776 6 q 867 3 849 6 q 896 1 885 1 q 911 14 911 1 q 908 23 911 21 q 899 26 904 25 q 888 27 894 26 q 872 31 881 28 q 859 44 861 36 q 857 68 857 53 l 857 142 q 871 157 857 157 l 915 157 q 925 167 925 157 l 925 179 q 914 190 925 190 l 872 190 q 859 194 861 190 q 857 206 857 197 l 857 367 q 849 379 857 379 q 832 375 847 379 q 799 361 817 371 q 783 349 785 354 q 781 335 781 343 l 781 208 q 778 194 781 197 q 764 190 775 190 l 642 190 q 625 197 625 190 q 635 215 625 201 q 663 251 644 228 l 708 313 q 846 481 796 426 q 896 546 896 536 q 889 553 896 553 l 876 553 z "},"¹":{"ha":400,"x_min":75,"x_max":350,"o":"m 261 826 q 263 853 261 842 q 264 872 264 864 q 253 888 264 888 q 225 873 247 888 q 144 839 203 858 q 94 822 114 828 q 75 803 75 815 q 88 792 75 792 q 125 803 103 792 q 165 815 147 815 q 176 805 175 815 q 178 769 178 794 l 178 446 q 172 399 178 414 q 144 381 167 383 q 103 378 119 376 q 88 364 88 379 q 104 350 88 350 q 140 353 115 350 q 203 356 164 356 q 301 352 269 356 q 336 349 332 349 q 350 363 350 349 q 344 374 350 371 q 328 377 338 376 q 306 378 318 378 q 285 382 294 378 q 265 406 269 389 q 261 453 261 424 l 261 826 z "},"š":{"ha":456,"x_min":40,"x_max":417,"o":"m 235 636 q 98 585 151 636 q 44 449 44 535 q 53 388 44 414 q 81 342 63 363 q 125 305 99 322 q 186 269 151 288 q 242 238 217 253 q 284 208 267 224 q 310 172 301 192 q 319 125 319 151 q 291 43 319 74 q 218 13 263 13 q 107 97 146 13 q 91 140 96 121 q 83 172 86 158 q 75 192 79 185 q 61 199 71 199 q 43 173 46 199 q 40 90 40 147 l 40 56 q 43 25 40 36 q 58 7 46 14 q 115 -16 78 -6 q 200 -26 153 -26 q 287 -11 247 -26 q 356 33 326 4 q 401 103 385 61 q 417 197 417 144 q 385 310 417 265 q 285 392 353 356 q 227 422 253 408 q 183 449 201 435 q 156 478 165 463 q 146 518 146 494 q 170 577 146 554 q 235 600 194 600 q 326 540 292 600 q 346 492 343 511 q 364 472 349 472 q 382 495 378 472 q 386 567 386 518 q 354 619 386 603 q 235 636 322 636 m 71 949 l 197 711 l 261 711 l 388 949 l 356 949 l 229 806 l 103 949 l 71 949 z "},"þ":{"ha":664,"x_min":18,"x_max":625,"o":"m 214 843 q 216 895 214 872 q 218 938 218 918 q 215 958 218 951 q 201 964 213 964 q 173 948 194 964 q 99 913 151 932 q 57 899 75 904 q 39 879 39 894 q 48 867 39 871 q 69 858 57 863 q 90 846 81 854 q 99 819 99 838 q 99 812 99 817 q 100 799 100 807 l 100 -196 q 94 -236 100 -224 q 69 -256 88 -249 q 33 -264 49 -264 q 18 -283 18 -264 q 43 -306 18 -306 q 90 -301 63 -306 q 154 -297 118 -297 q 222 -301 190 -297 q 281 -306 253 -306 q 310 -286 310 -306 q 304 -269 310 -274 q 290 -264 299 -265 q 267 -261 281 -262 q 240 -253 254 -260 q 219 -233 224 -246 q 214 -196 214 -221 l 214 1 l 222 6 q 343 -26 278 -26 q 457 -1 406 -26 q 546 72 508 25 q 604 182 583 118 q 625 324 625 246 q 607 453 625 394 q 558 551 589 511 q 486 614 528 592 q 399 636 444 636 q 317 617 354 636 q 243 557 279 599 l 229 540 q 218 533 222 533 q 214 543 214 533 l 214 843 m 215 146 l 215 404 q 326 542 215 542 q 458 474 406 542 q 510 282 510 406 q 497 174 510 224 q 459 90 483 125 q 401 35 435 54 q 328 15 368 15 q 245 47 275 15 q 215 146 215 79 z "},"¾":{"ha":950,"x_min":33,"x_max":925,"o":"m 178 888 q 122 878 147 888 q 80 856 97 869 q 53 829 63 843 q 43 806 43 815 q 50 794 43 794 q 62 802 58 794 q 76 821 65 810 q 110 849 93 840 q 149 858 126 858 q 193 840 175 858 q 211 794 211 822 q 185 733 211 760 q 117 675 160 707 q 63 639 82 650 q 43 617 43 628 q 53 608 43 608 q 80 620 60 608 q 139 632 100 632 q 235 598 200 632 q 269 504 269 564 q 257 438 269 467 q 226 389 244 408 q 185 359 207 369 q 147 349 164 349 q 125 356 135 349 q 106 374 115 364 q 88 391 97 383 q 65 399 78 399 q 33 365 33 399 q 113 319 33 319 q 193 340 150 319 q 274 399 236 360 q 339 544 339 467 q 256 678 339 646 q 199 690 221 692 q 178 693 178 688 q 197 705 178 697 q 240 731 215 713 q 286 810 286 763 q 258 865 286 843 q 178 888 229 888 m 704 900 l 196 -26 l 244 -26 l 753 900 l 704 900 m 876 553 q 858 543 867 553 l 615 225 q 594 196 603 208 q 586 175 586 183 q 592 160 586 163 q 608 157 597 157 l 763 157 q 778 154 776 157 q 781 138 781 151 l 781 76 q 777 48 781 58 q 761 33 774 38 q 721 25 733 25 q 708 11 708 25 q 719 0 708 0 q 751 3 726 0 q 824 6 776 6 q 867 3 849 6 q 896 1 885 1 q 911 14 911 1 q 908 23 911 21 q 899 26 904 25 q 888 27 894 26 q 872 31 881 28 q 859 44 861 36 q 857 68 857 53 l 857 142 q 871 157 857 157 l 915 157 q 925 167 925 157 l 925 179 q 914 190 925 190 l 872 190 q 859 194 861 190 q 857 206 857 197 l 857 367 q 849 379 857 379 q 832 375 847 379 q 799 361 817 371 q 783 349 785 354 q 781 335 781 343 l 781 208 q 778 194 781 197 q 764 190 775 190 l 642 190 q 625 197 625 190 q 635 215 625 201 q 663 251 644 228 l 708 313 q 846 481 796 426 q 896 546 896 536 q 889 553 896 553 l 876 553 z "},"³":{"ha":400,"x_min":35,"x_max":356,"o":"m 186 889 q 128 879 154 889 q 83 856 101 869 q 54 826 64 842 q 44 801 44 811 q 53 789 44 789 q 65 797 61 789 q 79 818 68 806 q 115 847 97 838 q 156 857 132 857 q 202 838 183 857 q 221 789 221 819 q 194 724 221 753 q 122 661 167 694 q 66 623 86 635 q 46 599 46 611 q 56 590 46 590 q 84 602 63 590 q 146 614 106 614 q 246 578 210 614 q 282 478 282 542 q 269 406 282 438 q 236 354 256 375 q 194 322 217 333 q 156 311 172 311 q 132 319 143 311 q 111 338 121 328 q 91 356 101 347 q 68 364 81 364 q 35 329 35 364 q 117 281 35 281 q 202 302 157 281 q 288 365 247 324 q 356 522 356 438 q 268 664 356 629 q 209 676 232 678 q 186 681 186 675 q 206 692 186 685 q 251 719 225 700 q 288 758 276 739 q 300 806 300 778 q 269 865 300 842 q 186 889 239 889 z "},"²":{"ha":400,"x_min":32,"x_max":349,"o":"m 135 465 q 239 570 197 532 q 299 628 281 608 q 349 753 349 689 q 308 851 349 813 q 203 889 267 889 q 137 874 167 889 q 86 840 107 860 q 53 801 65 821 q 42 769 42 781 q 50 760 42 760 q 67 771 61 760 q 86 797 74 782 q 126 835 106 822 q 174 849 147 849 q 237 819 211 849 q 263 742 263 790 q 239 658 263 700 q 174 561 215 617 l 54 403 q 38 382 44 390 q 32 365 32 374 q 53 349 32 349 q 59 349 56 349 q 65 350 63 350 l 315 350 q 342 355 338 350 q 347 382 347 360 l 347 461 q 347 479 347 472 q 339 486 346 486 q 324 473 326 486 q 314 447 321 460 q 267 432 307 432 l 122 432 q 110 435 110 432 q 115 443 110 435 l 135 465 z "},"ý":{"ha":513,"x_min":-31,"x_max":543,"o":"m 451 500 q 482 553 465 539 q 512 571 499 567 q 534 577 525 575 q 543 594 543 579 q 542 608 543 606 q 529 611 540 611 q 496 609 518 611 q 440 607 474 607 q 378 609 401 607 q 343 611 354 611 q 330 609 333 611 q 326 596 326 607 q 338 576 326 581 q 365 567 350 571 q 392 557 379 564 q 404 531 404 550 q 400 501 404 525 q 386 450 396 478 l 301 213 q 290 196 294 196 q 279 213 285 196 l 201 460 q 188 514 190 492 q 185 544 185 536 q 195 561 185 557 q 218 569 206 565 q 241 577 231 572 q 251 596 251 582 q 235 611 251 611 q 201 608 229 611 q 121 606 174 606 q 36 608 68 606 q -7 611 4 611 q -25 608 -19 611 q -31 594 -31 606 q -26 581 -31 585 q -13 574 -21 576 q 4 568 -6 571 q 24 558 14 565 q 56 514 42 546 q 88 431 71 482 l 201 82 q 217 22 213 46 q 222 -8 222 -1 q 213 -51 222 -26 l 183 -132 q 158 -173 171 -167 q 124 -179 144 -179 l 118 -179 q 67 -197 79 -179 q 56 -256 56 -214 q 108 -306 56 -306 q 148 -301 133 -306 q 172 -287 163 -297 q 186 -260 181 -276 q 199 -219 192 -244 q 241 -83 210 -186 q 338 194 272 21 l 451 500 m 378 851 q 411 907 411 876 q 399 942 411 929 q 372 956 388 956 q 346 945 357 956 q 319 915 335 935 l 163 711 l 199 711 l 378 851 z "},"ž":{"ha":500,"x_min":-1,"x_max":485,"o":"m 211 611 q 185 609 197 610 q 164 608 174 608 q 108 626 119 608 q 104 638 106 631 q 102 652 103 646 q 98 663 101 658 q 88 668 94 668 q 67 648 74 668 q 46 588 61 628 q 25 524 31 547 q 19 494 19 501 q 33 475 19 475 q 47 482 42 475 q 59 499 53 489 q 73 522 65 510 q 92 542 81 533 q 155 565 117 561 q 247 569 193 569 l 319 569 q 329 558 329 569 q 326 550 329 556 l 14 46 q -1 10 -1 19 q 22 -3 -1 -3 q 48 -1 26 -3 q 113 0 69 0 l 361 0 q 406 -3 386 0 q 443 -6 426 -6 q 465 0 461 -6 q 469 17 469 6 q 469 31 469 24 q 468 46 468 39 q 470 107 468 79 q 472 158 472 135 q 457 182 472 182 q 440 172 446 182 q 430 146 435 161 q 417 113 425 131 q 394 83 408 96 q 231 43 349 43 l 169 43 q 165 47 167 43 q 163 56 163 51 q 168 69 163 63 l 469 564 q 485 599 485 590 q 478 612 485 606 q 463 618 472 618 q 410 615 443 618 q 333 611 378 611 l 211 611 m 93 949 l 219 711 l 283 711 l 410 949 l 378 949 l 251 806 l 125 949 l 93 949 z "}}}
